%TF.GenerationSoftware,KiCad,Pcbnew,(6.0.8)*%
%TF.CreationDate,2023-07-25T16:12:53-04:00*%
%TF.ProjectId,Hybrid USB Hub (USB3.0),48796272-6964-4205-9553-422048756220,v1.0*%
%TF.SameCoordinates,Original*%
%TF.FileFunction,Drillmap*%
%TF.FilePolarity,Positive*%
%FSLAX45Y45*%
G04 Gerber Fmt 4.5, Leading zero omitted, Abs format (unit mm)*
G04 Created by KiCad (PCBNEW (6.0.8)) date 2023-07-25 16:12:53*
%MOMM*%
%LPD*%
G01*
G04 APERTURE LIST*
%ADD10C,0.100000*%
%ADD11C,0.200000*%
%ADD12C,0.160000*%
%ADD13C,0.320000*%
G04 APERTURE END LIST*
D10*
X20720000Y-8197107D02*
X20720000Y-12300000D01*
X8680000Y-12300000D02*
G75*
G03*
X9180000Y-12800000I500000J0D01*
G01*
X9180000Y-7697107D02*
G75*
G03*
X8680000Y-8197107I0J-500000D01*
G01*
X9180000Y-12800000D02*
X20220000Y-12800000D01*
X8680000Y-12300000D02*
X8680000Y-8197107D01*
X9180000Y-7697107D02*
X20220000Y-7697107D01*
X20720003Y-8197107D02*
G75*
G03*
X20220000Y-7697107I-500003J-3D01*
G01*
X20220000Y-12800000D02*
G75*
G03*
X20720000Y-12300000I0J500000D01*
G01*
D11*
D12*
X10219500Y-12390000D02*
X10379500Y-12550000D01*
X10379500Y-12390000D02*
X10219500Y-12550000D01*
D13*
X9360000Y-8210000D02*
G75*
G03*
X9360000Y-8210000I-160000J0D01*
G01*
X9360000Y-12280000D02*
G75*
G03*
X9360000Y-12280000I-160000J0D01*
G01*
X20360000Y-8220000D02*
G75*
G03*
X20360000Y-8220000I-160000J0D01*
G01*
X20360000Y-12280000D02*
G75*
G03*
X20360000Y-12280000I-160000J0D01*
G01*
D11*
X8932619Y-13115476D02*
X8932619Y-12915476D01*
X8980238Y-12915476D01*
X9008810Y-12925000D01*
X9027857Y-12944048D01*
X9037381Y-12963095D01*
X9046905Y-13001190D01*
X9046905Y-13029762D01*
X9037381Y-13067857D01*
X9027857Y-13086905D01*
X9008810Y-13105952D01*
X8980238Y-13115476D01*
X8932619Y-13115476D01*
X9132619Y-13115476D02*
X9132619Y-12982143D01*
X9132619Y-13020238D02*
X9142143Y-13001190D01*
X9151667Y-12991667D01*
X9170714Y-12982143D01*
X9189762Y-12982143D01*
X9256429Y-13115476D02*
X9256429Y-12982143D01*
X9256429Y-12915476D02*
X9246905Y-12925000D01*
X9256429Y-12934524D01*
X9265952Y-12925000D01*
X9256429Y-12915476D01*
X9256429Y-12934524D01*
X9380238Y-13115476D02*
X9361190Y-13105952D01*
X9351667Y-13086905D01*
X9351667Y-12915476D01*
X9485000Y-13115476D02*
X9465952Y-13105952D01*
X9456429Y-13086905D01*
X9456429Y-12915476D01*
X9713571Y-13115476D02*
X9713571Y-12915476D01*
X9780238Y-13058333D01*
X9846905Y-12915476D01*
X9846905Y-13115476D01*
X10027857Y-13115476D02*
X10027857Y-13010714D01*
X10018333Y-12991667D01*
X9999286Y-12982143D01*
X9961190Y-12982143D01*
X9942143Y-12991667D01*
X10027857Y-13105952D02*
X10008810Y-13115476D01*
X9961190Y-13115476D01*
X9942143Y-13105952D01*
X9932619Y-13086905D01*
X9932619Y-13067857D01*
X9942143Y-13048809D01*
X9961190Y-13039286D01*
X10008810Y-13039286D01*
X10027857Y-13029762D01*
X10123095Y-12982143D02*
X10123095Y-13182143D01*
X10123095Y-12991667D02*
X10142143Y-12982143D01*
X10180238Y-12982143D01*
X10199286Y-12991667D01*
X10208810Y-13001190D01*
X10218333Y-13020238D01*
X10218333Y-13077381D01*
X10208810Y-13096428D01*
X10199286Y-13105952D01*
X10180238Y-13115476D01*
X10142143Y-13115476D01*
X10123095Y-13105952D01*
X10304048Y-13096428D02*
X10313571Y-13105952D01*
X10304048Y-13115476D01*
X10294524Y-13105952D01*
X10304048Y-13096428D01*
X10304048Y-13115476D01*
X10304048Y-12991667D02*
X10313571Y-13001190D01*
X10304048Y-13010714D01*
X10294524Y-13001190D01*
X10304048Y-12991667D01*
X10304048Y-13010714D01*
D12*
X8515000Y-13365000D02*
X8675000Y-13525000D01*
X8675000Y-13365000D02*
X8515000Y-13525000D01*
D11*
X9037381Y-13535476D02*
X8923095Y-13535476D01*
X8980238Y-13535476D02*
X8980238Y-13335476D01*
X8961190Y-13364048D01*
X8942143Y-13383095D01*
X8923095Y-13392619D01*
X9123095Y-13516428D02*
X9132619Y-13525952D01*
X9123095Y-13535476D01*
X9113571Y-13525952D01*
X9123095Y-13516428D01*
X9123095Y-13535476D01*
X9304048Y-13335476D02*
X9265952Y-13335476D01*
X9246905Y-13345000D01*
X9237381Y-13354524D01*
X9218333Y-13383095D01*
X9208810Y-13421190D01*
X9208810Y-13497381D01*
X9218333Y-13516428D01*
X9227857Y-13525952D01*
X9246905Y-13535476D01*
X9285000Y-13535476D01*
X9304048Y-13525952D01*
X9313571Y-13516428D01*
X9323095Y-13497381D01*
X9323095Y-13449762D01*
X9313571Y-13430714D01*
X9304048Y-13421190D01*
X9285000Y-13411667D01*
X9246905Y-13411667D01*
X9227857Y-13421190D01*
X9218333Y-13430714D01*
X9208810Y-13449762D01*
X9446905Y-13335476D02*
X9465952Y-13335476D01*
X9485000Y-13345000D01*
X9494524Y-13354524D01*
X9504048Y-13373571D01*
X9513571Y-13411667D01*
X9513571Y-13459286D01*
X9504048Y-13497381D01*
X9494524Y-13516428D01*
X9485000Y-13525952D01*
X9465952Y-13535476D01*
X9446905Y-13535476D01*
X9427857Y-13525952D01*
X9418333Y-13516428D01*
X9408810Y-13497381D01*
X9399286Y-13459286D01*
X9399286Y-13411667D01*
X9408810Y-13373571D01*
X9418333Y-13354524D01*
X9427857Y-13345000D01*
X9446905Y-13335476D01*
X9637381Y-13335476D02*
X9656429Y-13335476D01*
X9675476Y-13345000D01*
X9685000Y-13354524D01*
X9694524Y-13373571D01*
X9704048Y-13411667D01*
X9704048Y-13459286D01*
X9694524Y-13497381D01*
X9685000Y-13516428D01*
X9675476Y-13525952D01*
X9656429Y-13535476D01*
X9637381Y-13535476D01*
X9618333Y-13525952D01*
X9608810Y-13516428D01*
X9599286Y-13497381D01*
X9589762Y-13459286D01*
X9589762Y-13411667D01*
X9599286Y-13373571D01*
X9608810Y-13354524D01*
X9618333Y-13345000D01*
X9637381Y-13335476D01*
X9789762Y-13535476D02*
X9789762Y-13402143D01*
X9789762Y-13421190D02*
X9799286Y-13411667D01*
X9818333Y-13402143D01*
X9846905Y-13402143D01*
X9865952Y-13411667D01*
X9875476Y-13430714D01*
X9875476Y-13535476D01*
X9875476Y-13430714D02*
X9885000Y-13411667D01*
X9904048Y-13402143D01*
X9932619Y-13402143D01*
X9951667Y-13411667D01*
X9961190Y-13430714D01*
X9961190Y-13535476D01*
X10056429Y-13535476D02*
X10056429Y-13402143D01*
X10056429Y-13421190D02*
X10065952Y-13411667D01*
X10085000Y-13402143D01*
X10113571Y-13402143D01*
X10132619Y-13411667D01*
X10142143Y-13430714D01*
X10142143Y-13535476D01*
X10142143Y-13430714D02*
X10151667Y-13411667D01*
X10170714Y-13402143D01*
X10199286Y-13402143D01*
X10218333Y-13411667D01*
X10227857Y-13430714D01*
X10227857Y-13535476D01*
X10618333Y-13325952D02*
X10446905Y-13583095D01*
X10875476Y-13335476D02*
X10894524Y-13335476D01*
X10913571Y-13345000D01*
X10923095Y-13354524D01*
X10932619Y-13373571D01*
X10942143Y-13411667D01*
X10942143Y-13459286D01*
X10932619Y-13497381D01*
X10923095Y-13516428D01*
X10913571Y-13525952D01*
X10894524Y-13535476D01*
X10875476Y-13535476D01*
X10856429Y-13525952D01*
X10846905Y-13516428D01*
X10837381Y-13497381D01*
X10827857Y-13459286D01*
X10827857Y-13411667D01*
X10837381Y-13373571D01*
X10846905Y-13354524D01*
X10856429Y-13345000D01*
X10875476Y-13335476D01*
X11027857Y-13516428D02*
X11037381Y-13525952D01*
X11027857Y-13535476D01*
X11018333Y-13525952D01*
X11027857Y-13516428D01*
X11027857Y-13535476D01*
X11161190Y-13335476D02*
X11180238Y-13335476D01*
X11199286Y-13345000D01*
X11208809Y-13354524D01*
X11218333Y-13373571D01*
X11227857Y-13411667D01*
X11227857Y-13459286D01*
X11218333Y-13497381D01*
X11208809Y-13516428D01*
X11199286Y-13525952D01*
X11180238Y-13535476D01*
X11161190Y-13535476D01*
X11142143Y-13525952D01*
X11132619Y-13516428D01*
X11123095Y-13497381D01*
X11113571Y-13459286D01*
X11113571Y-13411667D01*
X11123095Y-13373571D01*
X11132619Y-13354524D01*
X11142143Y-13345000D01*
X11161190Y-13335476D01*
X11399286Y-13335476D02*
X11361190Y-13335476D01*
X11342143Y-13345000D01*
X11332619Y-13354524D01*
X11313571Y-13383095D01*
X11304048Y-13421190D01*
X11304048Y-13497381D01*
X11313571Y-13516428D01*
X11323095Y-13525952D01*
X11342143Y-13535476D01*
X11380238Y-13535476D01*
X11399286Y-13525952D01*
X11408809Y-13516428D01*
X11418333Y-13497381D01*
X11418333Y-13449762D01*
X11408809Y-13430714D01*
X11399286Y-13421190D01*
X11380238Y-13411667D01*
X11342143Y-13411667D01*
X11323095Y-13421190D01*
X11313571Y-13430714D01*
X11304048Y-13449762D01*
X11485000Y-13335476D02*
X11608809Y-13335476D01*
X11542143Y-13411667D01*
X11570714Y-13411667D01*
X11589762Y-13421190D01*
X11599286Y-13430714D01*
X11608809Y-13449762D01*
X11608809Y-13497381D01*
X11599286Y-13516428D01*
X11589762Y-13525952D01*
X11570714Y-13535476D01*
X11513571Y-13535476D01*
X11494524Y-13525952D01*
X11485000Y-13516428D01*
X11732619Y-13335476D02*
X11751667Y-13335476D01*
X11770714Y-13345000D01*
X11780238Y-13354524D01*
X11789762Y-13373571D01*
X11799286Y-13411667D01*
X11799286Y-13459286D01*
X11789762Y-13497381D01*
X11780238Y-13516428D01*
X11770714Y-13525952D01*
X11751667Y-13535476D01*
X11732619Y-13535476D01*
X11713571Y-13525952D01*
X11704048Y-13516428D01*
X11694524Y-13497381D01*
X11685000Y-13459286D01*
X11685000Y-13411667D01*
X11694524Y-13373571D01*
X11704048Y-13354524D01*
X11713571Y-13345000D01*
X11732619Y-13335476D01*
X11875476Y-13335476D02*
X11875476Y-13373571D01*
X11951667Y-13335476D02*
X11951667Y-13373571D01*
X12246905Y-13611667D02*
X12237381Y-13602143D01*
X12218333Y-13573571D01*
X12208809Y-13554524D01*
X12199286Y-13525952D01*
X12189762Y-13478333D01*
X12189762Y-13440238D01*
X12199286Y-13392619D01*
X12208809Y-13364048D01*
X12218333Y-13345000D01*
X12237381Y-13316428D01*
X12246905Y-13306905D01*
X12427857Y-13535476D02*
X12313571Y-13535476D01*
X12370714Y-13535476D02*
X12370714Y-13335476D01*
X12351667Y-13364048D01*
X12332619Y-13383095D01*
X12313571Y-13392619D01*
X12665952Y-13535476D02*
X12665952Y-13335476D01*
X12751667Y-13535476D02*
X12751667Y-13430714D01*
X12742143Y-13411667D01*
X12723095Y-13402143D01*
X12694524Y-13402143D01*
X12675476Y-13411667D01*
X12665952Y-13421190D01*
X12875476Y-13535476D02*
X12856428Y-13525952D01*
X12846905Y-13516428D01*
X12837381Y-13497381D01*
X12837381Y-13440238D01*
X12846905Y-13421190D01*
X12856428Y-13411667D01*
X12875476Y-13402143D01*
X12904048Y-13402143D01*
X12923095Y-13411667D01*
X12932619Y-13421190D01*
X12942143Y-13440238D01*
X12942143Y-13497381D01*
X12932619Y-13516428D01*
X12923095Y-13525952D01*
X12904048Y-13535476D01*
X12875476Y-13535476D01*
X13056428Y-13535476D02*
X13037381Y-13525952D01*
X13027857Y-13506905D01*
X13027857Y-13335476D01*
X13208809Y-13525952D02*
X13189762Y-13535476D01*
X13151667Y-13535476D01*
X13132619Y-13525952D01*
X13123095Y-13506905D01*
X13123095Y-13430714D01*
X13132619Y-13411667D01*
X13151667Y-13402143D01*
X13189762Y-13402143D01*
X13208809Y-13411667D01*
X13218333Y-13430714D01*
X13218333Y-13449762D01*
X13123095Y-13468809D01*
X13285000Y-13611667D02*
X13294524Y-13602143D01*
X13313571Y-13573571D01*
X13323095Y-13554524D01*
X13332619Y-13525952D01*
X13342143Y-13478333D01*
X13342143Y-13440238D01*
X13332619Y-13392619D01*
X13323095Y-13364048D01*
X13313571Y-13345000D01*
X13294524Y-13316428D01*
X13285000Y-13306905D01*
X13646905Y-13611667D02*
X13637381Y-13602143D01*
X13618333Y-13573571D01*
X13608809Y-13554524D01*
X13599286Y-13525952D01*
X13589762Y-13478333D01*
X13589762Y-13440238D01*
X13599286Y-13392619D01*
X13608809Y-13364048D01*
X13618333Y-13345000D01*
X13637381Y-13316428D01*
X13646905Y-13306905D01*
X13723095Y-13402143D02*
X13723095Y-13535476D01*
X13723095Y-13421190D02*
X13732619Y-13411667D01*
X13751667Y-13402143D01*
X13780238Y-13402143D01*
X13799286Y-13411667D01*
X13808809Y-13430714D01*
X13808809Y-13535476D01*
X13932619Y-13535476D02*
X13913571Y-13525952D01*
X13904048Y-13516428D01*
X13894524Y-13497381D01*
X13894524Y-13440238D01*
X13904048Y-13421190D01*
X13913571Y-13411667D01*
X13932619Y-13402143D01*
X13961190Y-13402143D01*
X13980238Y-13411667D01*
X13989762Y-13421190D01*
X13999286Y-13440238D01*
X13999286Y-13497381D01*
X13989762Y-13516428D01*
X13980238Y-13525952D01*
X13961190Y-13535476D01*
X13932619Y-13535476D01*
X14056428Y-13402143D02*
X14132619Y-13402143D01*
X14085000Y-13335476D02*
X14085000Y-13506905D01*
X14094524Y-13525952D01*
X14113571Y-13535476D01*
X14132619Y-13535476D01*
X14351667Y-13402143D02*
X14351667Y-13602143D01*
X14351667Y-13411667D02*
X14370714Y-13402143D01*
X14408809Y-13402143D01*
X14427857Y-13411667D01*
X14437381Y-13421190D01*
X14446905Y-13440238D01*
X14446905Y-13497381D01*
X14437381Y-13516428D01*
X14427857Y-13525952D01*
X14408809Y-13535476D01*
X14370714Y-13535476D01*
X14351667Y-13525952D01*
X14561190Y-13535476D02*
X14542143Y-13525952D01*
X14532619Y-13506905D01*
X14532619Y-13335476D01*
X14723095Y-13535476D02*
X14723095Y-13430714D01*
X14713571Y-13411667D01*
X14694524Y-13402143D01*
X14656428Y-13402143D01*
X14637381Y-13411667D01*
X14723095Y-13525952D02*
X14704048Y-13535476D01*
X14656428Y-13535476D01*
X14637381Y-13525952D01*
X14627857Y-13506905D01*
X14627857Y-13487857D01*
X14637381Y-13468809D01*
X14656428Y-13459286D01*
X14704048Y-13459286D01*
X14723095Y-13449762D01*
X14789762Y-13402143D02*
X14865952Y-13402143D01*
X14818333Y-13335476D02*
X14818333Y-13506905D01*
X14827857Y-13525952D01*
X14846905Y-13535476D01*
X14865952Y-13535476D01*
X15008809Y-13525952D02*
X14989762Y-13535476D01*
X14951667Y-13535476D01*
X14932619Y-13525952D01*
X14923095Y-13506905D01*
X14923095Y-13430714D01*
X14932619Y-13411667D01*
X14951667Y-13402143D01*
X14989762Y-13402143D01*
X15008809Y-13411667D01*
X15018333Y-13430714D01*
X15018333Y-13449762D01*
X14923095Y-13468809D01*
X15189762Y-13535476D02*
X15189762Y-13335476D01*
X15189762Y-13525952D02*
X15170714Y-13535476D01*
X15132619Y-13535476D01*
X15113571Y-13525952D01*
X15104048Y-13516428D01*
X15094524Y-13497381D01*
X15094524Y-13440238D01*
X15104048Y-13421190D01*
X15113571Y-13411667D01*
X15132619Y-13402143D01*
X15170714Y-13402143D01*
X15189762Y-13411667D01*
X15265952Y-13611667D02*
X15275476Y-13602143D01*
X15294524Y-13573571D01*
X15304048Y-13554524D01*
X15313571Y-13525952D01*
X15323095Y-13478333D01*
X15323095Y-13440238D01*
X15313571Y-13392619D01*
X15304048Y-13364048D01*
X15294524Y-13345000D01*
X15275476Y-13316428D01*
X15265952Y-13306905D01*
X8675000Y-13725000D02*
G75*
G03*
X8675000Y-13725000I-100000J0D01*
G01*
X8913571Y-13615476D02*
X9037381Y-13615476D01*
X8970714Y-13691667D01*
X8999286Y-13691667D01*
X9018333Y-13701190D01*
X9027857Y-13710714D01*
X9037381Y-13729762D01*
X9037381Y-13777381D01*
X9027857Y-13796428D01*
X9018333Y-13805952D01*
X8999286Y-13815476D01*
X8942143Y-13815476D01*
X8923095Y-13805952D01*
X8913571Y-13796428D01*
X9123095Y-13796428D02*
X9132619Y-13805952D01*
X9123095Y-13815476D01*
X9113571Y-13805952D01*
X9123095Y-13796428D01*
X9123095Y-13815476D01*
X9208810Y-13634524D02*
X9218333Y-13625000D01*
X9237381Y-13615476D01*
X9285000Y-13615476D01*
X9304048Y-13625000D01*
X9313571Y-13634524D01*
X9323095Y-13653571D01*
X9323095Y-13672619D01*
X9313571Y-13701190D01*
X9199286Y-13815476D01*
X9323095Y-13815476D01*
X9446905Y-13615476D02*
X9465952Y-13615476D01*
X9485000Y-13625000D01*
X9494524Y-13634524D01*
X9504048Y-13653571D01*
X9513571Y-13691667D01*
X9513571Y-13739286D01*
X9504048Y-13777381D01*
X9494524Y-13796428D01*
X9485000Y-13805952D01*
X9465952Y-13815476D01*
X9446905Y-13815476D01*
X9427857Y-13805952D01*
X9418333Y-13796428D01*
X9408810Y-13777381D01*
X9399286Y-13739286D01*
X9399286Y-13691667D01*
X9408810Y-13653571D01*
X9418333Y-13634524D01*
X9427857Y-13625000D01*
X9446905Y-13615476D01*
X9637381Y-13615476D02*
X9656429Y-13615476D01*
X9675476Y-13625000D01*
X9685000Y-13634524D01*
X9694524Y-13653571D01*
X9704048Y-13691667D01*
X9704048Y-13739286D01*
X9694524Y-13777381D01*
X9685000Y-13796428D01*
X9675476Y-13805952D01*
X9656429Y-13815476D01*
X9637381Y-13815476D01*
X9618333Y-13805952D01*
X9608810Y-13796428D01*
X9599286Y-13777381D01*
X9589762Y-13739286D01*
X9589762Y-13691667D01*
X9599286Y-13653571D01*
X9608810Y-13634524D01*
X9618333Y-13625000D01*
X9637381Y-13615476D01*
X9789762Y-13815476D02*
X9789762Y-13682143D01*
X9789762Y-13701190D02*
X9799286Y-13691667D01*
X9818333Y-13682143D01*
X9846905Y-13682143D01*
X9865952Y-13691667D01*
X9875476Y-13710714D01*
X9875476Y-13815476D01*
X9875476Y-13710714D02*
X9885000Y-13691667D01*
X9904048Y-13682143D01*
X9932619Y-13682143D01*
X9951667Y-13691667D01*
X9961190Y-13710714D01*
X9961190Y-13815476D01*
X10056429Y-13815476D02*
X10056429Y-13682143D01*
X10056429Y-13701190D02*
X10065952Y-13691667D01*
X10085000Y-13682143D01*
X10113571Y-13682143D01*
X10132619Y-13691667D01*
X10142143Y-13710714D01*
X10142143Y-13815476D01*
X10142143Y-13710714D02*
X10151667Y-13691667D01*
X10170714Y-13682143D01*
X10199286Y-13682143D01*
X10218333Y-13691667D01*
X10227857Y-13710714D01*
X10227857Y-13815476D01*
X10618333Y-13605952D02*
X10446905Y-13863095D01*
X10875476Y-13615476D02*
X10894524Y-13615476D01*
X10913571Y-13625000D01*
X10923095Y-13634524D01*
X10932619Y-13653571D01*
X10942143Y-13691667D01*
X10942143Y-13739286D01*
X10932619Y-13777381D01*
X10923095Y-13796428D01*
X10913571Y-13805952D01*
X10894524Y-13815476D01*
X10875476Y-13815476D01*
X10856429Y-13805952D01*
X10846905Y-13796428D01*
X10837381Y-13777381D01*
X10827857Y-13739286D01*
X10827857Y-13691667D01*
X10837381Y-13653571D01*
X10846905Y-13634524D01*
X10856429Y-13625000D01*
X10875476Y-13615476D01*
X11027857Y-13796428D02*
X11037381Y-13805952D01*
X11027857Y-13815476D01*
X11018333Y-13805952D01*
X11027857Y-13796428D01*
X11027857Y-13815476D01*
X11227857Y-13815476D02*
X11113571Y-13815476D01*
X11170714Y-13815476D02*
X11170714Y-13615476D01*
X11151667Y-13644048D01*
X11132619Y-13663095D01*
X11113571Y-13672619D01*
X11304048Y-13634524D02*
X11313571Y-13625000D01*
X11332619Y-13615476D01*
X11380238Y-13615476D01*
X11399286Y-13625000D01*
X11408809Y-13634524D01*
X11418333Y-13653571D01*
X11418333Y-13672619D01*
X11408809Y-13701190D01*
X11294524Y-13815476D01*
X11418333Y-13815476D01*
X11589762Y-13615476D02*
X11551667Y-13615476D01*
X11532619Y-13625000D01*
X11523095Y-13634524D01*
X11504048Y-13663095D01*
X11494524Y-13701190D01*
X11494524Y-13777381D01*
X11504048Y-13796428D01*
X11513571Y-13805952D01*
X11532619Y-13815476D01*
X11570714Y-13815476D01*
X11589762Y-13805952D01*
X11599286Y-13796428D01*
X11608809Y-13777381D01*
X11608809Y-13729762D01*
X11599286Y-13710714D01*
X11589762Y-13701190D01*
X11570714Y-13691667D01*
X11532619Y-13691667D01*
X11513571Y-13701190D01*
X11504048Y-13710714D01*
X11494524Y-13729762D01*
X11732619Y-13615476D02*
X11751667Y-13615476D01*
X11770714Y-13625000D01*
X11780238Y-13634524D01*
X11789762Y-13653571D01*
X11799286Y-13691667D01*
X11799286Y-13739286D01*
X11789762Y-13777381D01*
X11780238Y-13796428D01*
X11770714Y-13805952D01*
X11751667Y-13815476D01*
X11732619Y-13815476D01*
X11713571Y-13805952D01*
X11704048Y-13796428D01*
X11694524Y-13777381D01*
X11685000Y-13739286D01*
X11685000Y-13691667D01*
X11694524Y-13653571D01*
X11704048Y-13634524D01*
X11713571Y-13625000D01*
X11732619Y-13615476D01*
X11875476Y-13615476D02*
X11875476Y-13653571D01*
X11951667Y-13615476D02*
X11951667Y-13653571D01*
X12246905Y-13891667D02*
X12237381Y-13882143D01*
X12218333Y-13853571D01*
X12208809Y-13834524D01*
X12199286Y-13805952D01*
X12189762Y-13758333D01*
X12189762Y-13720238D01*
X12199286Y-13672619D01*
X12208809Y-13644048D01*
X12218333Y-13625000D01*
X12237381Y-13596428D01*
X12246905Y-13586905D01*
X12408809Y-13682143D02*
X12408809Y-13815476D01*
X12361190Y-13605952D02*
X12313571Y-13748809D01*
X12437381Y-13748809D01*
X12665952Y-13815476D02*
X12665952Y-13615476D01*
X12751667Y-13815476D02*
X12751667Y-13710714D01*
X12742143Y-13691667D01*
X12723095Y-13682143D01*
X12694524Y-13682143D01*
X12675476Y-13691667D01*
X12665952Y-13701190D01*
X12875476Y-13815476D02*
X12856428Y-13805952D01*
X12846905Y-13796428D01*
X12837381Y-13777381D01*
X12837381Y-13720238D01*
X12846905Y-13701190D01*
X12856428Y-13691667D01*
X12875476Y-13682143D01*
X12904048Y-13682143D01*
X12923095Y-13691667D01*
X12932619Y-13701190D01*
X12942143Y-13720238D01*
X12942143Y-13777381D01*
X12932619Y-13796428D01*
X12923095Y-13805952D01*
X12904048Y-13815476D01*
X12875476Y-13815476D01*
X13056428Y-13815476D02*
X13037381Y-13805952D01*
X13027857Y-13786905D01*
X13027857Y-13615476D01*
X13208809Y-13805952D02*
X13189762Y-13815476D01*
X13151667Y-13815476D01*
X13132619Y-13805952D01*
X13123095Y-13786905D01*
X13123095Y-13710714D01*
X13132619Y-13691667D01*
X13151667Y-13682143D01*
X13189762Y-13682143D01*
X13208809Y-13691667D01*
X13218333Y-13710714D01*
X13218333Y-13729762D01*
X13123095Y-13748809D01*
X13294524Y-13805952D02*
X13313571Y-13815476D01*
X13351667Y-13815476D01*
X13370714Y-13805952D01*
X13380238Y-13786905D01*
X13380238Y-13777381D01*
X13370714Y-13758333D01*
X13351667Y-13748809D01*
X13323095Y-13748809D01*
X13304048Y-13739286D01*
X13294524Y-13720238D01*
X13294524Y-13710714D01*
X13304048Y-13691667D01*
X13323095Y-13682143D01*
X13351667Y-13682143D01*
X13370714Y-13691667D01*
X13446905Y-13891667D02*
X13456428Y-13882143D01*
X13475476Y-13853571D01*
X13485000Y-13834524D01*
X13494524Y-13805952D01*
X13504048Y-13758333D01*
X13504048Y-13720238D01*
X13494524Y-13672619D01*
X13485000Y-13644048D01*
X13475476Y-13625000D01*
X13456428Y-13596428D01*
X13446905Y-13586905D01*
X13808809Y-13891667D02*
X13799286Y-13882143D01*
X13780238Y-13853571D01*
X13770714Y-13834524D01*
X13761190Y-13805952D01*
X13751667Y-13758333D01*
X13751667Y-13720238D01*
X13761190Y-13672619D01*
X13770714Y-13644048D01*
X13780238Y-13625000D01*
X13799286Y-13596428D01*
X13808809Y-13586905D01*
X13885000Y-13682143D02*
X13885000Y-13815476D01*
X13885000Y-13701190D02*
X13894524Y-13691667D01*
X13913571Y-13682143D01*
X13942143Y-13682143D01*
X13961190Y-13691667D01*
X13970714Y-13710714D01*
X13970714Y-13815476D01*
X14094524Y-13815476D02*
X14075476Y-13805952D01*
X14065952Y-13796428D01*
X14056428Y-13777381D01*
X14056428Y-13720238D01*
X14065952Y-13701190D01*
X14075476Y-13691667D01*
X14094524Y-13682143D01*
X14123095Y-13682143D01*
X14142143Y-13691667D01*
X14151667Y-13701190D01*
X14161190Y-13720238D01*
X14161190Y-13777381D01*
X14151667Y-13796428D01*
X14142143Y-13805952D01*
X14123095Y-13815476D01*
X14094524Y-13815476D01*
X14218333Y-13682143D02*
X14294524Y-13682143D01*
X14246905Y-13615476D02*
X14246905Y-13786905D01*
X14256428Y-13805952D01*
X14275476Y-13815476D01*
X14294524Y-13815476D01*
X14513571Y-13682143D02*
X14513571Y-13882143D01*
X14513571Y-13691667D02*
X14532619Y-13682143D01*
X14570714Y-13682143D01*
X14589762Y-13691667D01*
X14599286Y-13701190D01*
X14608809Y-13720238D01*
X14608809Y-13777381D01*
X14599286Y-13796428D01*
X14589762Y-13805952D01*
X14570714Y-13815476D01*
X14532619Y-13815476D01*
X14513571Y-13805952D01*
X14723095Y-13815476D02*
X14704048Y-13805952D01*
X14694524Y-13786905D01*
X14694524Y-13615476D01*
X14885000Y-13815476D02*
X14885000Y-13710714D01*
X14875476Y-13691667D01*
X14856428Y-13682143D01*
X14818333Y-13682143D01*
X14799286Y-13691667D01*
X14885000Y-13805952D02*
X14865952Y-13815476D01*
X14818333Y-13815476D01*
X14799286Y-13805952D01*
X14789762Y-13786905D01*
X14789762Y-13767857D01*
X14799286Y-13748809D01*
X14818333Y-13739286D01*
X14865952Y-13739286D01*
X14885000Y-13729762D01*
X14951667Y-13682143D02*
X15027857Y-13682143D01*
X14980238Y-13615476D02*
X14980238Y-13786905D01*
X14989762Y-13805952D01*
X15008809Y-13815476D01*
X15027857Y-13815476D01*
X15170714Y-13805952D02*
X15151667Y-13815476D01*
X15113571Y-13815476D01*
X15094524Y-13805952D01*
X15085000Y-13786905D01*
X15085000Y-13710714D01*
X15094524Y-13691667D01*
X15113571Y-13682143D01*
X15151667Y-13682143D01*
X15170714Y-13691667D01*
X15180238Y-13710714D01*
X15180238Y-13729762D01*
X15085000Y-13748809D01*
X15351667Y-13815476D02*
X15351667Y-13615476D01*
X15351667Y-13805952D02*
X15332619Y-13815476D01*
X15294524Y-13815476D01*
X15275476Y-13805952D01*
X15265952Y-13796428D01*
X15256428Y-13777381D01*
X15256428Y-13720238D01*
X15265952Y-13701190D01*
X15275476Y-13691667D01*
X15294524Y-13682143D01*
X15332619Y-13682143D01*
X15351667Y-13691667D01*
X15427857Y-13891667D02*
X15437381Y-13882143D01*
X15456428Y-13853571D01*
X15465952Y-13834524D01*
X15475476Y-13805952D01*
X15485000Y-13758333D01*
X15485000Y-13720238D01*
X15475476Y-13672619D01*
X15465952Y-13644048D01*
X15456428Y-13625000D01*
X15437381Y-13596428D01*
X15427857Y-13586905D01*
M02*
