G04 #@! TF.GenerationSoftware,KiCad,Pcbnew,(6.0.8)*
G04 #@! TF.CreationDate,2023-07-25T16:12:09-04:00*
G04 #@! TF.ProjectId,Hybrid USB Hub (USB3.0),48796272-6964-4205-9553-422048756220,v1.0*
G04 #@! TF.SameCoordinates,Original*
G04 #@! TF.FileFunction,Legend,Bot*
G04 #@! TF.FilePolarity,Positive*
%FSLAX46Y46*%
G04 Gerber Fmt 4.6, Leading zero omitted, Abs format (unit mm)*
G04 Created by KiCad (PCBNEW (6.0.8)) date 2023-07-25 16:12:09*
%MOMM*%
%LPD*%
G01*
G04 APERTURE LIST*
G04 Aperture macros list*
%AMRoundRect*
0 Rectangle with rounded corners*
0 $1 Rounding radius*
0 $2 $3 $4 $5 $6 $7 $8 $9 X,Y pos of 4 corners*
0 Add a 4 corners polygon primitive as box body*
4,1,4,$2,$3,$4,$5,$6,$7,$8,$9,$2,$3,0*
0 Add four circle primitives for the rounded corners*
1,1,$1+$1,$2,$3*
1,1,$1+$1,$4,$5*
1,1,$1+$1,$6,$7*
1,1,$1+$1,$8,$9*
0 Add four rect primitives between the rounded corners*
20,1,$1+$1,$2,$3,$4,$5,0*
20,1,$1+$1,$4,$5,$6,$7,0*
20,1,$1+$1,$6,$7,$8,$9,0*
20,1,$1+$1,$8,$9,$2,$3,0*%
G04 Aperture macros list end*
%ADD10C,0.150000*%
%ADD11C,0.120000*%
%ADD12C,0.152400*%
%ADD13C,1.200000*%
%ADD14O,1.200000X2.100000*%
%ADD15O,1.200000X2.400000*%
%ADD16R,1.600000X1.600000*%
%ADD17C,1.600000*%
%ADD18C,3.200000*%
%ADD19R,4.000000X2.000000*%
%ADD20O,3.300000X2.000000*%
%ADD21O,2.000000X3.500000*%
%ADD22RoundRect,0.140000X0.021213X-0.219203X0.219203X-0.021213X-0.021213X0.219203X-0.219203X0.021213X0*%
%ADD23RoundRect,0.135000X-0.185000X0.135000X-0.185000X-0.135000X0.185000X-0.135000X0.185000X0.135000X0*%
%ADD24RoundRect,0.135000X0.185000X-0.135000X0.185000X0.135000X-0.185000X0.135000X-0.185000X-0.135000X0*%
%ADD25RoundRect,0.140000X-0.170000X0.140000X-0.170000X-0.140000X0.170000X-0.140000X0.170000X0.140000X0*%
%ADD26C,0.600000*%
%ADD27R,1.659999X1.659999*%
%ADD28O,0.599999X0.240000*%
%ADD29O,0.240000X0.599999*%
%ADD30RoundRect,0.140000X-0.219203X-0.021213X-0.021213X-0.219203X0.219203X0.021213X0.021213X0.219203X0*%
%ADD31RoundRect,0.140000X0.219203X0.021213X0.021213X0.219203X-0.219203X-0.021213X-0.021213X-0.219203X0*%
%ADD32RoundRect,0.140000X-0.021213X0.219203X-0.219203X0.021213X0.021213X-0.219203X0.219203X-0.021213X0*%
G04 APERTURE END LIST*
D10*
X153707106Y-106397969D02*
X153774450Y-106397969D01*
X153909137Y-106330625D01*
X153976480Y-106263282D01*
X154043824Y-106128595D01*
X154043824Y-105993908D01*
X154010152Y-105892893D01*
X153909137Y-105724534D01*
X153808122Y-105623519D01*
X153639763Y-105522503D01*
X153538748Y-105488832D01*
X153404061Y-105488832D01*
X153269374Y-105556175D01*
X153202030Y-105623519D01*
X153134687Y-105758206D01*
X153134687Y-105825549D01*
X152865312Y-106094923D02*
X152797969Y-106094923D01*
X152696954Y-106128595D01*
X152528595Y-106296954D01*
X152494923Y-106397969D01*
X152494923Y-106465312D01*
X152528595Y-106566328D01*
X152595938Y-106633671D01*
X152730625Y-106701015D01*
X153538748Y-106701015D01*
X153101015Y-107138748D01*
X152023519Y-107273435D02*
X152494923Y-107744839D01*
X151922503Y-106835702D02*
X152595938Y-107172419D01*
X152158206Y-107610152D01*
X163722380Y-97463333D02*
X163246190Y-97130000D01*
X163722380Y-96891904D02*
X162722380Y-96891904D01*
X162722380Y-97272857D01*
X162770000Y-97368095D01*
X162817619Y-97415714D01*
X162912857Y-97463333D01*
X163055714Y-97463333D01*
X163150952Y-97415714D01*
X163198571Y-97368095D01*
X163246190Y-97272857D01*
X163246190Y-96891904D01*
X163722380Y-97939523D02*
X163722380Y-98130000D01*
X163674761Y-98225238D01*
X163627142Y-98272857D01*
X163484285Y-98368095D01*
X163293809Y-98415714D01*
X162912857Y-98415714D01*
X162817619Y-98368095D01*
X162770000Y-98320476D01*
X162722380Y-98225238D01*
X162722380Y-98034761D01*
X162770000Y-97939523D01*
X162817619Y-97891904D01*
X162912857Y-97844285D01*
X163150952Y-97844285D01*
X163246190Y-97891904D01*
X163293809Y-97939523D01*
X163341428Y-98034761D01*
X163341428Y-98225238D01*
X163293809Y-98320476D01*
X163246190Y-98368095D01*
X163150952Y-98415714D01*
X195922380Y-95652142D02*
X195446190Y-95318809D01*
X195922380Y-95080714D02*
X194922380Y-95080714D01*
X194922380Y-95461666D01*
X194970000Y-95556904D01*
X195017619Y-95604523D01*
X195112857Y-95652142D01*
X195255714Y-95652142D01*
X195350952Y-95604523D01*
X195398571Y-95556904D01*
X195446190Y-95461666D01*
X195446190Y-95080714D01*
X195922380Y-96604523D02*
X195922380Y-96033095D01*
X195922380Y-96318809D02*
X194922380Y-96318809D01*
X195065238Y-96223571D01*
X195160476Y-96128333D01*
X195208095Y-96033095D01*
X195922380Y-97556904D02*
X195922380Y-96985476D01*
X195922380Y-97271190D02*
X194922380Y-97271190D01*
X195065238Y-97175952D01*
X195160476Y-97080714D01*
X195208095Y-96985476D01*
X136777142Y-103007142D02*
X136824761Y-102959523D01*
X136872380Y-102816666D01*
X136872380Y-102721428D01*
X136824761Y-102578571D01*
X136729523Y-102483333D01*
X136634285Y-102435714D01*
X136443809Y-102388095D01*
X136300952Y-102388095D01*
X136110476Y-102435714D01*
X136015238Y-102483333D01*
X135920000Y-102578571D01*
X135872380Y-102721428D01*
X135872380Y-102816666D01*
X135920000Y-102959523D01*
X135967619Y-103007142D01*
X136205714Y-103864285D02*
X136872380Y-103864285D01*
X135824761Y-103626190D02*
X136539047Y-103388095D01*
X136539047Y-104007142D01*
X135967619Y-104340476D02*
X135920000Y-104388095D01*
X135872380Y-104483333D01*
X135872380Y-104721428D01*
X135920000Y-104816666D01*
X135967619Y-104864285D01*
X136062857Y-104911904D01*
X136158095Y-104911904D01*
X136300952Y-104864285D01*
X136872380Y-104292857D01*
X136872380Y-104911904D01*
X142787695Y-113792380D02*
X142855039Y-113792380D01*
X142989726Y-113725036D01*
X143057069Y-113657693D01*
X143124413Y-113523006D01*
X143124413Y-113388319D01*
X143090741Y-113287304D01*
X142989726Y-113118945D01*
X142888711Y-113017930D01*
X142720352Y-112916914D01*
X142619337Y-112883243D01*
X142484650Y-112883243D01*
X142349963Y-112950586D01*
X142282619Y-113017930D01*
X142215276Y-113152617D01*
X142215276Y-113219960D01*
X142181604Y-114533159D02*
X142585665Y-114129098D01*
X142383634Y-114331128D02*
X141676527Y-113624021D01*
X141844886Y-113657693D01*
X141979573Y-113657693D01*
X142080589Y-113624021D01*
X141238795Y-114061754D02*
X140767390Y-114533159D01*
X141777543Y-114937220D01*
X151807106Y-104497969D02*
X151874450Y-104497969D01*
X152009137Y-104430625D01*
X152076480Y-104363282D01*
X152143824Y-104228595D01*
X152143824Y-104093908D01*
X152110152Y-103992893D01*
X152009137Y-103824534D01*
X151908122Y-103723519D01*
X151739763Y-103622503D01*
X151638748Y-103588832D01*
X151504061Y-103588832D01*
X151369374Y-103656175D01*
X151302030Y-103723519D01*
X151234687Y-103858206D01*
X151234687Y-103925549D01*
X150965312Y-104194923D02*
X150897969Y-104194923D01*
X150796954Y-104228595D01*
X150628595Y-104396954D01*
X150594923Y-104497969D01*
X150594923Y-104565312D01*
X150628595Y-104666328D01*
X150695938Y-104733671D01*
X150830625Y-104801015D01*
X151638748Y-104801015D01*
X151201015Y-105238748D01*
X149854145Y-105171404D02*
X150190862Y-104834687D01*
X150561251Y-105137732D01*
X150493908Y-105137732D01*
X150392893Y-105171404D01*
X150224534Y-105339763D01*
X150190862Y-105440778D01*
X150190862Y-105508122D01*
X150224534Y-105609137D01*
X150392893Y-105777496D01*
X150493908Y-105811167D01*
X150561251Y-105811167D01*
X150662267Y-105777496D01*
X150830625Y-105609137D01*
X150864297Y-105508122D01*
X150864297Y-105440778D01*
X164222380Y-103737142D02*
X163746190Y-103403809D01*
X164222380Y-103165714D02*
X163222380Y-103165714D01*
X163222380Y-103546666D01*
X163270000Y-103641904D01*
X163317619Y-103689523D01*
X163412857Y-103737142D01*
X163555714Y-103737142D01*
X163650952Y-103689523D01*
X163698571Y-103641904D01*
X163746190Y-103546666D01*
X163746190Y-103165714D01*
X164222380Y-104689523D02*
X164222380Y-104118095D01*
X164222380Y-104403809D02*
X163222380Y-104403809D01*
X163365238Y-104308571D01*
X163460476Y-104213333D01*
X163508095Y-104118095D01*
X163650952Y-105260952D02*
X163603333Y-105165714D01*
X163555714Y-105118095D01*
X163460476Y-105070476D01*
X163412857Y-105070476D01*
X163317619Y-105118095D01*
X163270000Y-105165714D01*
X163222380Y-105260952D01*
X163222380Y-105451428D01*
X163270000Y-105546666D01*
X163317619Y-105594285D01*
X163412857Y-105641904D01*
X163460476Y-105641904D01*
X163555714Y-105594285D01*
X163603333Y-105546666D01*
X163650952Y-105451428D01*
X163650952Y-105260952D01*
X163698571Y-105165714D01*
X163746190Y-105118095D01*
X163841428Y-105070476D01*
X164031904Y-105070476D01*
X164127142Y-105118095D01*
X164174761Y-105165714D01*
X164222380Y-105260952D01*
X164222380Y-105451428D01*
X164174761Y-105546666D01*
X164127142Y-105594285D01*
X164031904Y-105641904D01*
X163841428Y-105641904D01*
X163746190Y-105594285D01*
X163698571Y-105546666D01*
X163650952Y-105451428D01*
X148147379Y-96962142D02*
X147671189Y-96628809D01*
X148147379Y-96390714D02*
X147147379Y-96390714D01*
X147147379Y-96771666D01*
X147194999Y-96866904D01*
X147242618Y-96914523D01*
X147337856Y-96962142D01*
X147480713Y-96962142D01*
X147575951Y-96914523D01*
X147623570Y-96866904D01*
X147671189Y-96771666D01*
X147671189Y-96390714D01*
X147242618Y-97343095D02*
X147194999Y-97390714D01*
X147147379Y-97485952D01*
X147147379Y-97724047D01*
X147194999Y-97819285D01*
X147242618Y-97866904D01*
X147337856Y-97914523D01*
X147433094Y-97914523D01*
X147575951Y-97866904D01*
X148147379Y-97295476D01*
X148147379Y-97914523D01*
X148147379Y-98390714D02*
X148147379Y-98581190D01*
X148099760Y-98676428D01*
X148052141Y-98724047D01*
X147909284Y-98819285D01*
X147718808Y-98866904D01*
X147337856Y-98866904D01*
X147242618Y-98819285D01*
X147194999Y-98771666D01*
X147147379Y-98676428D01*
X147147379Y-98485952D01*
X147194999Y-98390714D01*
X147242618Y-98343095D01*
X147337856Y-98295476D01*
X147575951Y-98295476D01*
X147671189Y-98343095D01*
X147718808Y-98390714D01*
X147766427Y-98485952D01*
X147766427Y-98676428D01*
X147718808Y-98771666D01*
X147671189Y-98819285D01*
X147575951Y-98866904D01*
X144931904Y-99882380D02*
X144931904Y-100691904D01*
X144884285Y-100787142D01*
X144836666Y-100834761D01*
X144741428Y-100882380D01*
X144550952Y-100882380D01*
X144455714Y-100834761D01*
X144408095Y-100787142D01*
X144360476Y-100691904D01*
X144360476Y-99882380D01*
X143455714Y-99882380D02*
X143646190Y-99882380D01*
X143741428Y-99930000D01*
X143789047Y-99977619D01*
X143884285Y-100120476D01*
X143931904Y-100310952D01*
X143931904Y-100691904D01*
X143884285Y-100787142D01*
X143836666Y-100834761D01*
X143741428Y-100882380D01*
X143550952Y-100882380D01*
X143455714Y-100834761D01*
X143408095Y-100787142D01*
X143360476Y-100691904D01*
X143360476Y-100453809D01*
X143408095Y-100358571D01*
X143455714Y-100310952D01*
X143550952Y-100263333D01*
X143741428Y-100263333D01*
X143836666Y-100310952D01*
X143884285Y-100358571D01*
X143931904Y-100453809D01*
X139495714Y-103095714D02*
X139495714Y-103762380D01*
X139924285Y-103095714D02*
X139924285Y-103619523D01*
X139876666Y-103714761D01*
X139781428Y-103762380D01*
X139638571Y-103762380D01*
X139543333Y-103714761D01*
X139495714Y-103667142D01*
X171747380Y-95737142D02*
X171271190Y-95403809D01*
X171747380Y-95165714D02*
X170747380Y-95165714D01*
X170747380Y-95546666D01*
X170795000Y-95641904D01*
X170842619Y-95689523D01*
X170937857Y-95737142D01*
X171080714Y-95737142D01*
X171175952Y-95689523D01*
X171223571Y-95641904D01*
X171271190Y-95546666D01*
X171271190Y-95165714D01*
X171747380Y-96689523D02*
X171747380Y-96118095D01*
X171747380Y-96403809D02*
X170747380Y-96403809D01*
X170890238Y-96308571D01*
X170985476Y-96213333D01*
X171033095Y-96118095D01*
X171080714Y-97546666D02*
X171747380Y-97546666D01*
X170699761Y-97308571D02*
X171414047Y-97070476D01*
X171414047Y-97689523D01*
X151667970Y-113972893D02*
X151667970Y-113905549D01*
X151600626Y-113770862D01*
X151533283Y-113703519D01*
X151398596Y-113636175D01*
X151263909Y-113636175D01*
X151162894Y-113669847D01*
X150994535Y-113770862D01*
X150893520Y-113871877D01*
X150792504Y-114040236D01*
X150758833Y-114141251D01*
X150758833Y-114275938D01*
X150826176Y-114410625D01*
X150893520Y-114477969D01*
X151028207Y-114545312D01*
X151095550Y-114545312D01*
X151364924Y-114814687D02*
X151364924Y-114882030D01*
X151398596Y-114983045D01*
X151566955Y-115151404D01*
X151667970Y-115185076D01*
X151735313Y-115185076D01*
X151836329Y-115151404D01*
X151903672Y-115084061D01*
X151971016Y-114949374D01*
X151971016Y-114141251D01*
X152408749Y-114578984D01*
X152038359Y-115488122D02*
X152038359Y-115555465D01*
X152072031Y-115656480D01*
X152240390Y-115824839D01*
X152341405Y-115858511D01*
X152408749Y-115858511D01*
X152509764Y-115824839D01*
X152577107Y-115757496D01*
X152644451Y-115622809D01*
X152644451Y-114814687D01*
X153082184Y-115252419D01*
X189322380Y-103662142D02*
X188846190Y-103328809D01*
X189322380Y-103090714D02*
X188322380Y-103090714D01*
X188322380Y-103471666D01*
X188370000Y-103566904D01*
X188417619Y-103614523D01*
X188512857Y-103662142D01*
X188655714Y-103662142D01*
X188750952Y-103614523D01*
X188798571Y-103566904D01*
X188846190Y-103471666D01*
X188846190Y-103090714D01*
X189322380Y-104614523D02*
X189322380Y-104043095D01*
X189322380Y-104328809D02*
X188322380Y-104328809D01*
X188465238Y-104233571D01*
X188560476Y-104138333D01*
X188608095Y-104043095D01*
X188322380Y-104947857D02*
X188322380Y-105614523D01*
X189322380Y-105185952D01*
X195331904Y-97532380D02*
X195331904Y-98341904D01*
X195284285Y-98437142D01*
X195236666Y-98484761D01*
X195141428Y-98532380D01*
X194950952Y-98532380D01*
X194855714Y-98484761D01*
X194808095Y-98437142D01*
X194760476Y-98341904D01*
X194760476Y-97532380D01*
X193855714Y-97865714D02*
X193855714Y-98532380D01*
X194093809Y-97484761D02*
X194331904Y-98199047D01*
X193712857Y-98199047D01*
X190105714Y-102190714D02*
X190105714Y-102857380D01*
X190534285Y-102190714D02*
X190534285Y-102714523D01*
X190486666Y-102809761D01*
X190391428Y-102857380D01*
X190248571Y-102857380D01*
X190153333Y-102809761D01*
X190105714Y-102762142D01*
X146747379Y-96962142D02*
X146271189Y-96628809D01*
X146747379Y-96390714D02*
X145747379Y-96390714D01*
X145747379Y-96771666D01*
X145794999Y-96866904D01*
X145842618Y-96914523D01*
X145937856Y-96962142D01*
X146080713Y-96962142D01*
X146175951Y-96914523D01*
X146223570Y-96866904D01*
X146271189Y-96771666D01*
X146271189Y-96390714D01*
X145842618Y-97343095D02*
X145794999Y-97390714D01*
X145747379Y-97485952D01*
X145747379Y-97724047D01*
X145794999Y-97819285D01*
X145842618Y-97866904D01*
X145937856Y-97914523D01*
X146033094Y-97914523D01*
X146175951Y-97866904D01*
X146747379Y-97295476D01*
X146747379Y-97914523D01*
X145747379Y-98247857D02*
X145747379Y-98914523D01*
X146747379Y-98485952D01*
X146242857Y-104957142D02*
X146290476Y-105004761D01*
X146433333Y-105052380D01*
X146528571Y-105052380D01*
X146671428Y-105004761D01*
X146766666Y-104909523D01*
X146814285Y-104814285D01*
X146861904Y-104623809D01*
X146861904Y-104480952D01*
X146814285Y-104290476D01*
X146766666Y-104195238D01*
X146671428Y-104100000D01*
X146528571Y-104052380D01*
X146433333Y-104052380D01*
X146290476Y-104100000D01*
X146242857Y-104147619D01*
X145385714Y-104385714D02*
X145385714Y-105052380D01*
X145623809Y-104004761D02*
X145861904Y-104719047D01*
X145242857Y-104719047D01*
X144385714Y-104052380D02*
X144861904Y-104052380D01*
X144909523Y-104528571D01*
X144861904Y-104480952D01*
X144766666Y-104433333D01*
X144528571Y-104433333D01*
X144433333Y-104480952D01*
X144385714Y-104528571D01*
X144338095Y-104623809D01*
X144338095Y-104861904D01*
X144385714Y-104957142D01*
X144433333Y-105004761D01*
X144528571Y-105052380D01*
X144766666Y-105052380D01*
X144861904Y-105004761D01*
X144909523Y-104957142D01*
X145692969Y-105797893D02*
X145692969Y-105730549D01*
X145625625Y-105595862D01*
X145558282Y-105528519D01*
X145423595Y-105461175D01*
X145288908Y-105461175D01*
X145187893Y-105494847D01*
X145019534Y-105595862D01*
X144918519Y-105696877D01*
X144817503Y-105865236D01*
X144783832Y-105966251D01*
X144783832Y-106100938D01*
X144851175Y-106235625D01*
X144918519Y-106302969D01*
X145053206Y-106370312D01*
X145120549Y-106370312D01*
X145389923Y-106639687D02*
X145389923Y-106707030D01*
X145423595Y-106808045D01*
X145591954Y-106976404D01*
X145692969Y-107010076D01*
X145760312Y-107010076D01*
X145861328Y-106976404D01*
X145928671Y-106909061D01*
X145996015Y-106774374D01*
X145996015Y-105966251D01*
X146433748Y-106403984D01*
X146332732Y-107717183D02*
X146198045Y-107582496D01*
X146164374Y-107481480D01*
X146164374Y-107414137D01*
X146198045Y-107245778D01*
X146299061Y-107077419D01*
X146568435Y-106808045D01*
X146669450Y-106774374D01*
X146736793Y-106774374D01*
X146837809Y-106808045D01*
X146972496Y-106942732D01*
X147006167Y-107043748D01*
X147006167Y-107111091D01*
X146972496Y-107212106D01*
X146804137Y-107380465D01*
X146703122Y-107414137D01*
X146635778Y-107414137D01*
X146534763Y-107380465D01*
X146400076Y-107245778D01*
X146366404Y-107144763D01*
X146366404Y-107077419D01*
X146400076Y-106976404D01*
X154707106Y-107397968D02*
X154774450Y-107397968D01*
X154909137Y-107330624D01*
X154976480Y-107263281D01*
X155043824Y-107128594D01*
X155043824Y-106993907D01*
X155010152Y-106892892D01*
X154909137Y-106724533D01*
X154808122Y-106623518D01*
X154639763Y-106522502D01*
X154538748Y-106488831D01*
X154404061Y-106488831D01*
X154269374Y-106556174D01*
X154202030Y-106623518D01*
X154134687Y-106758205D01*
X154134687Y-106825548D01*
X153865312Y-107094922D02*
X153797969Y-107094922D01*
X153696954Y-107128594D01*
X153528595Y-107296953D01*
X153494923Y-107397968D01*
X153494923Y-107465311D01*
X153528595Y-107566327D01*
X153595938Y-107633670D01*
X153730625Y-107701014D01*
X154538748Y-107701014D01*
X154101015Y-108138747D01*
X153158206Y-107667342D02*
X152720473Y-108105075D01*
X153225549Y-108138747D01*
X153124534Y-108239762D01*
X153090862Y-108340777D01*
X153090862Y-108408121D01*
X153124534Y-108509136D01*
X153292893Y-108677495D01*
X153393908Y-108711166D01*
X153461251Y-108711166D01*
X153562267Y-108677495D01*
X153764297Y-108475464D01*
X153797969Y-108374449D01*
X153797969Y-108307105D01*
X196542857Y-100157142D02*
X196590476Y-100204761D01*
X196733333Y-100252380D01*
X196828571Y-100252380D01*
X196971428Y-100204761D01*
X197066666Y-100109523D01*
X197114285Y-100014285D01*
X197161904Y-99823809D01*
X197161904Y-99680952D01*
X197114285Y-99490476D01*
X197066666Y-99395238D01*
X196971428Y-99300000D01*
X196828571Y-99252380D01*
X196733333Y-99252380D01*
X196590476Y-99300000D01*
X196542857Y-99347619D01*
X196209523Y-99252380D02*
X195590476Y-99252380D01*
X195923809Y-99633333D01*
X195780952Y-99633333D01*
X195685714Y-99680952D01*
X195638095Y-99728571D01*
X195590476Y-99823809D01*
X195590476Y-100061904D01*
X195638095Y-100157142D01*
X195685714Y-100204761D01*
X195780952Y-100252380D01*
X196066666Y-100252380D01*
X196161904Y-100204761D01*
X196209523Y-100157142D01*
X195257142Y-99252380D02*
X194638095Y-99252380D01*
X194971428Y-99633333D01*
X194828571Y-99633333D01*
X194733333Y-99680952D01*
X194685714Y-99728571D01*
X194638095Y-99823809D01*
X194638095Y-100061904D01*
X194685714Y-100157142D01*
X194733333Y-100204761D01*
X194828571Y-100252380D01*
X195114285Y-100252380D01*
X195209523Y-100204761D01*
X195257142Y-100157142D01*
X113022380Y-96457142D02*
X112546190Y-96123809D01*
X113022380Y-95885714D02*
X112022380Y-95885714D01*
X112022380Y-96266666D01*
X112070000Y-96361904D01*
X112117619Y-96409523D01*
X112212857Y-96457142D01*
X112355714Y-96457142D01*
X112450952Y-96409523D01*
X112498571Y-96361904D01*
X112546190Y-96266666D01*
X112546190Y-95885714D01*
X112117619Y-96838095D02*
X112070000Y-96885714D01*
X112022380Y-96980952D01*
X112022380Y-97219047D01*
X112070000Y-97314285D01*
X112117619Y-97361904D01*
X112212857Y-97409523D01*
X112308095Y-97409523D01*
X112450952Y-97361904D01*
X113022380Y-96790476D01*
X113022380Y-97409523D01*
X112022380Y-97742857D02*
X112022380Y-98361904D01*
X112403333Y-98028571D01*
X112403333Y-98171428D01*
X112450952Y-98266666D01*
X112498571Y-98314285D01*
X112593809Y-98361904D01*
X112831904Y-98361904D01*
X112927142Y-98314285D01*
X112974761Y-98266666D01*
X113022380Y-98171428D01*
X113022380Y-97885714D01*
X112974761Y-97790476D01*
X112927142Y-97742857D01*
X185702142Y-100807142D02*
X185749761Y-100759523D01*
X185797380Y-100616666D01*
X185797380Y-100521428D01*
X185749761Y-100378571D01*
X185654523Y-100283333D01*
X185559285Y-100235714D01*
X185368809Y-100188095D01*
X185225952Y-100188095D01*
X185035476Y-100235714D01*
X184940238Y-100283333D01*
X184845000Y-100378571D01*
X184797380Y-100521428D01*
X184797380Y-100616666D01*
X184845000Y-100759523D01*
X184892619Y-100807142D01*
X184892619Y-101188095D02*
X184845000Y-101235714D01*
X184797380Y-101330952D01*
X184797380Y-101569047D01*
X184845000Y-101664285D01*
X184892619Y-101711904D01*
X184987857Y-101759523D01*
X185083095Y-101759523D01*
X185225952Y-101711904D01*
X185797380Y-101140476D01*
X185797380Y-101759523D01*
X185225952Y-102330952D02*
X185178333Y-102235714D01*
X185130714Y-102188095D01*
X185035476Y-102140476D01*
X184987857Y-102140476D01*
X184892619Y-102188095D01*
X184845000Y-102235714D01*
X184797380Y-102330952D01*
X184797380Y-102521428D01*
X184845000Y-102616666D01*
X184892619Y-102664285D01*
X184987857Y-102711904D01*
X185035476Y-102711904D01*
X185130714Y-102664285D01*
X185178333Y-102616666D01*
X185225952Y-102521428D01*
X185225952Y-102330952D01*
X185273571Y-102235714D01*
X185321190Y-102188095D01*
X185416428Y-102140476D01*
X185606904Y-102140476D01*
X185702142Y-102188095D01*
X185749761Y-102235714D01*
X185797380Y-102330952D01*
X185797380Y-102521428D01*
X185749761Y-102616666D01*
X185702142Y-102664285D01*
X185606904Y-102711904D01*
X185416428Y-102711904D01*
X185321190Y-102664285D01*
X185273571Y-102616666D01*
X185225952Y-102521428D01*
X170531904Y-98932380D02*
X170531904Y-99741904D01*
X170484285Y-99837142D01*
X170436666Y-99884761D01*
X170341428Y-99932380D01*
X170150952Y-99932380D01*
X170055714Y-99884761D01*
X170008095Y-99837142D01*
X169960476Y-99741904D01*
X169960476Y-98932380D01*
X169008095Y-98932380D02*
X169484285Y-98932380D01*
X169531904Y-99408571D01*
X169484285Y-99360952D01*
X169389047Y-99313333D01*
X169150952Y-99313333D01*
X169055714Y-99360952D01*
X169008095Y-99408571D01*
X168960476Y-99503809D01*
X168960476Y-99741904D01*
X169008095Y-99837142D01*
X169055714Y-99884761D01*
X169150952Y-99932380D01*
X169389047Y-99932380D01*
X169484285Y-99884761D01*
X169531904Y-99837142D01*
X165030714Y-101990714D02*
X165030714Y-102657380D01*
X165459285Y-101990714D02*
X165459285Y-102514523D01*
X165411666Y-102609761D01*
X165316428Y-102657380D01*
X165173571Y-102657380D01*
X165078333Y-102609761D01*
X165030714Y-102562142D01*
X170857142Y-103557142D02*
X170904761Y-103509523D01*
X170952380Y-103366666D01*
X170952380Y-103271428D01*
X170904761Y-103128571D01*
X170809523Y-103033333D01*
X170714285Y-102985714D01*
X170523809Y-102938095D01*
X170380952Y-102938095D01*
X170190476Y-102985714D01*
X170095238Y-103033333D01*
X170000000Y-103128571D01*
X169952380Y-103271428D01*
X169952380Y-103366666D01*
X170000000Y-103509523D01*
X170047619Y-103557142D01*
X169952380Y-103890476D02*
X169952380Y-104509523D01*
X170333333Y-104176190D01*
X170333333Y-104319047D01*
X170380952Y-104414285D01*
X170428571Y-104461904D01*
X170523809Y-104509523D01*
X170761904Y-104509523D01*
X170857142Y-104461904D01*
X170904761Y-104414285D01*
X170952380Y-104319047D01*
X170952380Y-104033333D01*
X170904761Y-103938095D01*
X170857142Y-103890476D01*
X170047619Y-104890476D02*
X170000000Y-104938095D01*
X169952380Y-105033333D01*
X169952380Y-105271428D01*
X170000000Y-105366666D01*
X170047619Y-105414285D01*
X170142857Y-105461904D01*
X170238095Y-105461904D01*
X170380952Y-105414285D01*
X170952380Y-104842857D01*
X170952380Y-105461904D01*
X135377142Y-102907142D02*
X135424761Y-102859523D01*
X135472380Y-102716666D01*
X135472380Y-102621428D01*
X135424761Y-102478571D01*
X135329523Y-102383333D01*
X135234285Y-102335714D01*
X135043809Y-102288095D01*
X134900952Y-102288095D01*
X134710476Y-102335714D01*
X134615238Y-102383333D01*
X134520000Y-102478571D01*
X134472380Y-102621428D01*
X134472380Y-102716666D01*
X134520000Y-102859523D01*
X134567619Y-102907142D01*
X134805714Y-103764285D02*
X135472380Y-103764285D01*
X134424761Y-103526190D02*
X135139047Y-103288095D01*
X135139047Y-103907142D01*
X134472380Y-104478571D02*
X134472380Y-104573809D01*
X134520000Y-104669047D01*
X134567619Y-104716666D01*
X134662857Y-104764285D01*
X134853333Y-104811904D01*
X135091428Y-104811904D01*
X135281904Y-104764285D01*
X135377142Y-104716666D01*
X135424761Y-104669047D01*
X135472380Y-104573809D01*
X135472380Y-104478571D01*
X135424761Y-104383333D01*
X135377142Y-104335714D01*
X135281904Y-104288095D01*
X135091428Y-104240476D01*
X134853333Y-104240476D01*
X134662857Y-104288095D01*
X134567619Y-104335714D01*
X134520000Y-104383333D01*
X134472380Y-104478571D01*
X143324931Y-108489366D02*
X143324931Y-108422023D01*
X143257587Y-108287336D01*
X143190244Y-108219992D01*
X143055556Y-108152649D01*
X142920869Y-108152649D01*
X142819854Y-108186320D01*
X142651495Y-108287336D01*
X142550480Y-108388351D01*
X142449465Y-108556710D01*
X142415793Y-108657725D01*
X142415793Y-108792412D01*
X142483137Y-108927099D01*
X142550480Y-108994443D01*
X142685167Y-109061786D01*
X142752511Y-109061786D01*
X143392274Y-109230145D02*
X143291259Y-109196473D01*
X143223915Y-109196473D01*
X143122900Y-109230145D01*
X143089228Y-109263817D01*
X143055556Y-109364832D01*
X143055556Y-109432175D01*
X143089228Y-109533191D01*
X143223915Y-109667878D01*
X143324931Y-109701549D01*
X143392274Y-109701549D01*
X143493289Y-109667878D01*
X143526961Y-109634206D01*
X143560633Y-109533191D01*
X143560633Y-109465847D01*
X143526961Y-109364832D01*
X143392274Y-109230145D01*
X143358602Y-109129130D01*
X143358602Y-109061786D01*
X143392274Y-108960771D01*
X143526961Y-108826084D01*
X143627976Y-108792412D01*
X143695320Y-108792412D01*
X143796335Y-108826084D01*
X143931022Y-108960771D01*
X143964694Y-109061786D01*
X143964694Y-109129130D01*
X143931022Y-109230145D01*
X143796335Y-109364832D01*
X143695320Y-109398504D01*
X143627976Y-109398504D01*
X143526961Y-109364832D01*
X187127142Y-100832142D02*
X187174761Y-100784523D01*
X187222380Y-100641666D01*
X187222380Y-100546428D01*
X187174761Y-100403571D01*
X187079523Y-100308333D01*
X186984285Y-100260714D01*
X186793809Y-100213095D01*
X186650952Y-100213095D01*
X186460476Y-100260714D01*
X186365238Y-100308333D01*
X186270000Y-100403571D01*
X186222380Y-100546428D01*
X186222380Y-100641666D01*
X186270000Y-100784523D01*
X186317619Y-100832142D01*
X186222380Y-101165476D02*
X186222380Y-101784523D01*
X186603333Y-101451190D01*
X186603333Y-101594047D01*
X186650952Y-101689285D01*
X186698571Y-101736904D01*
X186793809Y-101784523D01*
X187031904Y-101784523D01*
X187127142Y-101736904D01*
X187174761Y-101689285D01*
X187222380Y-101594047D01*
X187222380Y-101308333D01*
X187174761Y-101213095D01*
X187127142Y-101165476D01*
X186222380Y-102403571D02*
X186222380Y-102498809D01*
X186270000Y-102594047D01*
X186317619Y-102641666D01*
X186412857Y-102689285D01*
X186603333Y-102736904D01*
X186841428Y-102736904D01*
X187031904Y-102689285D01*
X187127142Y-102641666D01*
X187174761Y-102594047D01*
X187222380Y-102498809D01*
X187222380Y-102403571D01*
X187174761Y-102308333D01*
X187127142Y-102260714D01*
X187031904Y-102213095D01*
X186841428Y-102165476D01*
X186603333Y-102165476D01*
X186412857Y-102213095D01*
X186317619Y-102260714D01*
X186270000Y-102308333D01*
X186222380Y-102403571D01*
X197297380Y-95677142D02*
X196821190Y-95343809D01*
X197297380Y-95105714D02*
X196297380Y-95105714D01*
X196297380Y-95486666D01*
X196345000Y-95581904D01*
X196392619Y-95629523D01*
X196487857Y-95677142D01*
X196630714Y-95677142D01*
X196725952Y-95629523D01*
X196773571Y-95581904D01*
X196821190Y-95486666D01*
X196821190Y-95105714D01*
X197297380Y-96629523D02*
X197297380Y-96058095D01*
X197297380Y-96343809D02*
X196297380Y-96343809D01*
X196440238Y-96248571D01*
X196535476Y-96153333D01*
X196583095Y-96058095D01*
X196297380Y-96962857D02*
X196297380Y-97581904D01*
X196678333Y-97248571D01*
X196678333Y-97391428D01*
X196725952Y-97486666D01*
X196773571Y-97534285D01*
X196868809Y-97581904D01*
X197106904Y-97581904D01*
X197202142Y-97534285D01*
X197249761Y-97486666D01*
X197297380Y-97391428D01*
X197297380Y-97105714D01*
X197249761Y-97010476D01*
X197202142Y-96962857D01*
X190022380Y-95687142D02*
X189546190Y-95353809D01*
X190022380Y-95115714D02*
X189022380Y-95115714D01*
X189022380Y-95496666D01*
X189070000Y-95591904D01*
X189117619Y-95639523D01*
X189212857Y-95687142D01*
X189355714Y-95687142D01*
X189450952Y-95639523D01*
X189498571Y-95591904D01*
X189546190Y-95496666D01*
X189546190Y-95115714D01*
X190022380Y-96639523D02*
X190022380Y-96068095D01*
X190022380Y-96353809D02*
X189022380Y-96353809D01*
X189165238Y-96258571D01*
X189260476Y-96163333D01*
X189308095Y-96068095D01*
X189022380Y-97258571D02*
X189022380Y-97353809D01*
X189070000Y-97449047D01*
X189117619Y-97496666D01*
X189212857Y-97544285D01*
X189403333Y-97591904D01*
X189641428Y-97591904D01*
X189831904Y-97544285D01*
X189927142Y-97496666D01*
X189974761Y-97449047D01*
X190022380Y-97353809D01*
X190022380Y-97258571D01*
X189974761Y-97163333D01*
X189927142Y-97115714D01*
X189831904Y-97068095D01*
X189641428Y-97020476D01*
X189403333Y-97020476D01*
X189212857Y-97068095D01*
X189117619Y-97115714D01*
X189070000Y-97163333D01*
X189022380Y-97258571D01*
X121972380Y-96187142D02*
X121496190Y-95853809D01*
X121972380Y-95615714D02*
X120972380Y-95615714D01*
X120972380Y-95996666D01*
X121020000Y-96091904D01*
X121067619Y-96139523D01*
X121162857Y-96187142D01*
X121305714Y-96187142D01*
X121400952Y-96139523D01*
X121448571Y-96091904D01*
X121496190Y-95996666D01*
X121496190Y-95615714D01*
X121067619Y-96568095D02*
X121020000Y-96615714D01*
X120972380Y-96710952D01*
X120972380Y-96949047D01*
X121020000Y-97044285D01*
X121067619Y-97091904D01*
X121162857Y-97139523D01*
X121258095Y-97139523D01*
X121400952Y-97091904D01*
X121972380Y-96520476D01*
X121972380Y-97139523D01*
X121400952Y-97710952D02*
X121353333Y-97615714D01*
X121305714Y-97568095D01*
X121210476Y-97520476D01*
X121162857Y-97520476D01*
X121067619Y-97568095D01*
X121020000Y-97615714D01*
X120972380Y-97710952D01*
X120972380Y-97901428D01*
X121020000Y-97996666D01*
X121067619Y-98044285D01*
X121162857Y-98091904D01*
X121210476Y-98091904D01*
X121305714Y-98044285D01*
X121353333Y-97996666D01*
X121400952Y-97901428D01*
X121400952Y-97710952D01*
X121448571Y-97615714D01*
X121496190Y-97568095D01*
X121591428Y-97520476D01*
X121781904Y-97520476D01*
X121877142Y-97568095D01*
X121924761Y-97615714D01*
X121972380Y-97710952D01*
X121972380Y-97901428D01*
X121924761Y-97996666D01*
X121877142Y-98044285D01*
X121781904Y-98091904D01*
X121591428Y-98091904D01*
X121496190Y-98044285D01*
X121448571Y-97996666D01*
X121400952Y-97901428D01*
X139597969Y-110892893D02*
X139597969Y-110825549D01*
X139530625Y-110690862D01*
X139463282Y-110623519D01*
X139328595Y-110556175D01*
X139193908Y-110556175D01*
X139092893Y-110589847D01*
X138924534Y-110690862D01*
X138823519Y-110791877D01*
X138722503Y-110960236D01*
X138688832Y-111061251D01*
X138688832Y-111195938D01*
X138756175Y-111330625D01*
X138823519Y-111397969D01*
X138958206Y-111465312D01*
X139025549Y-111465312D01*
X139294923Y-111734687D02*
X139294923Y-111802030D01*
X139328595Y-111903045D01*
X139496954Y-112071404D01*
X139597969Y-112105076D01*
X139665312Y-112105076D01*
X139766328Y-112071404D01*
X139833671Y-112004061D01*
X139901015Y-111869374D01*
X139901015Y-111061251D01*
X140338748Y-111498984D01*
X141012183Y-112172419D02*
X140608122Y-111768358D01*
X140810152Y-111970389D02*
X140103045Y-112677496D01*
X140136717Y-112509137D01*
X140136717Y-112374450D01*
X140103045Y-112273435D01*
X120347380Y-96212142D02*
X119871190Y-95878809D01*
X120347380Y-95640714D02*
X119347380Y-95640714D01*
X119347380Y-96021666D01*
X119395000Y-96116904D01*
X119442619Y-96164523D01*
X119537857Y-96212142D01*
X119680714Y-96212142D01*
X119775952Y-96164523D01*
X119823571Y-96116904D01*
X119871190Y-96021666D01*
X119871190Y-95640714D01*
X119442619Y-96593095D02*
X119395000Y-96640714D01*
X119347380Y-96735952D01*
X119347380Y-96974047D01*
X119395000Y-97069285D01*
X119442619Y-97116904D01*
X119537857Y-97164523D01*
X119633095Y-97164523D01*
X119775952Y-97116904D01*
X120347380Y-96545476D01*
X120347380Y-97164523D01*
X119347380Y-98021666D02*
X119347380Y-97831190D01*
X119395000Y-97735952D01*
X119442619Y-97688333D01*
X119585476Y-97593095D01*
X119775952Y-97545476D01*
X120156904Y-97545476D01*
X120252142Y-97593095D01*
X120299761Y-97640714D01*
X120347380Y-97735952D01*
X120347380Y-97926428D01*
X120299761Y-98021666D01*
X120252142Y-98069285D01*
X120156904Y-98116904D01*
X119918809Y-98116904D01*
X119823571Y-98069285D01*
X119775952Y-98021666D01*
X119728333Y-97926428D01*
X119728333Y-97735952D01*
X119775952Y-97640714D01*
X119823571Y-97593095D01*
X119918809Y-97545476D01*
X162252142Y-100962142D02*
X162299761Y-100914523D01*
X162347380Y-100771666D01*
X162347380Y-100676428D01*
X162299761Y-100533571D01*
X162204523Y-100438333D01*
X162109285Y-100390714D01*
X161918809Y-100343095D01*
X161775952Y-100343095D01*
X161585476Y-100390714D01*
X161490238Y-100438333D01*
X161395000Y-100533571D01*
X161347380Y-100676428D01*
X161347380Y-100771666D01*
X161395000Y-100914523D01*
X161442619Y-100962142D01*
X161347380Y-101295476D02*
X161347380Y-101914523D01*
X161728333Y-101581190D01*
X161728333Y-101724047D01*
X161775952Y-101819285D01*
X161823571Y-101866904D01*
X161918809Y-101914523D01*
X162156904Y-101914523D01*
X162252142Y-101866904D01*
X162299761Y-101819285D01*
X162347380Y-101724047D01*
X162347380Y-101438333D01*
X162299761Y-101343095D01*
X162252142Y-101295476D01*
X162347380Y-102866904D02*
X162347380Y-102295476D01*
X162347380Y-102581190D02*
X161347380Y-102581190D01*
X161490238Y-102485952D01*
X161585476Y-102390714D01*
X161633095Y-102295476D01*
X120161904Y-98452380D02*
X120161904Y-99261904D01*
X120114285Y-99357142D01*
X120066666Y-99404761D01*
X119971428Y-99452380D01*
X119780952Y-99452380D01*
X119685714Y-99404761D01*
X119638095Y-99357142D01*
X119590476Y-99261904D01*
X119590476Y-98452380D01*
X119209523Y-98452380D02*
X118542857Y-98452380D01*
X118971428Y-99452380D01*
X150267969Y-118172893D02*
X150267969Y-118105549D01*
X150200625Y-117970862D01*
X150133282Y-117903519D01*
X149998595Y-117836175D01*
X149863908Y-117836175D01*
X149762893Y-117869847D01*
X149594534Y-117970862D01*
X149493519Y-118071877D01*
X149392503Y-118240236D01*
X149358832Y-118341251D01*
X149358832Y-118475938D01*
X149426175Y-118610625D01*
X149493519Y-118677969D01*
X149628206Y-118745312D01*
X149695549Y-118745312D01*
X149964923Y-119014687D02*
X149964923Y-119082030D01*
X149998595Y-119183045D01*
X150166954Y-119351404D01*
X150267969Y-119385076D01*
X150335312Y-119385076D01*
X150436328Y-119351404D01*
X150503671Y-119284061D01*
X150571015Y-119149374D01*
X150571015Y-118341251D01*
X151008748Y-118778984D01*
X150537343Y-119721793D02*
X151008748Y-120193198D01*
X151412809Y-119183045D01*
X153542857Y-111657142D02*
X153590476Y-111704761D01*
X153733333Y-111752380D01*
X153828571Y-111752380D01*
X153971428Y-111704761D01*
X154066666Y-111609523D01*
X154114285Y-111514285D01*
X154161904Y-111323809D01*
X154161904Y-111180952D01*
X154114285Y-110990476D01*
X154066666Y-110895238D01*
X153971428Y-110800000D01*
X153828571Y-110752380D01*
X153733333Y-110752380D01*
X153590476Y-110800000D01*
X153542857Y-110847619D01*
X152590476Y-111752380D02*
X153161904Y-111752380D01*
X152876190Y-111752380D02*
X152876190Y-110752380D01*
X152971428Y-110895238D01*
X153066666Y-110990476D01*
X153161904Y-111038095D01*
X151733333Y-111085714D02*
X151733333Y-111752380D01*
X151971428Y-110704761D02*
X152209523Y-111419047D01*
X151590476Y-111419047D01*
X198747380Y-95677142D02*
X198271190Y-95343809D01*
X198747380Y-95105714D02*
X197747380Y-95105714D01*
X197747380Y-95486666D01*
X197795000Y-95581904D01*
X197842619Y-95629523D01*
X197937857Y-95677142D01*
X198080714Y-95677142D01*
X198175952Y-95629523D01*
X198223571Y-95581904D01*
X198271190Y-95486666D01*
X198271190Y-95105714D01*
X198747380Y-96629523D02*
X198747380Y-96058095D01*
X198747380Y-96343809D02*
X197747380Y-96343809D01*
X197890238Y-96248571D01*
X197985476Y-96153333D01*
X198033095Y-96058095D01*
X197747380Y-97534285D02*
X197747380Y-97058095D01*
X198223571Y-97010476D01*
X198175952Y-97058095D01*
X198128333Y-97153333D01*
X198128333Y-97391428D01*
X198175952Y-97486666D01*
X198223571Y-97534285D01*
X198318809Y-97581904D01*
X198556904Y-97581904D01*
X198652142Y-97534285D01*
X198699761Y-97486666D01*
X198747380Y-97391428D01*
X198747380Y-97153333D01*
X198699761Y-97058095D01*
X198652142Y-97010476D01*
X149507106Y-103297969D02*
X149574450Y-103297969D01*
X149709137Y-103230625D01*
X149776480Y-103163282D01*
X149843824Y-103028595D01*
X149843824Y-102893908D01*
X149810152Y-102792893D01*
X149709137Y-102624534D01*
X149608122Y-102523519D01*
X149439763Y-102422503D01*
X149338748Y-102388832D01*
X149204061Y-102388832D01*
X149069374Y-102456175D01*
X149002030Y-102523519D01*
X148934687Y-102658206D01*
X148934687Y-102725549D01*
X148901015Y-104038748D02*
X149305076Y-103634687D01*
X149103045Y-103836717D02*
X148395938Y-103129610D01*
X148564297Y-103163282D01*
X148698984Y-103163282D01*
X148800000Y-103129610D01*
X147587816Y-103937732D02*
X147722503Y-103803045D01*
X147823519Y-103769374D01*
X147890862Y-103769374D01*
X148059221Y-103803045D01*
X148227580Y-103904061D01*
X148496954Y-104173435D01*
X148530625Y-104274450D01*
X148530625Y-104341793D01*
X148496954Y-104442809D01*
X148362267Y-104577496D01*
X148261251Y-104611167D01*
X148193908Y-104611167D01*
X148092893Y-104577496D01*
X147924534Y-104409137D01*
X147890862Y-104308122D01*
X147890862Y-104240778D01*
X147924534Y-104139763D01*
X148059221Y-104005076D01*
X148160236Y-103971404D01*
X148227580Y-103971404D01*
X148328595Y-104005076D01*
X139352380Y-96557142D02*
X138876190Y-96223809D01*
X139352380Y-95985714D02*
X138352380Y-95985714D01*
X138352380Y-96366666D01*
X138400000Y-96461904D01*
X138447619Y-96509523D01*
X138542857Y-96557142D01*
X138685714Y-96557142D01*
X138780952Y-96509523D01*
X138828571Y-96461904D01*
X138876190Y-96366666D01*
X138876190Y-95985714D01*
X138447619Y-96938095D02*
X138400000Y-96985714D01*
X138352380Y-97080952D01*
X138352380Y-97319047D01*
X138400000Y-97414285D01*
X138447619Y-97461904D01*
X138542857Y-97509523D01*
X138638095Y-97509523D01*
X138780952Y-97461904D01*
X139352380Y-96890476D01*
X139352380Y-97509523D01*
X138685714Y-98366666D02*
X139352380Y-98366666D01*
X138304761Y-98128571D02*
X139019047Y-97890476D01*
X139019047Y-98509523D01*
X117752380Y-103557142D02*
X117276190Y-103223809D01*
X117752380Y-102985714D02*
X116752380Y-102985714D01*
X116752380Y-103366666D01*
X116800000Y-103461904D01*
X116847619Y-103509523D01*
X116942857Y-103557142D01*
X117085714Y-103557142D01*
X117180952Y-103509523D01*
X117228571Y-103461904D01*
X117276190Y-103366666D01*
X117276190Y-102985714D01*
X116752380Y-103890476D02*
X116752380Y-104509523D01*
X117133333Y-104176190D01*
X117133333Y-104319047D01*
X117180952Y-104414285D01*
X117228571Y-104461904D01*
X117323809Y-104509523D01*
X117561904Y-104509523D01*
X117657142Y-104461904D01*
X117704761Y-104414285D01*
X117752380Y-104319047D01*
X117752380Y-104033333D01*
X117704761Y-103938095D01*
X117657142Y-103890476D01*
X116752380Y-105366666D02*
X116752380Y-105176190D01*
X116800000Y-105080952D01*
X116847619Y-105033333D01*
X116990476Y-104938095D01*
X117180952Y-104890476D01*
X117561904Y-104890476D01*
X117657142Y-104938095D01*
X117704761Y-104985714D01*
X117752380Y-105080952D01*
X117752380Y-105271428D01*
X117704761Y-105366666D01*
X117657142Y-105414285D01*
X117561904Y-105461904D01*
X117323809Y-105461904D01*
X117228571Y-105414285D01*
X117180952Y-105366666D01*
X117133333Y-105271428D01*
X117133333Y-105080952D01*
X117180952Y-104985714D01*
X117228571Y-104938095D01*
X117323809Y-104890476D01*
X173022380Y-95737142D02*
X172546190Y-95403809D01*
X173022380Y-95165714D02*
X172022380Y-95165714D01*
X172022380Y-95546666D01*
X172070000Y-95641904D01*
X172117619Y-95689523D01*
X172212857Y-95737142D01*
X172355714Y-95737142D01*
X172450952Y-95689523D01*
X172498571Y-95641904D01*
X172546190Y-95546666D01*
X172546190Y-95165714D01*
X173022380Y-96689523D02*
X173022380Y-96118095D01*
X173022380Y-96403809D02*
X172022380Y-96403809D01*
X172165238Y-96308571D01*
X172260476Y-96213333D01*
X172308095Y-96118095D01*
X172022380Y-97546666D02*
X172022380Y-97356190D01*
X172070000Y-97260952D01*
X172117619Y-97213333D01*
X172260476Y-97118095D01*
X172450952Y-97070476D01*
X172831904Y-97070476D01*
X172927142Y-97118095D01*
X172974761Y-97165714D01*
X173022380Y-97260952D01*
X173022380Y-97451428D01*
X172974761Y-97546666D01*
X172927142Y-97594285D01*
X172831904Y-97641904D01*
X172593809Y-97641904D01*
X172498571Y-97594285D01*
X172450952Y-97546666D01*
X172403333Y-97451428D01*
X172403333Y-97260952D01*
X172450952Y-97165714D01*
X172498571Y-97118095D01*
X172593809Y-97070476D01*
X123572380Y-96187142D02*
X123096190Y-95853809D01*
X123572380Y-95615714D02*
X122572380Y-95615714D01*
X122572380Y-95996666D01*
X122620000Y-96091904D01*
X122667619Y-96139523D01*
X122762857Y-96187142D01*
X122905714Y-96187142D01*
X123000952Y-96139523D01*
X123048571Y-96091904D01*
X123096190Y-95996666D01*
X123096190Y-95615714D01*
X122572380Y-96520476D02*
X122572380Y-97139523D01*
X122953333Y-96806190D01*
X122953333Y-96949047D01*
X123000952Y-97044285D01*
X123048571Y-97091904D01*
X123143809Y-97139523D01*
X123381904Y-97139523D01*
X123477142Y-97091904D01*
X123524761Y-97044285D01*
X123572380Y-96949047D01*
X123572380Y-96663333D01*
X123524761Y-96568095D01*
X123477142Y-96520476D01*
X122572380Y-97758571D02*
X122572380Y-97853809D01*
X122620000Y-97949047D01*
X122667619Y-97996666D01*
X122762857Y-98044285D01*
X122953333Y-98091904D01*
X123191428Y-98091904D01*
X123381904Y-98044285D01*
X123477142Y-97996666D01*
X123524761Y-97949047D01*
X123572380Y-97853809D01*
X123572380Y-97758571D01*
X123524761Y-97663333D01*
X123477142Y-97615714D01*
X123381904Y-97568095D01*
X123191428Y-97520476D01*
X122953333Y-97520476D01*
X122762857Y-97568095D01*
X122667619Y-97615714D01*
X122620000Y-97663333D01*
X122572380Y-97758571D01*
X168047380Y-103662142D02*
X167571190Y-103328809D01*
X168047380Y-103090714D02*
X167047380Y-103090714D01*
X167047380Y-103471666D01*
X167095000Y-103566904D01*
X167142619Y-103614523D01*
X167237857Y-103662142D01*
X167380714Y-103662142D01*
X167475952Y-103614523D01*
X167523571Y-103566904D01*
X167571190Y-103471666D01*
X167571190Y-103090714D01*
X167142619Y-104043095D02*
X167095000Y-104090714D01*
X167047380Y-104185952D01*
X167047380Y-104424047D01*
X167095000Y-104519285D01*
X167142619Y-104566904D01*
X167237857Y-104614523D01*
X167333095Y-104614523D01*
X167475952Y-104566904D01*
X168047380Y-103995476D01*
X168047380Y-104614523D01*
X167142619Y-104995476D02*
X167095000Y-105043095D01*
X167047380Y-105138333D01*
X167047380Y-105376428D01*
X167095000Y-105471666D01*
X167142619Y-105519285D01*
X167237857Y-105566904D01*
X167333095Y-105566904D01*
X167475952Y-105519285D01*
X168047380Y-104947857D01*
X168047380Y-105566904D01*
X111377142Y-100682142D02*
X111424761Y-100634523D01*
X111472380Y-100491666D01*
X111472380Y-100396428D01*
X111424761Y-100253571D01*
X111329523Y-100158333D01*
X111234285Y-100110714D01*
X111043809Y-100063095D01*
X110900952Y-100063095D01*
X110710476Y-100110714D01*
X110615238Y-100158333D01*
X110520000Y-100253571D01*
X110472380Y-100396428D01*
X110472380Y-100491666D01*
X110520000Y-100634523D01*
X110567619Y-100682142D01*
X110805714Y-101539285D02*
X111472380Y-101539285D01*
X110424761Y-101301190D02*
X111139047Y-101063095D01*
X111139047Y-101682142D01*
X110472380Y-101967857D02*
X110472380Y-102586904D01*
X110853333Y-102253571D01*
X110853333Y-102396428D01*
X110900952Y-102491666D01*
X110948571Y-102539285D01*
X111043809Y-102586904D01*
X111281904Y-102586904D01*
X111377142Y-102539285D01*
X111424761Y-102491666D01*
X111472380Y-102396428D01*
X111472380Y-102110714D01*
X111424761Y-102015476D01*
X111377142Y-101967857D01*
X170422380Y-95737142D02*
X169946190Y-95403809D01*
X170422380Y-95165714D02*
X169422380Y-95165714D01*
X169422380Y-95546666D01*
X169470000Y-95641904D01*
X169517619Y-95689523D01*
X169612857Y-95737142D01*
X169755714Y-95737142D01*
X169850952Y-95689523D01*
X169898571Y-95641904D01*
X169946190Y-95546666D01*
X169946190Y-95165714D01*
X170422380Y-96689523D02*
X170422380Y-96118095D01*
X170422380Y-96403809D02*
X169422380Y-96403809D01*
X169565238Y-96308571D01*
X169660476Y-96213333D01*
X169708095Y-96118095D01*
X169517619Y-97070476D02*
X169470000Y-97118095D01*
X169422380Y-97213333D01*
X169422380Y-97451428D01*
X169470000Y-97546666D01*
X169517619Y-97594285D01*
X169612857Y-97641904D01*
X169708095Y-97641904D01*
X169850952Y-97594285D01*
X170422380Y-97022857D01*
X170422380Y-97641904D01*
X145347379Y-96962142D02*
X144871189Y-96628809D01*
X145347379Y-96390714D02*
X144347379Y-96390714D01*
X144347379Y-96771666D01*
X144394999Y-96866904D01*
X144442618Y-96914523D01*
X144537856Y-96962142D01*
X144680713Y-96962142D01*
X144775951Y-96914523D01*
X144823570Y-96866904D01*
X144871189Y-96771666D01*
X144871189Y-96390714D01*
X144442618Y-97343095D02*
X144394999Y-97390714D01*
X144347379Y-97485952D01*
X144347379Y-97724047D01*
X144394999Y-97819285D01*
X144442618Y-97866904D01*
X144537856Y-97914523D01*
X144633094Y-97914523D01*
X144775951Y-97866904D01*
X145347379Y-97295476D01*
X145347379Y-97914523D01*
X144347379Y-98819285D02*
X144347379Y-98343095D01*
X144823570Y-98295476D01*
X144775951Y-98343095D01*
X144728332Y-98438333D01*
X144728332Y-98676428D01*
X144775951Y-98771666D01*
X144823570Y-98819285D01*
X144918808Y-98866904D01*
X145156903Y-98866904D01*
X145252141Y-98819285D01*
X145299760Y-98771666D01*
X145347379Y-98676428D01*
X145347379Y-98438333D01*
X145299760Y-98343095D01*
X145252141Y-98295476D01*
X121742857Y-102557142D02*
X121790476Y-102604761D01*
X121933333Y-102652380D01*
X122028571Y-102652380D01*
X122171428Y-102604761D01*
X122266666Y-102509523D01*
X122314285Y-102414285D01*
X122361904Y-102223809D01*
X122361904Y-102080952D01*
X122314285Y-101890476D01*
X122266666Y-101795238D01*
X122171428Y-101700000D01*
X122028571Y-101652380D01*
X121933333Y-101652380D01*
X121790476Y-101700000D01*
X121742857Y-101747619D01*
X120885714Y-101985714D02*
X120885714Y-102652380D01*
X121123809Y-101604761D02*
X121361904Y-102319047D01*
X120742857Y-102319047D01*
X119933333Y-101985714D02*
X119933333Y-102652380D01*
X120171428Y-101604761D02*
X120409523Y-102319047D01*
X119790476Y-102319047D01*
X109852142Y-100682142D02*
X109899761Y-100634523D01*
X109947380Y-100491666D01*
X109947380Y-100396428D01*
X109899761Y-100253571D01*
X109804523Y-100158333D01*
X109709285Y-100110714D01*
X109518809Y-100063095D01*
X109375952Y-100063095D01*
X109185476Y-100110714D01*
X109090238Y-100158333D01*
X108995000Y-100253571D01*
X108947380Y-100396428D01*
X108947380Y-100491666D01*
X108995000Y-100634523D01*
X109042619Y-100682142D01*
X109280714Y-101539285D02*
X109947380Y-101539285D01*
X108899761Y-101301190D02*
X109614047Y-101063095D01*
X109614047Y-101682142D01*
X109947380Y-102586904D02*
X109947380Y-102015476D01*
X109947380Y-102301190D02*
X108947380Y-102301190D01*
X109090238Y-102205952D01*
X109185476Y-102110714D01*
X109233095Y-102015476D01*
X113952380Y-103657142D02*
X113476190Y-103323809D01*
X113952380Y-103085714D02*
X112952380Y-103085714D01*
X112952380Y-103466666D01*
X113000000Y-103561904D01*
X113047619Y-103609523D01*
X113142857Y-103657142D01*
X113285714Y-103657142D01*
X113380952Y-103609523D01*
X113428571Y-103561904D01*
X113476190Y-103466666D01*
X113476190Y-103085714D01*
X112952380Y-103990476D02*
X112952380Y-104609523D01*
X113333333Y-104276190D01*
X113333333Y-104419047D01*
X113380952Y-104514285D01*
X113428571Y-104561904D01*
X113523809Y-104609523D01*
X113761904Y-104609523D01*
X113857142Y-104561904D01*
X113904761Y-104514285D01*
X113952380Y-104419047D01*
X113952380Y-104133333D01*
X113904761Y-104038095D01*
X113857142Y-103990476D01*
X113047619Y-104990476D02*
X113000000Y-105038095D01*
X112952380Y-105133333D01*
X112952380Y-105371428D01*
X113000000Y-105466666D01*
X113047619Y-105514285D01*
X113142857Y-105561904D01*
X113238095Y-105561904D01*
X113380952Y-105514285D01*
X113952380Y-104942857D01*
X113952380Y-105561904D01*
X151267968Y-117072893D02*
X151267968Y-117005549D01*
X151200624Y-116870862D01*
X151133281Y-116803519D01*
X150998594Y-116736175D01*
X150863907Y-116736175D01*
X150762892Y-116769847D01*
X150594533Y-116870862D01*
X150493518Y-116971877D01*
X150392502Y-117140236D01*
X150358831Y-117241251D01*
X150358831Y-117375938D01*
X150426174Y-117510625D01*
X150493518Y-117577969D01*
X150628205Y-117645312D01*
X150695548Y-117645312D01*
X152008747Y-117678984D02*
X151604686Y-117274923D01*
X151806716Y-117476954D02*
X151099609Y-118184061D01*
X151133281Y-118015702D01*
X151133281Y-117881015D01*
X151099609Y-117780000D01*
X151941403Y-119025854D02*
X151604686Y-118689137D01*
X151907731Y-118318748D01*
X151907731Y-118386091D01*
X151941403Y-118487106D01*
X152109762Y-118655465D01*
X152210777Y-118689137D01*
X152278121Y-118689137D01*
X152379136Y-118655465D01*
X152547495Y-118487106D01*
X152581166Y-118386091D01*
X152581166Y-118318748D01*
X152547495Y-118217732D01*
X152379136Y-118049374D01*
X152278121Y-118015702D01*
X152210777Y-118015702D01*
X141682380Y-106717142D02*
X141206190Y-106383809D01*
X141682380Y-106145714D02*
X140682380Y-106145714D01*
X140682380Y-106526666D01*
X140730000Y-106621904D01*
X140777619Y-106669523D01*
X140872857Y-106717142D01*
X141015714Y-106717142D01*
X141110952Y-106669523D01*
X141158571Y-106621904D01*
X141206190Y-106526666D01*
X141206190Y-106145714D01*
X140682380Y-107050476D02*
X140682380Y-107669523D01*
X141063333Y-107336190D01*
X141063333Y-107479047D01*
X141110952Y-107574285D01*
X141158571Y-107621904D01*
X141253809Y-107669523D01*
X141491904Y-107669523D01*
X141587142Y-107621904D01*
X141634761Y-107574285D01*
X141682380Y-107479047D01*
X141682380Y-107193333D01*
X141634761Y-107098095D01*
X141587142Y-107050476D01*
X140682380Y-108574285D02*
X140682380Y-108098095D01*
X141158571Y-108050476D01*
X141110952Y-108098095D01*
X141063333Y-108193333D01*
X141063333Y-108431428D01*
X141110952Y-108526666D01*
X141158571Y-108574285D01*
X141253809Y-108621904D01*
X141491904Y-108621904D01*
X141587142Y-108574285D01*
X141634761Y-108526666D01*
X141682380Y-108431428D01*
X141682380Y-108193333D01*
X141634761Y-108098095D01*
X141587142Y-108050476D01*
X140282380Y-106717142D02*
X139806190Y-106383809D01*
X140282380Y-106145714D02*
X139282380Y-106145714D01*
X139282380Y-106526666D01*
X139330000Y-106621904D01*
X139377619Y-106669523D01*
X139472857Y-106717142D01*
X139615714Y-106717142D01*
X139710952Y-106669523D01*
X139758571Y-106621904D01*
X139806190Y-106526666D01*
X139806190Y-106145714D01*
X139282380Y-107050476D02*
X139282380Y-107669523D01*
X139663333Y-107336190D01*
X139663333Y-107479047D01*
X139710952Y-107574285D01*
X139758571Y-107621904D01*
X139853809Y-107669523D01*
X140091904Y-107669523D01*
X140187142Y-107621904D01*
X140234761Y-107574285D01*
X140282380Y-107479047D01*
X140282380Y-107193333D01*
X140234761Y-107098095D01*
X140187142Y-107050476D01*
X140282380Y-108621904D02*
X140282380Y-108050476D01*
X140282380Y-108336190D02*
X139282380Y-108336190D01*
X139425238Y-108240952D01*
X139520476Y-108145714D01*
X139568095Y-108050476D01*
X160877142Y-100962142D02*
X160924761Y-100914523D01*
X160972380Y-100771666D01*
X160972380Y-100676428D01*
X160924761Y-100533571D01*
X160829523Y-100438333D01*
X160734285Y-100390714D01*
X160543809Y-100343095D01*
X160400952Y-100343095D01*
X160210476Y-100390714D01*
X160115238Y-100438333D01*
X160020000Y-100533571D01*
X159972380Y-100676428D01*
X159972380Y-100771666D01*
X160020000Y-100914523D01*
X160067619Y-100962142D01*
X160067619Y-101343095D02*
X160020000Y-101390714D01*
X159972380Y-101485952D01*
X159972380Y-101724047D01*
X160020000Y-101819285D01*
X160067619Y-101866904D01*
X160162857Y-101914523D01*
X160258095Y-101914523D01*
X160400952Y-101866904D01*
X160972380Y-101295476D01*
X160972380Y-101914523D01*
X160972380Y-102390714D02*
X160972380Y-102581190D01*
X160924761Y-102676428D01*
X160877142Y-102724047D01*
X160734285Y-102819285D01*
X160543809Y-102866904D01*
X160162857Y-102866904D01*
X160067619Y-102819285D01*
X160020000Y-102771666D01*
X159972380Y-102676428D01*
X159972380Y-102485952D01*
X160020000Y-102390714D01*
X160067619Y-102343095D01*
X160162857Y-102295476D01*
X160400952Y-102295476D01*
X160496190Y-102343095D01*
X160543809Y-102390714D01*
X160591428Y-102485952D01*
X160591428Y-102676428D01*
X160543809Y-102771666D01*
X160496190Y-102819285D01*
X160400952Y-102866904D01*
X193097380Y-103612142D02*
X192621190Y-103278809D01*
X193097380Y-103040714D02*
X192097380Y-103040714D01*
X192097380Y-103421666D01*
X192145000Y-103516904D01*
X192192619Y-103564523D01*
X192287857Y-103612142D01*
X192430714Y-103612142D01*
X192525952Y-103564523D01*
X192573571Y-103516904D01*
X192621190Y-103421666D01*
X192621190Y-103040714D01*
X192192619Y-103993095D02*
X192145000Y-104040714D01*
X192097380Y-104135952D01*
X192097380Y-104374047D01*
X192145000Y-104469285D01*
X192192619Y-104516904D01*
X192287857Y-104564523D01*
X192383095Y-104564523D01*
X192525952Y-104516904D01*
X193097380Y-103945476D01*
X193097380Y-104564523D01*
X193097380Y-105516904D02*
X193097380Y-104945476D01*
X193097380Y-105231190D02*
X192097380Y-105231190D01*
X192240238Y-105135952D01*
X192335476Y-105040714D01*
X192383095Y-104945476D01*
D11*
X150278601Y-108462282D02*
X150431104Y-108309779D01*
X150787718Y-108971399D02*
X150940221Y-108818896D01*
X164800000Y-98526359D02*
X164800000Y-98833641D01*
X164040000Y-98526359D02*
X164040000Y-98833641D01*
X192050000Y-96273641D02*
X192050000Y-95966359D01*
X191290000Y-96273641D02*
X191290000Y-95966359D01*
X139030000Y-102192164D02*
X139030000Y-102407836D01*
X138310000Y-102192164D02*
X138310000Y-102407836D01*
X141533896Y-113325221D02*
X141686399Y-113172718D01*
X141024779Y-112816104D02*
X141177282Y-112663601D01*
X148439190Y-106701693D02*
X148591693Y-106549190D01*
X148948307Y-107210810D02*
X149100810Y-107058307D01*
X164690000Y-103666359D02*
X164690000Y-103973641D01*
X165450000Y-103666359D02*
X165450000Y-103973641D01*
X143040000Y-97523641D02*
X143040000Y-97216359D01*
X143800000Y-97523641D02*
X143800000Y-97216359D01*
D12*
X139645001Y-99305001D02*
X139645001Y-99605000D01*
X139645001Y-99305001D02*
X139945000Y-99305001D01*
X143095001Y-102455002D02*
X143095001Y-102755001D01*
X143095001Y-99305001D02*
X143095001Y-99605000D01*
X142795002Y-102755001D02*
X143095001Y-102755001D01*
X139645001Y-102755001D02*
X140270001Y-102755001D01*
X142795002Y-99305001D02*
X143095001Y-99305001D01*
X139645001Y-102130001D02*
X139645001Y-102755001D01*
D11*
X167850000Y-96433639D02*
X167850000Y-96126357D01*
X167090000Y-96433639D02*
X167090000Y-96126357D01*
X150848307Y-114849190D02*
X151000810Y-115001693D01*
X150339190Y-115358307D02*
X150491693Y-115510810D01*
X190450000Y-103866359D02*
X190450000Y-104173641D01*
X189690000Y-103866359D02*
X189690000Y-104173641D01*
D12*
X190145000Y-101230000D02*
X190145000Y-101855000D01*
X193295001Y-101855000D02*
X193595000Y-101855000D01*
X193595000Y-101555001D02*
X193595000Y-101855000D01*
X193295001Y-98405000D02*
X193595000Y-98405000D01*
X190145000Y-98405000D02*
X190145000Y-98704999D01*
X193595000Y-98405000D02*
X193595000Y-98704999D01*
X190145000Y-98405000D02*
X190444999Y-98405000D01*
X190145000Y-101855000D02*
X190770000Y-101855000D01*
D11*
X141940000Y-97523641D02*
X141940000Y-97216359D01*
X142700000Y-97523641D02*
X142700000Y-97216359D01*
X143410000Y-102957164D02*
X143410000Y-103172836D01*
X144130000Y-102957164D02*
X144130000Y-103172836D01*
X145100810Y-107001693D02*
X144948307Y-106849190D01*
X144591693Y-107510810D02*
X144439190Y-107358307D01*
X151748307Y-110010810D02*
X151900810Y-109858307D01*
X151239190Y-109501693D02*
X151391693Y-109349190D01*
X194210000Y-101272164D02*
X194210000Y-101487836D01*
X194930000Y-101272164D02*
X194930000Y-101487836D01*
X114100000Y-98626359D02*
X114100000Y-98933641D01*
X113340000Y-98626359D02*
X113340000Y-98933641D01*
X188330000Y-101342164D02*
X188330000Y-101557836D01*
X187610000Y-101342164D02*
X187610000Y-101557836D01*
D12*
X168295001Y-101655000D02*
X168595000Y-101655000D01*
X168595000Y-101355001D02*
X168595000Y-101655000D01*
X165145000Y-101030000D02*
X165145000Y-101655000D01*
X168595000Y-98205000D02*
X168595000Y-98504999D01*
X168295001Y-98205000D02*
X168595000Y-98205000D01*
X165145000Y-101655000D02*
X165770000Y-101655000D01*
X165145000Y-98205000D02*
X165444999Y-98205000D01*
X165145000Y-98205000D02*
X165145000Y-98504999D01*
D11*
X168910000Y-101872164D02*
X168910000Y-102087836D01*
X169630000Y-101872164D02*
X169630000Y-102087836D01*
X137780000Y-102192164D02*
X137780000Y-102407836D01*
X137060000Y-102192164D02*
X137060000Y-102407836D01*
X142700810Y-109501693D02*
X142548307Y-109349190D01*
X142191693Y-110010810D02*
X142039190Y-109858307D01*
X188810000Y-101342164D02*
X188810000Y-101557836D01*
X189530000Y-101342164D02*
X189530000Y-101557836D01*
X192490000Y-96273641D02*
X192490000Y-95966359D01*
X193250000Y-96273641D02*
X193250000Y-95966359D01*
X189850000Y-98726359D02*
X189850000Y-99033641D01*
X189090000Y-98726359D02*
X189090000Y-99033641D01*
X117800000Y-96513642D02*
X117800000Y-96206360D01*
X117040000Y-96513642D02*
X117040000Y-96206360D01*
X141600810Y-110501693D02*
X141448307Y-110349190D01*
X141091693Y-111010810D02*
X140939190Y-110858307D01*
X116700000Y-96513642D02*
X116700000Y-96206360D01*
X115940000Y-96513642D02*
X115940000Y-96206360D01*
X164630000Y-101372162D02*
X164630000Y-101587834D01*
X163910000Y-101372162D02*
X163910000Y-101587834D01*
D12*
X117695001Y-98354998D02*
X117995000Y-98354998D01*
X114545000Y-101179998D02*
X114545000Y-101804998D01*
X117995000Y-101504999D02*
X117995000Y-101804998D01*
X114545000Y-98354998D02*
X114844999Y-98354998D01*
X114545000Y-98354998D02*
X114545000Y-98654997D01*
X114545000Y-101804998D02*
X115170000Y-101804998D01*
X117995000Y-98354998D02*
X117995000Y-98654997D01*
X117695001Y-101804998D02*
X117995000Y-101804998D01*
D11*
X148239190Y-117558307D02*
X148391693Y-117710810D01*
X148748307Y-117049190D02*
X148900810Y-117201693D01*
X152701693Y-113400810D02*
X152549190Y-113248307D01*
X153210810Y-112891693D02*
X153058307Y-112739190D01*
X193690000Y-96273641D02*
X193690000Y-95966359D01*
X194450000Y-96273641D02*
X194450000Y-95966359D01*
X147491693Y-105449190D02*
X147339190Y-105601693D01*
X148000810Y-105958307D02*
X147848307Y-106110810D01*
X138490000Y-99576359D02*
X138490000Y-99883641D01*
X139250000Y-99576359D02*
X139250000Y-99883641D01*
X115590000Y-103616359D02*
X115590000Y-103923641D01*
X116350000Y-103616359D02*
X116350000Y-103923641D01*
X168290000Y-96433639D02*
X168290000Y-96126357D01*
X169050000Y-96433639D02*
X169050000Y-96126357D01*
X118900000Y-96523641D02*
X118900000Y-96216359D01*
X118140000Y-96523641D02*
X118140000Y-96216359D01*
X166650000Y-103666359D02*
X166650000Y-103973641D01*
X165890000Y-103666359D02*
X165890000Y-103973641D01*
X113830000Y-101222164D02*
X113830000Y-101437836D01*
X113110000Y-101222164D02*
X113110000Y-101437836D01*
X165890000Y-96433639D02*
X165890000Y-96126357D01*
X166650000Y-96433639D02*
X166650000Y-96126357D01*
X140840000Y-97523642D02*
X140840000Y-97216360D01*
X141600000Y-97523642D02*
X141600000Y-97216360D01*
X119480000Y-101222164D02*
X119480000Y-101437836D01*
X118760000Y-101222164D02*
X118760000Y-101437836D01*
X112630000Y-101222164D02*
X112630000Y-101437836D01*
X111910000Y-101222164D02*
X111910000Y-101437836D01*
X115150000Y-103616359D02*
X115150000Y-103923641D01*
X114390000Y-103616359D02*
X114390000Y-103923641D01*
X149091693Y-117010810D02*
X148939190Y-116858307D01*
X149600810Y-116501693D02*
X149448307Y-116349190D01*
X140620000Y-104786359D02*
X140620000Y-105093641D01*
X141380000Y-104786359D02*
X141380000Y-105093641D01*
X140230000Y-104786360D02*
X140230000Y-105093642D01*
X139470000Y-104786360D02*
X139470000Y-105093642D01*
X162710000Y-101372162D02*
X162710000Y-101587834D01*
X163430000Y-101372162D02*
X163430000Y-101587834D01*
X190890000Y-103866359D02*
X190890000Y-104173641D01*
X191650000Y-103866359D02*
X191650000Y-104173641D01*
%LPC*%
D13*
X136870000Y-89130000D03*
X134370000Y-89130000D03*
X132370000Y-89130000D03*
X129870000Y-89130000D03*
X129370000Y-90630000D03*
X131370000Y-90630000D03*
X133370000Y-90630000D03*
X135370000Y-90630000D03*
X137370000Y-90630000D03*
D14*
X126970000Y-81380000D03*
D15*
X126970000Y-89880000D03*
D14*
X139770000Y-81380000D03*
D15*
X139770000Y-89880000D03*
D16*
X167864888Y-92130000D03*
D17*
X170364888Y-92130000D03*
D16*
X142864888Y-92130000D03*
D17*
X145364888Y-92130000D03*
D13*
X161870000Y-89130000D03*
X159370000Y-89130000D03*
X157370000Y-89130000D03*
X154870000Y-89130000D03*
X154370000Y-90630000D03*
X156370000Y-90630000D03*
X158370000Y-90630000D03*
X160370000Y-90630000D03*
X162370000Y-90630000D03*
D15*
X164770000Y-89880000D03*
X151970000Y-89880000D03*
D14*
X151970000Y-81380000D03*
X164770000Y-81380000D03*
D13*
X111870000Y-89130000D03*
X109370000Y-89130000D03*
X107370000Y-89130000D03*
X104870000Y-89130000D03*
X104370000Y-90630000D03*
X106370000Y-90630000D03*
X108370000Y-90630000D03*
X110370000Y-90630000D03*
X112370000Y-90630000D03*
D15*
X114770000Y-89880000D03*
D14*
X101970000Y-81380000D03*
D15*
X101970000Y-89880000D03*
D14*
X114770000Y-81380000D03*
D18*
X202000000Y-82200000D03*
D17*
X102995000Y-124700000D03*
D19*
X102995000Y-115700000D03*
D20*
X102995000Y-121700000D03*
D21*
X107495000Y-122700000D03*
X98495000Y-122700000D03*
D13*
X182720000Y-115830000D03*
X185220000Y-115830000D03*
X187220000Y-115830000D03*
X189720000Y-115830000D03*
X190220000Y-114330000D03*
X188220000Y-114330000D03*
X186220000Y-114330000D03*
X184220000Y-114330000D03*
X182220000Y-114330000D03*
D14*
X179820000Y-123580000D03*
D15*
X179820000Y-115080000D03*
D14*
X192620000Y-123580000D03*
D15*
X192620000Y-115080000D03*
D16*
X117920000Y-92480000D03*
D17*
X120420000Y-92480000D03*
D18*
X92000000Y-82100000D03*
D13*
X186870000Y-89130000D03*
X184370000Y-89130000D03*
X182370000Y-89130000D03*
X179870000Y-89130000D03*
X179370000Y-90630000D03*
X181370000Y-90630000D03*
X183370000Y-90630000D03*
X185370000Y-90630000D03*
X187370000Y-90630000D03*
D14*
X176970000Y-81380000D03*
D15*
X189770000Y-89880000D03*
X176970000Y-89880000D03*
D14*
X189770000Y-81380000D03*
D18*
X92000000Y-122800000D03*
D16*
X192864888Y-92130000D03*
D17*
X195364888Y-92130000D03*
D18*
X202000000Y-122800000D03*
D22*
X150270000Y-108980000D03*
X150948822Y-108301178D03*
D23*
X164420000Y-98170000D03*
X164420000Y-99190000D03*
D24*
X191670000Y-96630000D03*
X191670000Y-95610000D03*
D25*
X138670000Y-101820000D03*
X138670000Y-102780000D03*
D22*
X141016178Y-113333822D03*
X141695000Y-112655000D03*
X148430589Y-107219411D03*
X149109411Y-106540589D03*
D23*
X165070000Y-103310000D03*
X165070000Y-104330000D03*
D24*
X143420000Y-97880000D03*
X143420000Y-96860000D03*
D26*
X141870000Y-101530000D03*
D27*
X141370001Y-101030001D03*
D26*
X140869999Y-101530000D03*
X141870000Y-100530002D03*
X140869999Y-100530002D03*
D28*
X139970001Y-101780002D03*
X139970001Y-101280003D03*
X139970001Y-100780001D03*
X139970001Y-100280003D03*
D29*
X140620003Y-99630001D03*
X141120001Y-99630001D03*
X141620003Y-99630001D03*
X142120002Y-99630001D03*
D28*
X142770001Y-100280003D03*
X142770001Y-100780001D03*
X142770001Y-101280003D03*
X142770001Y-101780002D03*
D29*
X142120002Y-102430001D03*
X141620003Y-102430001D03*
X141120001Y-102430001D03*
X140620003Y-102430001D03*
D24*
X167470000Y-96789998D03*
X167470000Y-95769998D03*
D30*
X150330589Y-114840589D03*
X151009411Y-115519411D03*
D23*
X190070000Y-103510000D03*
X190070000Y-104530000D03*
D26*
X191369998Y-99630001D03*
D27*
X191870000Y-100130000D03*
D26*
X191369998Y-100629999D03*
X192369999Y-99630001D03*
X192369999Y-100629999D03*
D28*
X190470000Y-100880001D03*
X190470000Y-100380002D03*
X190470000Y-99880000D03*
X190470000Y-99380002D03*
D29*
X191120002Y-98730000D03*
X191620000Y-98730000D03*
X192120002Y-98730000D03*
X192620001Y-98730000D03*
D28*
X193270000Y-99380002D03*
X193270000Y-99880000D03*
X193270000Y-100380002D03*
X193270000Y-100880001D03*
D29*
X192620001Y-101530000D03*
X192120002Y-101530000D03*
X191620000Y-101530000D03*
X191120002Y-101530000D03*
D24*
X142320000Y-97880000D03*
X142320000Y-96860000D03*
D25*
X143770000Y-102585000D03*
X143770000Y-103545000D03*
D31*
X145109411Y-107519411D03*
X144430589Y-106840589D03*
D22*
X151230589Y-110019411D03*
X151909411Y-109340589D03*
D25*
X194570000Y-100900000D03*
X194570000Y-101860000D03*
D23*
X113720000Y-98270000D03*
X113720000Y-99290000D03*
D25*
X187970000Y-100970000D03*
X187970000Y-101930000D03*
D26*
X167369999Y-99430001D03*
X166369998Y-100429999D03*
X167369999Y-100429999D03*
X166369998Y-99430001D03*
D27*
X166870000Y-99930000D03*
D28*
X165470000Y-100680001D03*
X165470000Y-100180002D03*
X165470000Y-99680000D03*
X165470000Y-99180002D03*
D29*
X166120002Y-98530000D03*
X166620000Y-98530000D03*
X167120002Y-98530000D03*
X167620001Y-98530000D03*
D28*
X168270000Y-99180002D03*
X168270000Y-99680000D03*
X168270000Y-100180002D03*
X168270000Y-100680001D03*
D29*
X167620001Y-101330000D03*
X167120002Y-101330000D03*
X166620000Y-101330000D03*
X166120002Y-101330000D03*
D25*
X169270000Y-101500000D03*
X169270000Y-102460000D03*
X137420000Y-101820000D03*
X137420000Y-102780000D03*
D31*
X142709411Y-110019411D03*
X142030589Y-109340589D03*
D25*
X189170000Y-100970000D03*
X189170000Y-101930000D03*
D24*
X192870000Y-96630000D03*
X192870000Y-95610000D03*
D23*
X189470000Y-98370000D03*
X189470000Y-99390000D03*
D24*
X117420000Y-96870001D03*
X117420000Y-95850001D03*
D31*
X141609411Y-111019411D03*
X140930589Y-110340589D03*
D24*
X116320000Y-96870001D03*
X116320000Y-95850001D03*
D25*
X164270000Y-100999998D03*
X164270000Y-101959998D03*
D27*
X116270000Y-100079998D03*
D26*
X115769998Y-100579997D03*
X115769998Y-99579999D03*
X116769999Y-100579997D03*
X116769999Y-99579999D03*
D28*
X114870000Y-100829999D03*
X114870000Y-100330000D03*
X114870000Y-99829998D03*
X114870000Y-99330000D03*
D29*
X115520002Y-98679998D03*
X116020000Y-98679998D03*
X116520002Y-98679998D03*
X117020001Y-98679998D03*
D28*
X117670000Y-99330000D03*
X117670000Y-99829998D03*
X117670000Y-100330000D03*
X117670000Y-100829999D03*
D29*
X117020001Y-101479998D03*
X116520002Y-101479998D03*
X116020000Y-101479998D03*
X115520002Y-101479998D03*
D30*
X148230589Y-117040589D03*
X148909411Y-117719411D03*
D31*
X153219411Y-113409411D03*
X152540589Y-112730589D03*
D24*
X194070000Y-96630000D03*
X194070000Y-95610000D03*
D32*
X148009411Y-105440589D03*
X147330589Y-106119411D03*
D23*
X138870000Y-99220000D03*
X138870000Y-100240000D03*
X115970000Y-103260000D03*
X115970000Y-104280000D03*
D24*
X168670000Y-96789998D03*
X168670000Y-95769998D03*
X118520000Y-96880000D03*
X118520000Y-95860000D03*
D23*
X166270000Y-103310000D03*
X166270000Y-104330000D03*
D25*
X113470000Y-100850000D03*
X113470000Y-101810000D03*
D24*
X166270000Y-96789998D03*
X166270000Y-95769998D03*
X141220000Y-97880001D03*
X141220000Y-96860001D03*
D25*
X119120000Y-100850000D03*
X119120000Y-101810000D03*
X112270000Y-100850000D03*
X112270000Y-101810000D03*
D23*
X114770000Y-103260000D03*
X114770000Y-104280000D03*
D31*
X149609411Y-117019411D03*
X148930589Y-116340589D03*
D23*
X141000000Y-104430000D03*
X141000000Y-105450000D03*
X139850000Y-104430001D03*
X139850000Y-105450001D03*
D25*
X163070000Y-100999998D03*
X163070000Y-101959998D03*
D23*
X191270000Y-103510000D03*
X191270000Y-104530000D03*
M02*
