G04 #@! TF.GenerationSoftware,KiCad,Pcbnew,(6.0.8)*
G04 #@! TF.CreationDate,2023-07-25T16:12:09-04:00*
G04 #@! TF.ProjectId,Hybrid USB Hub (USB3.0),48796272-6964-4205-9553-422048756220,v1.0*
G04 #@! TF.SameCoordinates,Original*
G04 #@! TF.FileFunction,Paste,Bot*
G04 #@! TF.FilePolarity,Positive*
%FSLAX46Y46*%
G04 Gerber Fmt 4.6, Leading zero omitted, Abs format (unit mm)*
G04 Created by KiCad (PCBNEW (6.0.8)) date 2023-07-25 16:12:09*
%MOMM*%
%LPD*%
G01*
G04 APERTURE LIST*
G04 Aperture macros list*
%AMRoundRect*
0 Rectangle with rounded corners*
0 $1 Rounding radius*
0 $2 $3 $4 $5 $6 $7 $8 $9 X,Y pos of 4 corners*
0 Add a 4 corners polygon primitive as box body*
4,1,4,$2,$3,$4,$5,$6,$7,$8,$9,$2,$3,0*
0 Add four circle primitives for the rounded corners*
1,1,$1+$1,$2,$3*
1,1,$1+$1,$4,$5*
1,1,$1+$1,$6,$7*
1,1,$1+$1,$8,$9*
0 Add four rect primitives between the rounded corners*
20,1,$1+$1,$2,$3,$4,$5,0*
20,1,$1+$1,$4,$5,$6,$7,0*
20,1,$1+$1,$6,$7,$8,$9,0*
20,1,$1+$1,$8,$9,$2,$3,0*%
G04 Aperture macros list end*
%ADD10RoundRect,0.140000X0.021213X-0.219203X0.219203X-0.021213X-0.021213X0.219203X-0.219203X0.021213X0*%
%ADD11RoundRect,0.135000X-0.185000X0.135000X-0.185000X-0.135000X0.185000X-0.135000X0.185000X0.135000X0*%
%ADD12RoundRect,0.135000X0.185000X-0.135000X0.185000X0.135000X-0.185000X0.135000X-0.185000X-0.135000X0*%
%ADD13RoundRect,0.140000X-0.170000X0.140000X-0.170000X-0.140000X0.170000X-0.140000X0.170000X0.140000X0*%
%ADD14R,1.659999X1.659999*%
%ADD15O,0.599999X0.240000*%
%ADD16O,0.240000X0.599999*%
%ADD17RoundRect,0.140000X-0.219203X-0.021213X-0.021213X-0.219203X0.219203X0.021213X0.021213X0.219203X0*%
%ADD18RoundRect,0.140000X0.219203X0.021213X0.021213X0.219203X-0.219203X-0.021213X-0.021213X-0.219203X0*%
%ADD19RoundRect,0.140000X-0.021213X0.219203X-0.219203X0.021213X0.021213X-0.219203X0.219203X-0.021213X0*%
G04 APERTURE END LIST*
D10*
X150270000Y-108980000D03*
X150948822Y-108301178D03*
D11*
X164420000Y-98170000D03*
X164420000Y-99190000D03*
D12*
X191670000Y-96630000D03*
X191670000Y-95610000D03*
D13*
X138670000Y-101820000D03*
X138670000Y-102780000D03*
D10*
X141016178Y-113333822D03*
X141695000Y-112655000D03*
X148430589Y-107219411D03*
X149109411Y-106540589D03*
D11*
X165070000Y-103310000D03*
X165070000Y-104330000D03*
D12*
X143420000Y-97880000D03*
X143420000Y-96860000D03*
D14*
X141370001Y-101030001D03*
D15*
X139970001Y-101780002D03*
X139970001Y-101280003D03*
X139970001Y-100780001D03*
X139970001Y-100280003D03*
D16*
X140620003Y-99630001D03*
X141120001Y-99630001D03*
X141620003Y-99630001D03*
X142120002Y-99630001D03*
D15*
X142770001Y-100280003D03*
X142770001Y-100780001D03*
X142770001Y-101280003D03*
X142770001Y-101780002D03*
D16*
X142120002Y-102430001D03*
X141620003Y-102430001D03*
X141120001Y-102430001D03*
X140620003Y-102430001D03*
D12*
X167470000Y-96789998D03*
X167470000Y-95769998D03*
D17*
X150330589Y-114840589D03*
X151009411Y-115519411D03*
D11*
X190070000Y-103510000D03*
X190070000Y-104530000D03*
D14*
X191870000Y-100130000D03*
D15*
X190470000Y-100880001D03*
X190470000Y-100380002D03*
X190470000Y-99880000D03*
X190470000Y-99380002D03*
D16*
X191120002Y-98730000D03*
X191620000Y-98730000D03*
X192120002Y-98730000D03*
X192620001Y-98730000D03*
D15*
X193270000Y-99380002D03*
X193270000Y-99880000D03*
X193270000Y-100380002D03*
X193270000Y-100880001D03*
D16*
X192620001Y-101530000D03*
X192120002Y-101530000D03*
X191620000Y-101530000D03*
X191120002Y-101530000D03*
D12*
X142320000Y-97880000D03*
X142320000Y-96860000D03*
D13*
X143770000Y-102585000D03*
X143770000Y-103545000D03*
D18*
X145109411Y-107519411D03*
X144430589Y-106840589D03*
D10*
X151230589Y-110019411D03*
X151909411Y-109340589D03*
D13*
X194570000Y-100900000D03*
X194570000Y-101860000D03*
D11*
X113720000Y-98270000D03*
X113720000Y-99290000D03*
D13*
X187970000Y-100970000D03*
X187970000Y-101930000D03*
D14*
X166870000Y-99930000D03*
D15*
X165470000Y-100680001D03*
X165470000Y-100180002D03*
X165470000Y-99680000D03*
X165470000Y-99180002D03*
D16*
X166120002Y-98530000D03*
X166620000Y-98530000D03*
X167120002Y-98530000D03*
X167620001Y-98530000D03*
D15*
X168270000Y-99180002D03*
X168270000Y-99680000D03*
X168270000Y-100180002D03*
X168270000Y-100680001D03*
D16*
X167620001Y-101330000D03*
X167120002Y-101330000D03*
X166620000Y-101330000D03*
X166120002Y-101330000D03*
D13*
X169270000Y-101500000D03*
X169270000Y-102460000D03*
X137420000Y-101820000D03*
X137420000Y-102780000D03*
D18*
X142709411Y-110019411D03*
X142030589Y-109340589D03*
D13*
X189170000Y-100970000D03*
X189170000Y-101930000D03*
D12*
X192870000Y-96630000D03*
X192870000Y-95610000D03*
D11*
X189470000Y-98370000D03*
X189470000Y-99390000D03*
D12*
X117420000Y-96870001D03*
X117420000Y-95850001D03*
D18*
X141609411Y-111019411D03*
X140930589Y-110340589D03*
D12*
X116320000Y-96870001D03*
X116320000Y-95850001D03*
D13*
X164270000Y-100999998D03*
X164270000Y-101959998D03*
D14*
X116270000Y-100079998D03*
D15*
X114870000Y-100829999D03*
X114870000Y-100330000D03*
X114870000Y-99829998D03*
X114870000Y-99330000D03*
D16*
X115520002Y-98679998D03*
X116020000Y-98679998D03*
X116520002Y-98679998D03*
X117020001Y-98679998D03*
D15*
X117670000Y-99330000D03*
X117670000Y-99829998D03*
X117670000Y-100330000D03*
X117670000Y-100829999D03*
D16*
X117020001Y-101479998D03*
X116520002Y-101479998D03*
X116020000Y-101479998D03*
X115520002Y-101479998D03*
D17*
X148230589Y-117040589D03*
X148909411Y-117719411D03*
D18*
X153219411Y-113409411D03*
X152540589Y-112730589D03*
D12*
X194070000Y-96630000D03*
X194070000Y-95610000D03*
D19*
X148009411Y-105440589D03*
X147330589Y-106119411D03*
D11*
X138870000Y-99220000D03*
X138870000Y-100240000D03*
X115970000Y-103260000D03*
X115970000Y-104280000D03*
D12*
X168670000Y-96789998D03*
X168670000Y-95769998D03*
X118520000Y-96880000D03*
X118520000Y-95860000D03*
D11*
X166270000Y-103310000D03*
X166270000Y-104330000D03*
D13*
X113470000Y-100850000D03*
X113470000Y-101810000D03*
D12*
X166270000Y-96789998D03*
X166270000Y-95769998D03*
X141220000Y-97880001D03*
X141220000Y-96860001D03*
D13*
X119120000Y-100850000D03*
X119120000Y-101810000D03*
X112270000Y-100850000D03*
X112270000Y-101810000D03*
D11*
X114770000Y-103260000D03*
X114770000Y-104280000D03*
D18*
X149609411Y-117019411D03*
X148930589Y-116340589D03*
D11*
X141000000Y-104430000D03*
X141000000Y-105450000D03*
X139850000Y-104430001D03*
X139850000Y-105450001D03*
D13*
X163070000Y-100999998D03*
X163070000Y-101959998D03*
D11*
X191270000Y-103510000D03*
X191270000Y-104530000D03*
M02*
