M48
; DRILL file {KiCad (6.0.8)} date Tue Jul 25 16:12:30 2023
; FORMAT={-:-/ absolute / metric / decimal}
; #@! TF.CreationDate,2023-07-25T16:12:30-04:00
; #@! TF.GenerationSoftware,Kicad,Pcbnew,(6.0.8)
; #@! TF.FileFunction,Plated,1,4,PTH
FMAT,2
METRIC
; #@! TA.AperFunction,Plated,PTH,ViaDrill
T1C0.300
; #@! TA.AperFunction,Plated,PTH,ComponentDrill
T2C0.300
; #@! TA.AperFunction,Plated,PTH,ViaDrill
T3C0.400
; #@! TA.AperFunction,Plated,PTH,ComponentDrill
T4C0.600
; #@! TA.AperFunction,Plated,PTH,ComponentDrill
T5C0.700
; #@! TA.AperFunction,Plated,PTH,ComponentDrill
T6C0.800
; #@! TA.AperFunction,Plated,PTH,ComponentDrill
T7C1.000
%
G90
G05
T1
X107.87Y-93.08
X109.687Y-92.448
X110.253Y-93.013
X111.1Y-92.9
X111.352Y-99.498
X111.5Y-98.0
X111.669Y-116.17
X111.669Y-119.87
X111.988Y-98.862
X112.27Y-102.58
X112.569Y-122.72
X112.82Y-99.08
X113.47Y-102.58
X114.77Y-105.08
X115.17Y-97.73
X115.97Y-105.08
X116.669Y-102.43
X117.869Y-116.02
X117.944Y-112.875
X118.17Y-98.68
X118.826Y-120.095
X119.97Y-100.83
X120.0Y-103.66
X120.669Y-117.47
X121.069Y-120.27
X121.17Y-99.63
X121.17Y-100.53
X121.9Y-101.2
X122.0Y-99.1
X126.89Y-111.8
X127.52Y-111.23
X131.07Y-117.23
X132.87Y-93.08
X134.827Y-92.594
X135.15Y-99.9
X135.371Y-112.181
X135.392Y-93.159
X135.8Y-93.9
X136.087Y-99.763
X136.32Y-95.38
X136.52Y-96.23
X136.55Y-97.85
X136.653Y-99.197
X136.82Y-104.58
X137.27Y-113.48
X137.37Y-98.53
X137.42Y-103.58
X138.58Y-117.81
X138.59Y-104.822
X138.62Y-84.98
X138.67Y-103.58
X139.245Y-118.605
X139.87Y-110.396
X139.87Y-122.98
X140.095Y-119.255
X140.12Y-113.705
X140.27Y-98.98
X140.491Y-115.351
X141.695Y-120.855
X141.82Y-104.63
X142.17Y-111.68
X142.27Y-114.955
X143.27Y-110.58
X143.77Y-104.33
X143.85Y-106.255
X144.42Y-101.78
X144.9Y-103.6
X145.12Y-99.33
X145.47Y-102.98
X145.67Y-108.18
X146.27Y-102.98
X146.9Y-103.6
X147.67Y-116.38
X147.87Y-120.28
X147.883Y-107.767
X148.645Y-104.955
X148.883Y-118.78
X149.258Y-109.142
X149.553Y-119.255
X149.62Y-123.98
X149.75Y-105.89
X149.77Y-114.28
X150.72Y-123.63
X150.933Y-110.817
X151.57Y-107.68
X152.5Y-108.74
X154.07Y-116.78
X154.28Y-113.84
X154.49Y-112.19
X154.82Y-120.313
X155.0Y-111.5
X155.45Y-115.392
X157.97Y-93.28
X159.35Y-118.542
X159.802Y-92.582
X160.368Y-93.148
X161.2Y-92.7
X161.215Y-96.575
X161.5Y-99.3
X161.72Y-124.58
X162.302Y-99.548
X162.938Y-98.912
X163.27Y-97.93
X163.62Y-84.98
X165.671Y-97.73
X167.133Y-102.529
X169.07Y-98.38
X170.239Y-102.385
X172.1Y-102.3
X181.9Y-112.4
X182.82Y-93.48
X182.852Y-112.198
X182.92Y-108.88
X183.4Y-110.7
X183.488Y-111.562
X184.704Y-92.875
X185.22Y-103.313
X185.269Y-93.441
X186.0Y-93.1
X186.12Y-96.18
X186.5Y-99.3
X186.57Y-96.93
X186.77Y-112.18
X187.07Y-101.93
X187.301Y-99.676
X187.866Y-99.111
X188.02Y-98.28
X188.52Y-84.98
X188.62Y-102.714
X190.07Y-105.43
X190.72Y-98.029
X191.27Y-105.38
X192.021Y-102.78
X194.17Y-99.03
X194.57Y-102.68
X195.57Y-100.88
X195.7Y-102.3
X196.32Y-101.73
X197.12Y-101.73
X197.8Y-102.3
T2
X115.77Y-99.58
X115.77Y-100.58
X116.77Y-99.58
X116.77Y-100.58
X140.87Y-100.53
X140.87Y-101.53
X141.87Y-100.53
X141.87Y-101.53
X143.136Y-111.858
X144.109Y-110.885
X144.109Y-112.83
X145.081Y-109.913
X145.081Y-111.858
X145.081Y-113.802
X146.053Y-108.941
X146.053Y-110.885
X146.053Y-112.83
X146.053Y-114.775
X147.025Y-107.969
X147.025Y-109.913
X147.025Y-111.858
X147.025Y-113.802
X147.025Y-115.747
X147.998Y-108.941
X147.998Y-110.885
X147.998Y-112.83
X147.998Y-114.775
X148.97Y-109.913
X148.97Y-111.858
X148.97Y-113.802
X149.942Y-110.885
X149.942Y-112.83
X150.915Y-111.858
X166.37Y-99.43
X166.37Y-100.43
X167.37Y-99.43
X167.37Y-100.43
X191.37Y-99.63
X191.37Y-100.63
X192.37Y-99.63
X192.37Y-100.63
T3
X89.0Y-87.0
X89.0Y-93.0
X89.0Y-99.0
X89.0Y-105.0
X89.0Y-111.0
X89.0Y-117.0
X91.0Y-90.0
X91.0Y-96.0
X91.0Y-102.0
X91.0Y-108.0
X91.0Y-114.0
X93.0Y-87.0
X93.0Y-93.0
X93.0Y-99.0
X93.0Y-105.0
X93.0Y-111.0
X93.0Y-117.0
X95.0Y-108.0
X95.0Y-114.0
X96.87Y-80.48
X98.87Y-83.48
X100.87Y-97.48
X100.87Y-103.48
X102.87Y-94.48
X102.87Y-100.48
X104.87Y-97.48
X104.87Y-103.48
X113.62Y-84.98
X118.87Y-79.48
X120.87Y-82.23
X122.87Y-79.48
X125.37Y-98.48
X127.37Y-101.48
X129.37Y-98.48
X129.87Y-120.48
X143.87Y-79.48
X145.87Y-82.23
X147.87Y-79.48
X161.62Y-112.23
X163.07Y-103.08
X163.62Y-115.23
X164.02Y-103.08
X165.62Y-112.23
X168.87Y-79.48
X168.87Y-125.48
X169.27Y-103.33
X169.67Y-100.697
X170.52Y-101.53
X170.87Y-82.23
X170.87Y-122.48
X171.42Y-101.53
X172.87Y-79.48
X172.87Y-125.48
X174.87Y-122.48
X176.87Y-125.48
X177.87Y-119.13
X192.87Y-83.48
X194.87Y-80.48
X194.87Y-110.48
X194.87Y-116.48
X196.87Y-83.48
X196.87Y-107.48
X196.87Y-113.48
X197.0Y-120.0
X198.87Y-86.48
X198.87Y-104.48
X198.87Y-110.48
X198.87Y-116.48
X200.87Y-89.48
X200.87Y-95.48
X200.87Y-101.48
X200.87Y-107.48
X200.87Y-113.48
X202.87Y-86.48
X202.87Y-92.48
X202.87Y-98.48
X202.87Y-104.48
X202.87Y-110.48
X202.87Y-116.48
X204.87Y-89.48
X204.87Y-95.48
X204.87Y-101.48
X204.87Y-107.48
X204.87Y-113.48
T5
X104.37Y-90.63
X104.87Y-89.13
X106.37Y-90.63
X107.37Y-89.13
X108.37Y-90.63
X109.37Y-89.13
X110.37Y-90.63
X111.87Y-89.13
X112.37Y-90.63
X129.37Y-90.63
X129.87Y-89.13
X131.37Y-90.63
X132.37Y-89.13
X133.37Y-90.63
X134.37Y-89.13
X135.37Y-90.63
X136.87Y-89.13
X137.37Y-90.63
X154.37Y-90.63
X154.87Y-89.13
X156.37Y-90.63
X157.37Y-89.13
X158.37Y-90.63
X159.37Y-89.13
X160.37Y-90.63
X161.87Y-89.13
X162.37Y-90.63
X179.37Y-90.63
X179.87Y-89.13
X181.37Y-90.63
X182.22Y-114.33
X182.37Y-89.13
X182.72Y-115.83
X183.37Y-90.63
X184.22Y-114.33
X184.37Y-89.13
X185.22Y-115.83
X185.37Y-90.63
X186.22Y-114.33
X186.87Y-89.13
X187.22Y-115.83
X187.37Y-90.63
X188.22Y-114.33
X189.72Y-115.83
X190.22Y-114.33
T6
X117.92Y-92.48
X120.42Y-92.48
X142.865Y-92.13
X145.365Y-92.13
X167.865Y-92.13
X170.365Y-92.13
X192.865Y-92.13
X195.365Y-92.13
T4
X101.97Y-81.78G85X101.97Y-80.98
G05
X101.97Y-90.43G85X101.97Y-89.33
G05
X114.77Y-81.78G85X114.77Y-80.98
G05
X114.77Y-90.43G85X114.77Y-89.33
G05
X126.97Y-81.78G85X126.97Y-80.98
G05
X126.97Y-90.43G85X126.97Y-89.33
G05
X139.77Y-81.78G85X139.77Y-80.98
G05
X139.77Y-90.43G85X139.77Y-89.33
G05
X151.97Y-81.78G85X151.97Y-80.98
G05
X151.97Y-90.43G85X151.97Y-89.33
G05
X164.77Y-81.78G85X164.77Y-80.98
G05
X164.77Y-90.43G85X164.77Y-89.33
G05
X176.97Y-81.78G85X176.97Y-80.98
G05
X176.97Y-90.43G85X176.97Y-89.33
G05
X179.82Y-114.53G85X179.82Y-115.63
G05
X179.82Y-123.18G85X179.82Y-123.98
G05
X189.77Y-81.78G85X189.77Y-80.98
G05
X189.77Y-90.43G85X189.77Y-89.33
G05
X192.62Y-114.53G85X192.62Y-115.63
G05
X192.62Y-123.18G85X192.62Y-123.98
G05
T7
X98.495Y-121.95G85X98.495Y-123.45
G05
X101.995Y-115.7G85X103.995Y-115.7
G05
X102.345Y-121.7G85X103.645Y-121.7
G05
X107.495Y-121.95G85X107.495Y-123.45
G05
T0
M30
