G04 #@! TF.GenerationSoftware,KiCad,Pcbnew,(6.0.8)*
G04 #@! TF.CreationDate,2023-07-25T16:12:09-04:00*
G04 #@! TF.ProjectId,Hybrid USB Hub (USB3.0),48796272-6964-4205-9553-422048756220,v1.0*
G04 #@! TF.SameCoordinates,Original*
G04 #@! TF.FileFunction,Soldermask,Bot*
G04 #@! TF.FilePolarity,Negative*
%FSLAX46Y46*%
G04 Gerber Fmt 4.6, Leading zero omitted, Abs format (unit mm)*
G04 Created by KiCad (PCBNEW (6.0.8)) date 2023-07-25 16:12:09*
%MOMM*%
%LPD*%
G01*
G04 APERTURE LIST*
G04 Aperture macros list*
%AMRoundRect*
0 Rectangle with rounded corners*
0 $1 Rounding radius*
0 $2 $3 $4 $5 $6 $7 $8 $9 X,Y pos of 4 corners*
0 Add a 4 corners polygon primitive as box body*
4,1,4,$2,$3,$4,$5,$6,$7,$8,$9,$2,$3,0*
0 Add four circle primitives for the rounded corners*
1,1,$1+$1,$2,$3*
1,1,$1+$1,$4,$5*
1,1,$1+$1,$6,$7*
1,1,$1+$1,$8,$9*
0 Add four rect primitives between the rounded corners*
20,1,$1+$1,$2,$3,$4,$5,0*
20,1,$1+$1,$4,$5,$6,$7,0*
20,1,$1+$1,$6,$7,$8,$9,0*
20,1,$1+$1,$8,$9,$2,$3,0*%
G04 Aperture macros list end*
%ADD10C,1.200000*%
%ADD11O,1.200000X2.100000*%
%ADD12O,1.200000X2.400000*%
%ADD13R,1.600000X1.600000*%
%ADD14C,1.600000*%
%ADD15C,3.200000*%
%ADD16R,4.000000X2.000000*%
%ADD17O,3.300000X2.000000*%
%ADD18O,2.000000X3.500000*%
%ADD19RoundRect,0.140000X0.021213X-0.219203X0.219203X-0.021213X-0.021213X0.219203X-0.219203X0.021213X0*%
%ADD20RoundRect,0.135000X-0.185000X0.135000X-0.185000X-0.135000X0.185000X-0.135000X0.185000X0.135000X0*%
%ADD21RoundRect,0.135000X0.185000X-0.135000X0.185000X0.135000X-0.185000X0.135000X-0.185000X-0.135000X0*%
%ADD22RoundRect,0.140000X-0.170000X0.140000X-0.170000X-0.140000X0.170000X-0.140000X0.170000X0.140000X0*%
%ADD23C,0.600000*%
%ADD24R,1.659999X1.659999*%
%ADD25O,0.599999X0.240000*%
%ADD26O,0.240000X0.599999*%
%ADD27RoundRect,0.140000X-0.219203X-0.021213X-0.021213X-0.219203X0.219203X0.021213X0.021213X0.219203X0*%
%ADD28RoundRect,0.140000X0.219203X0.021213X0.021213X0.219203X-0.219203X-0.021213X-0.021213X-0.219203X0*%
%ADD29RoundRect,0.140000X-0.021213X0.219203X-0.219203X0.021213X0.021213X-0.219203X0.219203X-0.021213X0*%
G04 APERTURE END LIST*
D10*
X136870000Y-89130000D03*
X134370000Y-89130000D03*
X132370000Y-89130000D03*
X129870000Y-89130000D03*
X129370000Y-90630000D03*
X131370000Y-90630000D03*
X133370000Y-90630000D03*
X135370000Y-90630000D03*
X137370000Y-90630000D03*
D11*
X126970000Y-81380000D03*
D12*
X126970000Y-89880000D03*
D11*
X139770000Y-81380000D03*
D12*
X139770000Y-89880000D03*
D13*
X167864888Y-92130000D03*
D14*
X170364888Y-92130000D03*
D13*
X142864888Y-92130000D03*
D14*
X145364888Y-92130000D03*
D10*
X161870000Y-89130000D03*
X159370000Y-89130000D03*
X157370000Y-89130000D03*
X154870000Y-89130000D03*
X154370000Y-90630000D03*
X156370000Y-90630000D03*
X158370000Y-90630000D03*
X160370000Y-90630000D03*
X162370000Y-90630000D03*
D12*
X164770000Y-89880000D03*
X151970000Y-89880000D03*
D11*
X151970000Y-81380000D03*
X164770000Y-81380000D03*
D10*
X111870000Y-89130000D03*
X109370000Y-89130000D03*
X107370000Y-89130000D03*
X104870000Y-89130000D03*
X104370000Y-90630000D03*
X106370000Y-90630000D03*
X108370000Y-90630000D03*
X110370000Y-90630000D03*
X112370000Y-90630000D03*
D12*
X114770000Y-89880000D03*
D11*
X101970000Y-81380000D03*
D12*
X101970000Y-89880000D03*
D11*
X114770000Y-81380000D03*
D15*
X202000000Y-82200000D03*
D14*
X102995000Y-124700000D03*
D16*
X102995000Y-115700000D03*
D17*
X102995000Y-121700000D03*
D18*
X107495000Y-122700000D03*
X98495000Y-122700000D03*
D10*
X182720000Y-115830000D03*
X185220000Y-115830000D03*
X187220000Y-115830000D03*
X189720000Y-115830000D03*
X190220000Y-114330000D03*
X188220000Y-114330000D03*
X186220000Y-114330000D03*
X184220000Y-114330000D03*
X182220000Y-114330000D03*
D11*
X179820000Y-123580000D03*
D12*
X179820000Y-115080000D03*
D11*
X192620000Y-123580000D03*
D12*
X192620000Y-115080000D03*
D13*
X117920000Y-92480000D03*
D14*
X120420000Y-92480000D03*
D15*
X92000000Y-82100000D03*
D10*
X186870000Y-89130000D03*
X184370000Y-89130000D03*
X182370000Y-89130000D03*
X179870000Y-89130000D03*
X179370000Y-90630000D03*
X181370000Y-90630000D03*
X183370000Y-90630000D03*
X185370000Y-90630000D03*
X187370000Y-90630000D03*
D11*
X176970000Y-81380000D03*
D12*
X189770000Y-89880000D03*
X176970000Y-89880000D03*
D11*
X189770000Y-81380000D03*
D15*
X92000000Y-122800000D03*
D13*
X192864888Y-92130000D03*
D14*
X195364888Y-92130000D03*
D15*
X202000000Y-122800000D03*
D19*
X150270000Y-108980000D03*
X150948822Y-108301178D03*
D20*
X164420000Y-98170000D03*
X164420000Y-99190000D03*
D21*
X191670000Y-96630000D03*
X191670000Y-95610000D03*
D22*
X138670000Y-101820000D03*
X138670000Y-102780000D03*
D19*
X141016178Y-113333822D03*
X141695000Y-112655000D03*
X148430589Y-107219411D03*
X149109411Y-106540589D03*
D20*
X165070000Y-103310000D03*
X165070000Y-104330000D03*
D21*
X143420000Y-97880000D03*
X143420000Y-96860000D03*
D23*
X141870000Y-101530000D03*
D24*
X141370001Y-101030001D03*
D23*
X140869999Y-101530000D03*
X141870000Y-100530002D03*
X140869999Y-100530002D03*
D25*
X139970001Y-101780002D03*
X139970001Y-101280003D03*
X139970001Y-100780001D03*
X139970001Y-100280003D03*
D26*
X140620003Y-99630001D03*
X141120001Y-99630001D03*
X141620003Y-99630001D03*
X142120002Y-99630001D03*
D25*
X142770001Y-100280003D03*
X142770001Y-100780001D03*
X142770001Y-101280003D03*
X142770001Y-101780002D03*
D26*
X142120002Y-102430001D03*
X141620003Y-102430001D03*
X141120001Y-102430001D03*
X140620003Y-102430001D03*
D21*
X167470000Y-96789998D03*
X167470000Y-95769998D03*
D27*
X150330589Y-114840589D03*
X151009411Y-115519411D03*
D20*
X190070000Y-103510000D03*
X190070000Y-104530000D03*
D23*
X191369998Y-99630001D03*
D24*
X191870000Y-100130000D03*
D23*
X191369998Y-100629999D03*
X192369999Y-99630001D03*
X192369999Y-100629999D03*
D25*
X190470000Y-100880001D03*
X190470000Y-100380002D03*
X190470000Y-99880000D03*
X190470000Y-99380002D03*
D26*
X191120002Y-98730000D03*
X191620000Y-98730000D03*
X192120002Y-98730000D03*
X192620001Y-98730000D03*
D25*
X193270000Y-99380002D03*
X193270000Y-99880000D03*
X193270000Y-100380002D03*
X193270000Y-100880001D03*
D26*
X192620001Y-101530000D03*
X192120002Y-101530000D03*
X191620000Y-101530000D03*
X191120002Y-101530000D03*
D21*
X142320000Y-97880000D03*
X142320000Y-96860000D03*
D22*
X143770000Y-102585000D03*
X143770000Y-103545000D03*
D28*
X145109411Y-107519411D03*
X144430589Y-106840589D03*
D19*
X151230589Y-110019411D03*
X151909411Y-109340589D03*
D22*
X194570000Y-100900000D03*
X194570000Y-101860000D03*
D20*
X113720000Y-98270000D03*
X113720000Y-99290000D03*
D22*
X187970000Y-100970000D03*
X187970000Y-101930000D03*
D23*
X167369999Y-99430001D03*
X166369998Y-100429999D03*
X167369999Y-100429999D03*
X166369998Y-99430001D03*
D24*
X166870000Y-99930000D03*
D25*
X165470000Y-100680001D03*
X165470000Y-100180002D03*
X165470000Y-99680000D03*
X165470000Y-99180002D03*
D26*
X166120002Y-98530000D03*
X166620000Y-98530000D03*
X167120002Y-98530000D03*
X167620001Y-98530000D03*
D25*
X168270000Y-99180002D03*
X168270000Y-99680000D03*
X168270000Y-100180002D03*
X168270000Y-100680001D03*
D26*
X167620001Y-101330000D03*
X167120002Y-101330000D03*
X166620000Y-101330000D03*
X166120002Y-101330000D03*
D22*
X169270000Y-101500000D03*
X169270000Y-102460000D03*
X137420000Y-101820000D03*
X137420000Y-102780000D03*
D28*
X142709411Y-110019411D03*
X142030589Y-109340589D03*
D22*
X189170000Y-100970000D03*
X189170000Y-101930000D03*
D21*
X192870000Y-96630000D03*
X192870000Y-95610000D03*
D20*
X189470000Y-98370000D03*
X189470000Y-99390000D03*
D21*
X117420000Y-96870001D03*
X117420000Y-95850001D03*
D28*
X141609411Y-111019411D03*
X140930589Y-110340589D03*
D21*
X116320000Y-96870001D03*
X116320000Y-95850001D03*
D22*
X164270000Y-100999998D03*
X164270000Y-101959998D03*
D24*
X116270000Y-100079998D03*
D23*
X115769998Y-100579997D03*
X115769998Y-99579999D03*
X116769999Y-100579997D03*
X116769999Y-99579999D03*
D25*
X114870000Y-100829999D03*
X114870000Y-100330000D03*
X114870000Y-99829998D03*
X114870000Y-99330000D03*
D26*
X115520002Y-98679998D03*
X116020000Y-98679998D03*
X116520002Y-98679998D03*
X117020001Y-98679998D03*
D25*
X117670000Y-99330000D03*
X117670000Y-99829998D03*
X117670000Y-100330000D03*
X117670000Y-100829999D03*
D26*
X117020001Y-101479998D03*
X116520002Y-101479998D03*
X116020000Y-101479998D03*
X115520002Y-101479998D03*
D27*
X148230589Y-117040589D03*
X148909411Y-117719411D03*
D28*
X153219411Y-113409411D03*
X152540589Y-112730589D03*
D21*
X194070000Y-96630000D03*
X194070000Y-95610000D03*
D29*
X148009411Y-105440589D03*
X147330589Y-106119411D03*
D20*
X138870000Y-99220000D03*
X138870000Y-100240000D03*
X115970000Y-103260000D03*
X115970000Y-104280000D03*
D21*
X168670000Y-96789998D03*
X168670000Y-95769998D03*
X118520000Y-96880000D03*
X118520000Y-95860000D03*
D20*
X166270000Y-103310000D03*
X166270000Y-104330000D03*
D22*
X113470000Y-100850000D03*
X113470000Y-101810000D03*
D21*
X166270000Y-96789998D03*
X166270000Y-95769998D03*
X141220000Y-97880001D03*
X141220000Y-96860001D03*
D22*
X119120000Y-100850000D03*
X119120000Y-101810000D03*
X112270000Y-100850000D03*
X112270000Y-101810000D03*
D20*
X114770000Y-103260000D03*
X114770000Y-104280000D03*
D28*
X149609411Y-117019411D03*
X148930589Y-116340589D03*
D20*
X141000000Y-104430000D03*
X141000000Y-105450000D03*
X139850000Y-104430001D03*
X139850000Y-105450001D03*
D22*
X163070000Y-100999998D03*
X163070000Y-101959998D03*
D20*
X191270000Y-103510000D03*
X191270000Y-104530000D03*
M02*
