G04 #@! TF.GenerationSoftware,KiCad,Pcbnew,(6.0.8)*
G04 #@! TF.CreationDate,2023-07-25T16:12:09-04:00*
G04 #@! TF.ProjectId,Hybrid USB Hub (USB3.0),48796272-6964-4205-9553-422048756220,v1.0*
G04 #@! TF.SameCoordinates,Original*
G04 #@! TF.FileFunction,Legend,Top*
G04 #@! TF.FilePolarity,Positive*
%FSLAX46Y46*%
G04 Gerber Fmt 4.6, Leading zero omitted, Abs format (unit mm)*
G04 Created by KiCad (PCBNEW (6.0.8)) date 2023-07-25 16:12:09*
%MOMM*%
%LPD*%
G01*
G04 APERTURE LIST*
G04 Aperture macros list*
%AMRoundRect*
0 Rectangle with rounded corners*
0 $1 Rounding radius*
0 $2 $3 $4 $5 $6 $7 $8 $9 X,Y pos of 4 corners*
0 Add a 4 corners polygon primitive as box body*
4,1,4,$2,$3,$4,$5,$6,$7,$8,$9,$2,$3,0*
0 Add four circle primitives for the rounded corners*
1,1,$1+$1,$2,$3*
1,1,$1+$1,$4,$5*
1,1,$1+$1,$6,$7*
1,1,$1+$1,$8,$9*
0 Add four rect primitives between the rounded corners*
20,1,$1+$1,$2,$3,$4,$5,0*
20,1,$1+$1,$4,$5,$6,$7,0*
20,1,$1+$1,$6,$7,$8,$9,0*
20,1,$1+$1,$8,$9,$2,$3,0*%
%AMRotRect*
0 Rectangle, with rotation*
0 The origin of the aperture is its center*
0 $1 length*
0 $2 width*
0 $3 Rotation angle, in degrees counterclockwise*
0 Add horizontal line*
21,1,$1,$2,0,0,$3*%
G04 Aperture macros list end*
%ADD10C,0.150000*%
%ADD11C,0.300000*%
%ADD12C,0.120000*%
%ADD13C,0.152400*%
%ADD14RoundRect,0.140000X-0.170000X0.140000X-0.170000X-0.140000X0.170000X-0.140000X0.170000X0.140000X0*%
%ADD15RoundRect,0.135000X-0.035355X0.226274X-0.226274X0.035355X0.035355X-0.226274X0.226274X-0.035355X0*%
%ADD16RoundRect,0.140000X0.170000X-0.140000X0.170000X0.140000X-0.170000X0.140000X-0.170000X-0.140000X0*%
%ADD17C,1.200000*%
%ADD18O,1.200000X2.100000*%
%ADD19O,1.200000X2.400000*%
%ADD20R,1.600000X1.600000*%
%ADD21C,1.600000*%
%ADD22RoundRect,0.135000X0.035355X-0.226274X0.226274X-0.035355X-0.035355X0.226274X-0.226274X0.035355X0*%
%ADD23C,3.200000*%
%ADD24R,0.200000X0.499999*%
%ADD25RoundRect,0.150000X-0.512500X-0.150000X0.512500X-0.150000X0.512500X0.150000X-0.512500X0.150000X0*%
%ADD26RoundRect,0.150000X0.512500X0.150000X-0.512500X0.150000X-0.512500X-0.150000X0.512500X-0.150000X0*%
%ADD27RoundRect,0.147500X0.172500X-0.147500X0.172500X0.147500X-0.172500X0.147500X-0.172500X-0.147500X0*%
%ADD28RoundRect,0.062500X0.220971X0.309359X-0.309359X-0.220971X-0.220971X-0.309359X0.309359X0.220971X0*%
%ADD29RoundRect,0.062500X-0.220971X0.309359X-0.309359X0.220971X0.220971X-0.309359X0.309359X-0.220971X0*%
%ADD30RotRect,6.000000X6.000000X225.000000*%
%ADD31R,4.000000X2.000000*%
%ADD32O,3.300000X2.000000*%
%ADD33O,2.000000X3.500000*%
%ADD34RoundRect,0.140000X0.140000X0.170000X-0.140000X0.170000X-0.140000X-0.170000X0.140000X-0.170000X0*%
%ADD35RoundRect,0.140000X-0.021213X0.219203X-0.219203X0.021213X0.021213X-0.219203X0.219203X-0.021213X0*%
%ADD36RoundRect,0.135000X-0.185000X0.135000X-0.185000X-0.135000X0.185000X-0.135000X0.185000X0.135000X0*%
%ADD37RoundRect,0.225000X0.250000X-0.225000X0.250000X0.225000X-0.250000X0.225000X-0.250000X-0.225000X0*%
%ADD38R,1.400000X1.200000*%
%ADD39RoundRect,0.135000X-0.226274X-0.035355X-0.035355X-0.226274X0.226274X0.035355X0.035355X0.226274X0*%
%ADD40RoundRect,0.225000X-0.225000X-0.250000X0.225000X-0.250000X0.225000X0.250000X-0.225000X0.250000X0*%
%ADD41C,0.600000*%
G04 APERTURE END LIST*
D10*
X163254761Y-105947380D02*
X163254761Y-106756904D01*
X163302380Y-106852142D01*
X163350000Y-106899761D01*
X163445238Y-106947380D01*
X163635714Y-106947380D01*
X163730952Y-106899761D01*
X163778571Y-106852142D01*
X163826190Y-106756904D01*
X163826190Y-105947380D01*
X164254761Y-106899761D02*
X164397619Y-106947380D01*
X164635714Y-106947380D01*
X164730952Y-106899761D01*
X164778571Y-106852142D01*
X164826190Y-106756904D01*
X164826190Y-106661666D01*
X164778571Y-106566428D01*
X164730952Y-106518809D01*
X164635714Y-106471190D01*
X164445238Y-106423571D01*
X164350000Y-106375952D01*
X164302380Y-106328333D01*
X164254761Y-106233095D01*
X164254761Y-106137857D01*
X164302380Y-106042619D01*
X164350000Y-105995000D01*
X164445238Y-105947380D01*
X164683333Y-105947380D01*
X164826190Y-105995000D01*
X165588095Y-106423571D02*
X165730952Y-106471190D01*
X165778571Y-106518809D01*
X165826190Y-106614047D01*
X165826190Y-106756904D01*
X165778571Y-106852142D01*
X165730952Y-106899761D01*
X165635714Y-106947380D01*
X165254761Y-106947380D01*
X165254761Y-105947380D01*
X165588095Y-105947380D01*
X165683333Y-105995000D01*
X165730952Y-106042619D01*
X165778571Y-106137857D01*
X165778571Y-106233095D01*
X165730952Y-106328333D01*
X165683333Y-106375952D01*
X165588095Y-106423571D01*
X165254761Y-106423571D01*
X166921428Y-105947380D02*
X167540476Y-105947380D01*
X167207142Y-106328333D01*
X167350000Y-106328333D01*
X167445238Y-106375952D01*
X167492857Y-106423571D01*
X167540476Y-106518809D01*
X167540476Y-106756904D01*
X167492857Y-106852142D01*
X167445238Y-106899761D01*
X167350000Y-106947380D01*
X167064285Y-106947380D01*
X166969047Y-106899761D01*
X166921428Y-106852142D01*
X167969047Y-106852142D02*
X168016666Y-106899761D01*
X167969047Y-106947380D01*
X167921428Y-106899761D01*
X167969047Y-106852142D01*
X167969047Y-106947380D01*
X168635714Y-105947380D02*
X168730952Y-105947380D01*
X168826190Y-105995000D01*
X168873809Y-106042619D01*
X168921428Y-106137857D01*
X168969047Y-106328333D01*
X168969047Y-106566428D01*
X168921428Y-106756904D01*
X168873809Y-106852142D01*
X168826190Y-106899761D01*
X168730952Y-106947380D01*
X168635714Y-106947380D01*
X168540476Y-106899761D01*
X168492857Y-106852142D01*
X168445238Y-106756904D01*
X168397619Y-106566428D01*
X168397619Y-106328333D01*
X168445238Y-106137857D01*
X168492857Y-106042619D01*
X168540476Y-105995000D01*
X168635714Y-105947380D01*
X170159523Y-106947380D02*
X170159523Y-105947380D01*
X170159523Y-106423571D02*
X170730952Y-106423571D01*
X170730952Y-106947380D02*
X170730952Y-105947380D01*
X171635714Y-106280714D02*
X171635714Y-106947380D01*
X171207142Y-106280714D02*
X171207142Y-106804523D01*
X171254761Y-106899761D01*
X171350000Y-106947380D01*
X171492857Y-106947380D01*
X171588095Y-106899761D01*
X171635714Y-106852142D01*
X172111904Y-106947380D02*
X172111904Y-105947380D01*
X172111904Y-106328333D02*
X172207142Y-106280714D01*
X172397619Y-106280714D01*
X172492857Y-106328333D01*
X172540476Y-106375952D01*
X172588095Y-106471190D01*
X172588095Y-106756904D01*
X172540476Y-106852142D01*
X172492857Y-106899761D01*
X172397619Y-106947380D01*
X172207142Y-106947380D01*
X172111904Y-106899761D01*
X173778571Y-106566428D02*
X174540476Y-106566428D01*
X175683333Y-106280714D02*
X175921428Y-106947380D01*
X176159523Y-106280714D01*
X177064285Y-106947380D02*
X176492857Y-106947380D01*
X176778571Y-106947380D02*
X176778571Y-105947380D01*
X176683333Y-106090238D01*
X176588095Y-106185476D01*
X176492857Y-106233095D01*
X177492857Y-106852142D02*
X177540476Y-106899761D01*
X177492857Y-106947380D01*
X177445238Y-106899761D01*
X177492857Y-106852142D01*
X177492857Y-106947380D01*
X178159523Y-105947380D02*
X178254761Y-105947380D01*
X178350000Y-105995000D01*
X178397619Y-106042619D01*
X178445238Y-106137857D01*
X178492857Y-106328333D01*
X178492857Y-106566428D01*
X178445238Y-106756904D01*
X178397619Y-106852142D01*
X178350000Y-106899761D01*
X178254761Y-106947380D01*
X178159523Y-106947380D01*
X178064285Y-106899761D01*
X178016666Y-106852142D01*
X177969047Y-106756904D01*
X177921428Y-106566428D01*
X177921428Y-106328333D01*
X177969047Y-106137857D01*
X178016666Y-106042619D01*
X178064285Y-105995000D01*
X178159523Y-105947380D01*
X162992857Y-108557380D02*
X162992857Y-107557380D01*
X163230952Y-107557380D01*
X163373809Y-107605000D01*
X163469047Y-107700238D01*
X163516666Y-107795476D01*
X163564285Y-107985952D01*
X163564285Y-108128809D01*
X163516666Y-108319285D01*
X163469047Y-108414523D01*
X163373809Y-108509761D01*
X163230952Y-108557380D01*
X162992857Y-108557380D01*
X164373809Y-108509761D02*
X164278571Y-108557380D01*
X164088095Y-108557380D01*
X163992857Y-108509761D01*
X163945238Y-108414523D01*
X163945238Y-108033571D01*
X163992857Y-107938333D01*
X164088095Y-107890714D01*
X164278571Y-107890714D01*
X164373809Y-107938333D01*
X164421428Y-108033571D01*
X164421428Y-108128809D01*
X163945238Y-108224047D01*
X164802380Y-108509761D02*
X164897619Y-108557380D01*
X165088095Y-108557380D01*
X165183333Y-108509761D01*
X165230952Y-108414523D01*
X165230952Y-108366904D01*
X165183333Y-108271666D01*
X165088095Y-108224047D01*
X164945238Y-108224047D01*
X164850000Y-108176428D01*
X164802380Y-108081190D01*
X164802380Y-108033571D01*
X164850000Y-107938333D01*
X164945238Y-107890714D01*
X165088095Y-107890714D01*
X165183333Y-107938333D01*
X165659523Y-108557380D02*
X165659523Y-107890714D01*
X165659523Y-107557380D02*
X165611904Y-107605000D01*
X165659523Y-107652619D01*
X165707142Y-107605000D01*
X165659523Y-107557380D01*
X165659523Y-107652619D01*
X166564285Y-107890714D02*
X166564285Y-108700238D01*
X166516666Y-108795476D01*
X166469047Y-108843095D01*
X166373809Y-108890714D01*
X166230952Y-108890714D01*
X166135714Y-108843095D01*
X166564285Y-108509761D02*
X166469047Y-108557380D01*
X166278571Y-108557380D01*
X166183333Y-108509761D01*
X166135714Y-108462142D01*
X166088095Y-108366904D01*
X166088095Y-108081190D01*
X166135714Y-107985952D01*
X166183333Y-107938333D01*
X166278571Y-107890714D01*
X166469047Y-107890714D01*
X166564285Y-107938333D01*
X167040476Y-107890714D02*
X167040476Y-108557380D01*
X167040476Y-107985952D02*
X167088095Y-107938333D01*
X167183333Y-107890714D01*
X167326190Y-107890714D01*
X167421428Y-107938333D01*
X167469047Y-108033571D01*
X167469047Y-108557380D01*
X168326190Y-108509761D02*
X168230952Y-108557380D01*
X168040476Y-108557380D01*
X167945238Y-108509761D01*
X167897619Y-108414523D01*
X167897619Y-108033571D01*
X167945238Y-107938333D01*
X168040476Y-107890714D01*
X168230952Y-107890714D01*
X168326190Y-107938333D01*
X168373809Y-108033571D01*
X168373809Y-108128809D01*
X167897619Y-108224047D01*
X169230952Y-108557380D02*
X169230952Y-107557380D01*
X169230952Y-108509761D02*
X169135714Y-108557380D01*
X168945238Y-108557380D01*
X168850000Y-108509761D01*
X168802380Y-108462142D01*
X168754761Y-108366904D01*
X168754761Y-108081190D01*
X168802380Y-107985952D01*
X168850000Y-107938333D01*
X168945238Y-107890714D01*
X169135714Y-107890714D01*
X169230952Y-107938333D01*
X170802380Y-108033571D02*
X170945238Y-108081190D01*
X170992857Y-108128809D01*
X171040476Y-108224047D01*
X171040476Y-108366904D01*
X170992857Y-108462142D01*
X170945238Y-108509761D01*
X170850000Y-108557380D01*
X170469047Y-108557380D01*
X170469047Y-107557380D01*
X170802380Y-107557380D01*
X170897619Y-107605000D01*
X170945238Y-107652619D01*
X170992857Y-107747857D01*
X170992857Y-107843095D01*
X170945238Y-107938333D01*
X170897619Y-107985952D01*
X170802380Y-108033571D01*
X170469047Y-108033571D01*
X171373809Y-107890714D02*
X171611904Y-108557380D01*
X171850000Y-107890714D02*
X171611904Y-108557380D01*
X171516666Y-108795476D01*
X171469047Y-108843095D01*
X171373809Y-108890714D01*
X172230952Y-108462142D02*
X172278571Y-108509761D01*
X172230952Y-108557380D01*
X172183333Y-108509761D01*
X172230952Y-108462142D01*
X172230952Y-108557380D01*
X172230952Y-107938333D02*
X172278571Y-107985952D01*
X172230952Y-108033571D01*
X172183333Y-107985952D01*
X172230952Y-107938333D01*
X172230952Y-108033571D01*
X173469047Y-108033571D02*
X173802380Y-108033571D01*
X173945238Y-108557380D02*
X173469047Y-108557380D01*
X173469047Y-107557380D01*
X173945238Y-107557380D01*
X174373809Y-108462142D02*
X174421428Y-108509761D01*
X174373809Y-108557380D01*
X174326190Y-108509761D01*
X174373809Y-108462142D01*
X174373809Y-108557380D01*
X175945238Y-108033571D02*
X175611904Y-108033571D01*
X175611904Y-108557380D02*
X175611904Y-107557380D01*
X176088095Y-107557380D01*
X176469047Y-108557380D02*
X176469047Y-107890714D01*
X176469047Y-107557380D02*
X176421428Y-107605000D01*
X176469047Y-107652619D01*
X176516666Y-107605000D01*
X176469047Y-107557380D01*
X176469047Y-107652619D01*
X176897619Y-108509761D02*
X176992857Y-108557380D01*
X177183333Y-108557380D01*
X177278571Y-108509761D01*
X177326190Y-108414523D01*
X177326190Y-108366904D01*
X177278571Y-108271666D01*
X177183333Y-108224047D01*
X177040476Y-108224047D01*
X176945238Y-108176428D01*
X176897619Y-108081190D01*
X176897619Y-108033571D01*
X176945238Y-107938333D01*
X177040476Y-107890714D01*
X177183333Y-107890714D01*
X177278571Y-107938333D01*
X178135714Y-108509761D02*
X178040476Y-108557380D01*
X177850000Y-108557380D01*
X177754761Y-108509761D01*
X177707142Y-108414523D01*
X177707142Y-108033571D01*
X177754761Y-107938333D01*
X177850000Y-107890714D01*
X178040476Y-107890714D01*
X178135714Y-107938333D01*
X178183333Y-108033571D01*
X178183333Y-108128809D01*
X177707142Y-108224047D01*
X178469047Y-107890714D02*
X178850000Y-107890714D01*
X178611904Y-107557380D02*
X178611904Y-108414523D01*
X178659523Y-108509761D01*
X178754761Y-108557380D01*
X178850000Y-108557380D01*
X118520892Y-122537857D02*
X118568511Y-122585476D01*
X118616130Y-122728333D01*
X118616130Y-122823571D01*
X118568511Y-122966428D01*
X118473273Y-123061666D01*
X118378035Y-123109285D01*
X118187559Y-123156904D01*
X118044702Y-123156904D01*
X117854226Y-123109285D01*
X117758988Y-123061666D01*
X117663750Y-122966428D01*
X117616130Y-122823571D01*
X117616130Y-122728333D01*
X117663750Y-122585476D01*
X117711369Y-122537857D01*
X118616130Y-121585476D02*
X118616130Y-122156904D01*
X118616130Y-121871190D02*
X117616130Y-121871190D01*
X117758988Y-121966428D01*
X117854226Y-122061666D01*
X117901845Y-122156904D01*
X117616130Y-121252142D02*
X117616130Y-120633095D01*
X117997083Y-120966428D01*
X117997083Y-120823571D01*
X118044702Y-120728333D01*
X118092321Y-120680714D01*
X118187559Y-120633095D01*
X118425654Y-120633095D01*
X118520892Y-120680714D01*
X118568511Y-120728333D01*
X118616130Y-120823571D01*
X118616130Y-121109285D01*
X118568511Y-121204523D01*
X118520892Y-121252142D01*
X138722030Y-116417731D02*
X138149610Y-116316716D01*
X138317969Y-116821792D02*
X137610862Y-116114686D01*
X137880236Y-115845311D01*
X137981251Y-115811640D01*
X138048595Y-115811640D01*
X138149610Y-115845311D01*
X138250625Y-115946327D01*
X138284297Y-116047342D01*
X138284297Y-116114686D01*
X138250625Y-116215701D01*
X137981251Y-116485075D01*
X138351641Y-115508594D02*
X138351641Y-115441250D01*
X138385312Y-115340235D01*
X138553671Y-115171876D01*
X138654687Y-115138205D01*
X138722030Y-115138205D01*
X138823045Y-115171876D01*
X138890389Y-115239220D01*
X138957732Y-115373907D01*
X138957732Y-116182029D01*
X139395465Y-115744296D01*
X107127142Y-98842857D02*
X107174761Y-98890476D01*
X107222380Y-99033333D01*
X107222380Y-99128571D01*
X107174761Y-99271428D01*
X107079523Y-99366666D01*
X106984285Y-99414285D01*
X106793809Y-99461904D01*
X106650952Y-99461904D01*
X106460476Y-99414285D01*
X106365238Y-99366666D01*
X106270000Y-99271428D01*
X106222380Y-99128571D01*
X106222380Y-99033333D01*
X106270000Y-98890476D01*
X106317619Y-98842857D01*
X106555714Y-97985714D02*
X107222380Y-97985714D01*
X106174761Y-98223809D02*
X106889047Y-98461904D01*
X106889047Y-97842857D01*
X106222380Y-97033333D02*
X106222380Y-97223809D01*
X106270000Y-97319047D01*
X106317619Y-97366666D01*
X106460476Y-97461904D01*
X106650952Y-97509523D01*
X107031904Y-97509523D01*
X107127142Y-97461904D01*
X107174761Y-97414285D01*
X107222380Y-97319047D01*
X107222380Y-97128571D01*
X107174761Y-97033333D01*
X107127142Y-96985714D01*
X107031904Y-96938095D01*
X106793809Y-96938095D01*
X106698571Y-96985714D01*
X106650952Y-97033333D01*
X106603333Y-97128571D01*
X106603333Y-97319047D01*
X106650952Y-97414285D01*
X106698571Y-97461904D01*
X106793809Y-97509523D01*
X126036666Y-92432380D02*
X126036666Y-93146666D01*
X125989047Y-93289523D01*
X125893809Y-93384761D01*
X125750952Y-93432380D01*
X125655714Y-93432380D01*
X126941428Y-92432380D02*
X126750952Y-92432380D01*
X126655714Y-92480000D01*
X126608095Y-92527619D01*
X126512857Y-92670476D01*
X126465238Y-92860952D01*
X126465238Y-93241904D01*
X126512857Y-93337142D01*
X126560476Y-93384761D01*
X126655714Y-93432380D01*
X126846190Y-93432380D01*
X126941428Y-93384761D01*
X126989047Y-93337142D01*
X127036666Y-93241904D01*
X127036666Y-93003809D01*
X126989047Y-92908571D01*
X126941428Y-92860952D01*
X126846190Y-92813333D01*
X126655714Y-92813333D01*
X126560476Y-92860952D01*
X126512857Y-92908571D01*
X126465238Y-93003809D01*
X168472030Y-88087142D02*
X168424411Y-88134761D01*
X168281554Y-88182380D01*
X168186316Y-88182380D01*
X168043459Y-88134761D01*
X167948221Y-88039523D01*
X167900602Y-87944285D01*
X167852983Y-87753809D01*
X167852983Y-87610952D01*
X167900602Y-87420476D01*
X167948221Y-87325238D01*
X168043459Y-87230000D01*
X168186316Y-87182380D01*
X168281554Y-87182380D01*
X168424411Y-87230000D01*
X168472030Y-87277619D01*
X168805364Y-87182380D02*
X169424411Y-87182380D01*
X169091078Y-87563333D01*
X169233935Y-87563333D01*
X169329173Y-87610952D01*
X169376792Y-87658571D01*
X169424411Y-87753809D01*
X169424411Y-87991904D01*
X169376792Y-88087142D01*
X169329173Y-88134761D01*
X169233935Y-88182380D01*
X168948221Y-88182380D01*
X168852983Y-88134761D01*
X168805364Y-88087142D01*
X169995840Y-87610952D02*
X169900602Y-87563333D01*
X169852983Y-87515714D01*
X169805364Y-87420476D01*
X169805364Y-87372857D01*
X169852983Y-87277619D01*
X169900602Y-87230000D01*
X169995840Y-87182380D01*
X170186316Y-87182380D01*
X170281554Y-87230000D01*
X170329173Y-87277619D01*
X170376792Y-87372857D01*
X170376792Y-87420476D01*
X170329173Y-87515714D01*
X170281554Y-87563333D01*
X170186316Y-87610952D01*
X169995840Y-87610952D01*
X169900602Y-87658571D01*
X169852983Y-87706190D01*
X169805364Y-87801428D01*
X169805364Y-87991904D01*
X169852983Y-88087142D01*
X169900602Y-88134761D01*
X169995840Y-88182380D01*
X170186316Y-88182380D01*
X170281554Y-88134761D01*
X170329173Y-88087142D01*
X170376792Y-87991904D01*
X170376792Y-87801428D01*
X170329173Y-87706190D01*
X170281554Y-87658571D01*
X170186316Y-87610952D01*
X157077142Y-99192857D02*
X157124761Y-99240476D01*
X157172380Y-99383333D01*
X157172380Y-99478571D01*
X157124761Y-99621428D01*
X157029523Y-99716666D01*
X156934285Y-99764285D01*
X156743809Y-99811904D01*
X156600952Y-99811904D01*
X156410476Y-99764285D01*
X156315238Y-99716666D01*
X156220000Y-99621428D01*
X156172380Y-99478571D01*
X156172380Y-99383333D01*
X156220000Y-99240476D01*
X156267619Y-99192857D01*
X156172380Y-98859523D02*
X156172380Y-98240476D01*
X156553333Y-98573809D01*
X156553333Y-98430952D01*
X156600952Y-98335714D01*
X156648571Y-98288095D01*
X156743809Y-98240476D01*
X156981904Y-98240476D01*
X157077142Y-98288095D01*
X157124761Y-98335714D01*
X157172380Y-98430952D01*
X157172380Y-98716666D01*
X157124761Y-98811904D01*
X157077142Y-98859523D01*
X156172380Y-97335714D02*
X156172380Y-97811904D01*
X156648571Y-97859523D01*
X156600952Y-97811904D01*
X156553333Y-97716666D01*
X156553333Y-97478571D01*
X156600952Y-97383333D01*
X156648571Y-97335714D01*
X156743809Y-97288095D01*
X156981904Y-97288095D01*
X157077142Y-97335714D01*
X157124761Y-97383333D01*
X157172380Y-97478571D01*
X157172380Y-97716666D01*
X157124761Y-97811904D01*
X157077142Y-97859523D01*
X144327142Y-96187142D02*
X144279523Y-96234761D01*
X144136666Y-96282380D01*
X144041428Y-96282380D01*
X143898571Y-96234761D01*
X143803333Y-96139523D01*
X143755714Y-96044285D01*
X143708095Y-95853809D01*
X143708095Y-95710952D01*
X143755714Y-95520476D01*
X143803333Y-95425238D01*
X143898571Y-95330000D01*
X144041428Y-95282380D01*
X144136666Y-95282380D01*
X144279523Y-95330000D01*
X144327142Y-95377619D01*
X145231904Y-95282380D02*
X144755714Y-95282380D01*
X144708095Y-95758571D01*
X144755714Y-95710952D01*
X144850952Y-95663333D01*
X145089047Y-95663333D01*
X145184285Y-95710952D01*
X145231904Y-95758571D01*
X145279523Y-95853809D01*
X145279523Y-96091904D01*
X145231904Y-96187142D01*
X145184285Y-96234761D01*
X145089047Y-96282380D01*
X144850952Y-96282380D01*
X144755714Y-96234761D01*
X144708095Y-96187142D01*
X146231904Y-96282380D02*
X145660476Y-96282380D01*
X145946190Y-96282380D02*
X145946190Y-95282380D01*
X145850952Y-95425238D01*
X145755714Y-95520476D01*
X145660476Y-95568095D01*
D11*
X169757428Y-112888000D02*
X169612285Y-112815428D01*
X169394571Y-112815428D01*
X169176857Y-112888000D01*
X169031714Y-113033142D01*
X168959142Y-113178285D01*
X168886571Y-113468571D01*
X168886571Y-113686285D01*
X168959142Y-113976571D01*
X169031714Y-114121714D01*
X169176857Y-114266857D01*
X169394571Y-114339428D01*
X169539714Y-114339428D01*
X169757428Y-114266857D01*
X169830000Y-114194285D01*
X169830000Y-113686285D01*
X169539714Y-113686285D01*
X170700857Y-112815428D02*
X170700857Y-113178285D01*
X170338000Y-113033142D02*
X170700857Y-113178285D01*
X171063714Y-113033142D01*
X170483142Y-113468571D02*
X170700857Y-113178285D01*
X170918571Y-113468571D01*
X171862000Y-112815428D02*
X171862000Y-113178285D01*
X171499142Y-113033142D02*
X171862000Y-113178285D01*
X172224857Y-113033142D01*
X171644285Y-113468571D02*
X171862000Y-113178285D01*
X172079714Y-113468571D01*
X173023142Y-112815428D02*
X173023142Y-113178285D01*
X172660285Y-113033142D02*
X173023142Y-113178285D01*
X173386000Y-113033142D01*
X172805428Y-113468571D02*
X173023142Y-113178285D01*
X173240857Y-113468571D01*
D10*
X147172030Y-123817732D02*
X146599610Y-123716717D01*
X146767969Y-124221793D02*
X146060862Y-123514687D01*
X146330236Y-123245312D01*
X146431251Y-123211641D01*
X146498595Y-123211641D01*
X146599610Y-123245312D01*
X146700625Y-123346328D01*
X146734297Y-123447343D01*
X146734297Y-123514687D01*
X146700625Y-123615702D01*
X146431251Y-123885076D01*
X147172030Y-123009610D02*
X147071015Y-123043282D01*
X147003671Y-123043282D01*
X146902656Y-123009610D01*
X146868984Y-122975938D01*
X146835312Y-122874923D01*
X146835312Y-122807580D01*
X146868984Y-122706564D01*
X147003671Y-122571877D01*
X147104687Y-122538206D01*
X147172030Y-122538206D01*
X147273045Y-122571877D01*
X147306717Y-122605549D01*
X147340389Y-122706564D01*
X147340389Y-122773908D01*
X147306717Y-122874923D01*
X147172030Y-123009610D01*
X147138358Y-123110625D01*
X147138358Y-123177969D01*
X147172030Y-123278984D01*
X147306717Y-123413671D01*
X147407732Y-123447343D01*
X147475076Y-123447343D01*
X147576091Y-123413671D01*
X147710778Y-123278984D01*
X147744450Y-123177969D01*
X147744450Y-123110625D01*
X147710778Y-123009610D01*
X147576091Y-122874923D01*
X147475076Y-122841251D01*
X147407732Y-122841251D01*
X147306717Y-122874923D01*
X153327142Y-119996666D02*
X153374761Y-120044285D01*
X153422380Y-120187142D01*
X153422380Y-120282380D01*
X153374761Y-120425238D01*
X153279523Y-120520476D01*
X153184285Y-120568095D01*
X152993809Y-120615714D01*
X152850952Y-120615714D01*
X152660476Y-120568095D01*
X152565238Y-120520476D01*
X152470000Y-120425238D01*
X152422380Y-120282380D01*
X152422380Y-120187142D01*
X152470000Y-120044285D01*
X152517619Y-119996666D01*
X152422380Y-119663333D02*
X152422380Y-119044285D01*
X152803333Y-119377619D01*
X152803333Y-119234761D01*
X152850952Y-119139523D01*
X152898571Y-119091904D01*
X152993809Y-119044285D01*
X153231904Y-119044285D01*
X153327142Y-119091904D01*
X153374761Y-119139523D01*
X153422380Y-119234761D01*
X153422380Y-119520476D01*
X153374761Y-119615714D01*
X153327142Y-119663333D01*
X151136666Y-92432380D02*
X151136666Y-93146666D01*
X151089047Y-93289523D01*
X150993809Y-93384761D01*
X150850952Y-93432380D01*
X150755714Y-93432380D01*
X151517619Y-92432380D02*
X152136666Y-92432380D01*
X151803333Y-92813333D01*
X151946190Y-92813333D01*
X152041428Y-92860952D01*
X152089047Y-92908571D01*
X152136666Y-93003809D01*
X152136666Y-93241904D01*
X152089047Y-93337142D01*
X152041428Y-93384761D01*
X151946190Y-93432380D01*
X151660476Y-93432380D01*
X151565238Y-93384761D01*
X151517619Y-93337142D01*
X142149688Y-123940074D02*
X141577269Y-123839059D01*
X141745627Y-124344135D02*
X141038521Y-123637028D01*
X141307895Y-123367654D01*
X141408910Y-123333982D01*
X141476253Y-123333982D01*
X141577269Y-123367654D01*
X141678284Y-123468669D01*
X141711956Y-123569685D01*
X141711956Y-123637028D01*
X141678284Y-123738043D01*
X141408910Y-124007417D01*
X142823124Y-123266639D02*
X142419063Y-123670700D01*
X142621093Y-123468669D02*
X141913986Y-122761562D01*
X141947658Y-122929921D01*
X141947658Y-123064608D01*
X141913986Y-123165624D01*
X143159841Y-122929921D02*
X143294528Y-122795234D01*
X143328200Y-122694219D01*
X143328200Y-122626875D01*
X143294528Y-122458517D01*
X143193513Y-122290158D01*
X142924139Y-122020784D01*
X142823124Y-121987112D01*
X142755780Y-121987112D01*
X142654765Y-122020784D01*
X142520078Y-122155471D01*
X142486406Y-122256486D01*
X142486406Y-122323830D01*
X142520078Y-122424845D01*
X142688437Y-122593204D01*
X142789452Y-122626875D01*
X142856795Y-122626875D01*
X142957811Y-122593204D01*
X143092498Y-122458517D01*
X143126169Y-122357501D01*
X143126169Y-122290158D01*
X143092498Y-122189143D01*
X119417142Y-119012857D02*
X119464761Y-119060476D01*
X119512380Y-119203333D01*
X119512380Y-119298571D01*
X119464761Y-119441428D01*
X119369523Y-119536666D01*
X119274285Y-119584285D01*
X119083809Y-119631904D01*
X118940952Y-119631904D01*
X118750476Y-119584285D01*
X118655238Y-119536666D01*
X118560000Y-119441428D01*
X118512380Y-119298571D01*
X118512380Y-119203333D01*
X118560000Y-119060476D01*
X118607619Y-119012857D01*
X119512380Y-118060476D02*
X119512380Y-118631904D01*
X119512380Y-118346190D02*
X118512380Y-118346190D01*
X118655238Y-118441428D01*
X118750476Y-118536666D01*
X118798095Y-118631904D01*
X118512380Y-117441428D02*
X118512380Y-117346190D01*
X118560000Y-117250952D01*
X118607619Y-117203333D01*
X118702857Y-117155714D01*
X118893333Y-117108095D01*
X119131428Y-117108095D01*
X119321904Y-117155714D01*
X119417142Y-117203333D01*
X119464761Y-117250952D01*
X119512380Y-117346190D01*
X119512380Y-117441428D01*
X119464761Y-117536666D01*
X119417142Y-117584285D01*
X119321904Y-117631904D01*
X119131428Y-117679523D01*
X118893333Y-117679523D01*
X118702857Y-117631904D01*
X118607619Y-117584285D01*
X118560000Y-117536666D01*
X118512380Y-117441428D01*
X101286666Y-92457380D02*
X101286666Y-93171666D01*
X101239047Y-93314523D01*
X101143809Y-93409761D01*
X101000952Y-93457380D01*
X100905714Y-93457380D01*
X102239047Y-92457380D02*
X101762857Y-92457380D01*
X101715238Y-92933571D01*
X101762857Y-92885952D01*
X101858095Y-92838333D01*
X102096190Y-92838333D01*
X102191428Y-92885952D01*
X102239047Y-92933571D01*
X102286666Y-93028809D01*
X102286666Y-93266904D01*
X102239047Y-93362142D01*
X102191428Y-93409761D01*
X102096190Y-93457380D01*
X101858095Y-93457380D01*
X101762857Y-93409761D01*
X101715238Y-93362142D01*
X130922380Y-95243095D02*
X129922380Y-95243095D01*
X129922380Y-95005000D01*
X129970000Y-94862142D01*
X130065238Y-94766904D01*
X130160476Y-94719285D01*
X130350952Y-94671666D01*
X130493809Y-94671666D01*
X130684285Y-94719285D01*
X130779523Y-94766904D01*
X130874761Y-94862142D01*
X130922380Y-95005000D01*
X130922380Y-95243095D01*
X129922380Y-93766904D02*
X129922380Y-94243095D01*
X130398571Y-94290714D01*
X130350952Y-94243095D01*
X130303333Y-94147857D01*
X130303333Y-93909761D01*
X130350952Y-93814523D01*
X130398571Y-93766904D01*
X130493809Y-93719285D01*
X130731904Y-93719285D01*
X130827142Y-93766904D01*
X130874761Y-93814523D01*
X130922380Y-93909761D01*
X130922380Y-94147857D01*
X130874761Y-94243095D01*
X130827142Y-94290714D01*
X115618095Y-113142380D02*
X115618095Y-113951904D01*
X115665714Y-114047142D01*
X115713333Y-114094761D01*
X115808571Y-114142380D01*
X115999047Y-114142380D01*
X116094285Y-114094761D01*
X116141904Y-114047142D01*
X116189523Y-113951904D01*
X116189523Y-113142380D01*
X116618095Y-113237619D02*
X116665714Y-113190000D01*
X116760952Y-113142380D01*
X116999047Y-113142380D01*
X117094285Y-113190000D01*
X117141904Y-113237619D01*
X117189523Y-113332857D01*
X117189523Y-113428095D01*
X117141904Y-113570952D01*
X116570476Y-114142380D01*
X117189523Y-114142380D01*
X111025892Y-120012857D02*
X111073511Y-120060476D01*
X111121130Y-120203333D01*
X111121130Y-120298571D01*
X111073511Y-120441428D01*
X110978273Y-120536666D01*
X110883035Y-120584285D01*
X110692559Y-120631904D01*
X110549702Y-120631904D01*
X110359226Y-120584285D01*
X110263988Y-120536666D01*
X110168750Y-120441428D01*
X110121130Y-120298571D01*
X110121130Y-120203333D01*
X110168750Y-120060476D01*
X110216369Y-120012857D01*
X111121130Y-119060476D02*
X111121130Y-119631904D01*
X111121130Y-119346190D02*
X110121130Y-119346190D01*
X110263988Y-119441428D01*
X110359226Y-119536666D01*
X110406845Y-119631904D01*
X110549702Y-118489047D02*
X110502083Y-118584285D01*
X110454464Y-118631904D01*
X110359226Y-118679523D01*
X110311607Y-118679523D01*
X110216369Y-118631904D01*
X110168750Y-118584285D01*
X110121130Y-118489047D01*
X110121130Y-118298571D01*
X110168750Y-118203333D01*
X110216369Y-118155714D01*
X110311607Y-118108095D01*
X110359226Y-118108095D01*
X110454464Y-118155714D01*
X110502083Y-118203333D01*
X110549702Y-118298571D01*
X110549702Y-118489047D01*
X110597321Y-118584285D01*
X110644940Y-118631904D01*
X110740178Y-118679523D01*
X110930654Y-118679523D01*
X111025892Y-118631904D01*
X111073511Y-118584285D01*
X111121130Y-118489047D01*
X111121130Y-118298571D01*
X111073511Y-118203333D01*
X111025892Y-118155714D01*
X110930654Y-118108095D01*
X110740178Y-118108095D01*
X110644940Y-118155714D01*
X110597321Y-118203333D01*
X110549702Y-118298571D01*
X111007142Y-123132857D02*
X111054761Y-123180476D01*
X111102380Y-123323333D01*
X111102380Y-123418571D01*
X111054761Y-123561428D01*
X110959523Y-123656666D01*
X110864285Y-123704285D01*
X110673809Y-123751904D01*
X110530952Y-123751904D01*
X110340476Y-123704285D01*
X110245238Y-123656666D01*
X110150000Y-123561428D01*
X110102380Y-123418571D01*
X110102380Y-123323333D01*
X110150000Y-123180476D01*
X110197619Y-123132857D01*
X111102380Y-122180476D02*
X111102380Y-122751904D01*
X111102380Y-122466190D02*
X110102380Y-122466190D01*
X110245238Y-122561428D01*
X110340476Y-122656666D01*
X110388095Y-122751904D01*
X111102380Y-121704285D02*
X111102380Y-121513809D01*
X111054761Y-121418571D01*
X111007142Y-121370952D01*
X110864285Y-121275714D01*
X110673809Y-121228095D01*
X110292857Y-121228095D01*
X110197619Y-121275714D01*
X110150000Y-121323333D01*
X110102380Y-121418571D01*
X110102380Y-121609047D01*
X110150000Y-121704285D01*
X110197619Y-121751904D01*
X110292857Y-121799523D01*
X110530952Y-121799523D01*
X110626190Y-121751904D01*
X110673809Y-121704285D01*
X110721428Y-121609047D01*
X110721428Y-121418571D01*
X110673809Y-121323333D01*
X110626190Y-121275714D01*
X110530952Y-121228095D01*
X113306845Y-121772380D02*
X113306845Y-122581904D01*
X113354464Y-122677142D01*
X113402083Y-122724761D01*
X113497321Y-122772380D01*
X113687797Y-122772380D01*
X113783035Y-122724761D01*
X113830654Y-122677142D01*
X113878273Y-122581904D01*
X113878273Y-121772380D01*
X114259226Y-121772380D02*
X114878273Y-121772380D01*
X114544940Y-122153333D01*
X114687797Y-122153333D01*
X114783035Y-122200952D01*
X114830654Y-122248571D01*
X114878273Y-122343809D01*
X114878273Y-122581904D01*
X114830654Y-122677142D01*
X114783035Y-122724761D01*
X114687797Y-122772380D01*
X114402083Y-122772380D01*
X114306845Y-122724761D01*
X114259226Y-122677142D01*
X174322380Y-92196666D02*
X174322380Y-92672857D01*
X173322380Y-92672857D01*
X174322380Y-91339523D02*
X174322380Y-91910952D01*
X174322380Y-91625238D02*
X173322380Y-91625238D01*
X173465238Y-91720476D01*
X173560476Y-91815714D01*
X173608095Y-91910952D01*
X197922380Y-90146666D02*
X197922380Y-90622857D01*
X196922380Y-90622857D01*
X197017619Y-89860952D02*
X196970000Y-89813333D01*
X196922380Y-89718095D01*
X196922380Y-89480000D01*
X196970000Y-89384761D01*
X197017619Y-89337142D01*
X197112857Y-89289523D01*
X197208095Y-89289523D01*
X197350952Y-89337142D01*
X197922380Y-89908571D01*
X197922380Y-89289523D01*
X153144026Y-110431522D02*
X153716446Y-111003942D01*
X153817461Y-111037614D01*
X153884805Y-111037614D01*
X153985820Y-111003942D01*
X154120507Y-110869255D01*
X154154179Y-110768240D01*
X154154179Y-110700896D01*
X154120507Y-110599881D01*
X153548087Y-110027461D01*
X154962301Y-110027461D02*
X154558240Y-110431522D01*
X154760270Y-110229492D02*
X154053164Y-109522385D01*
X154086835Y-109690744D01*
X154086835Y-109825431D01*
X154053164Y-109926446D01*
X102661666Y-112852380D02*
X102661666Y-113566666D01*
X102614047Y-113709523D01*
X102518809Y-113804761D01*
X102375952Y-113852380D01*
X102280714Y-113852380D01*
X103090238Y-112947619D02*
X103137857Y-112900000D01*
X103233095Y-112852380D01*
X103471190Y-112852380D01*
X103566428Y-112900000D01*
X103614047Y-112947619D01*
X103661666Y-113042857D01*
X103661666Y-113138095D01*
X103614047Y-113280952D01*
X103042619Y-113852380D01*
X103661666Y-113852380D01*
X192586666Y-111482380D02*
X192586666Y-112196666D01*
X192539047Y-112339523D01*
X192443809Y-112434761D01*
X192300952Y-112482380D01*
X192205714Y-112482380D01*
X193586666Y-112482380D02*
X193015238Y-112482380D01*
X193300952Y-112482380D02*
X193300952Y-111482380D01*
X193205714Y-111625238D01*
X193110476Y-111720476D01*
X193015238Y-111768095D01*
X158628045Y-115646062D02*
X158580426Y-115693681D01*
X158437569Y-115741300D01*
X158342331Y-115741300D01*
X158199473Y-115693681D01*
X158104235Y-115598443D01*
X158056616Y-115503205D01*
X158008997Y-115312729D01*
X158008997Y-115169872D01*
X158056616Y-114979396D01*
X158104235Y-114884158D01*
X158199473Y-114788920D01*
X158342331Y-114741300D01*
X158437569Y-114741300D01*
X158580426Y-114788920D01*
X158628045Y-114836539D01*
X159485188Y-115074634D02*
X159485188Y-115741300D01*
X159247092Y-114693681D02*
X159008997Y-115407967D01*
X159628045Y-115407967D01*
X146404687Y-121250389D02*
X146404687Y-121317732D01*
X146337343Y-121452419D01*
X146270000Y-121519763D01*
X146135312Y-121587106D01*
X146000625Y-121587106D01*
X145899610Y-121553435D01*
X145731251Y-121452419D01*
X145630236Y-121351404D01*
X145529221Y-121183045D01*
X145495549Y-121082030D01*
X145495549Y-120947343D01*
X145562893Y-120812656D01*
X145630236Y-120745312D01*
X145764923Y-120677969D01*
X145832267Y-120677969D01*
X146404687Y-119970862D02*
X146067969Y-120307580D01*
X146371015Y-120677969D01*
X146371015Y-120610625D01*
X146404687Y-120509610D01*
X146573045Y-120341251D01*
X146674061Y-120307580D01*
X146741404Y-120307580D01*
X146842419Y-120341251D01*
X147010778Y-120509610D01*
X147044450Y-120610625D01*
X147044450Y-120677969D01*
X147010778Y-120778984D01*
X146842419Y-120947343D01*
X146741404Y-120981015D01*
X146674061Y-120981015D01*
X114227142Y-93887142D02*
X114179523Y-93934761D01*
X114036666Y-93982380D01*
X113941428Y-93982380D01*
X113798571Y-93934761D01*
X113703333Y-93839523D01*
X113655714Y-93744285D01*
X113608095Y-93553809D01*
X113608095Y-93410952D01*
X113655714Y-93220476D01*
X113703333Y-93125238D01*
X113798571Y-93030000D01*
X113941428Y-92982380D01*
X114036666Y-92982380D01*
X114179523Y-93030000D01*
X114227142Y-93077619D01*
X115131904Y-92982380D02*
X114655714Y-92982380D01*
X114608095Y-93458571D01*
X114655714Y-93410952D01*
X114750952Y-93363333D01*
X114989047Y-93363333D01*
X115084285Y-93410952D01*
X115131904Y-93458571D01*
X115179523Y-93553809D01*
X115179523Y-93791904D01*
X115131904Y-93887142D01*
X115084285Y-93934761D01*
X114989047Y-93982380D01*
X114750952Y-93982380D01*
X114655714Y-93934761D01*
X114608095Y-93887142D01*
X115798571Y-92982380D02*
X115893809Y-92982380D01*
X115989047Y-93030000D01*
X116036666Y-93077619D01*
X116084285Y-93172857D01*
X116131904Y-93363333D01*
X116131904Y-93601428D01*
X116084285Y-93791904D01*
X116036666Y-93887142D01*
X115989047Y-93934761D01*
X115893809Y-93982380D01*
X115798571Y-93982380D01*
X115703333Y-93934761D01*
X115655714Y-93887142D01*
X115608095Y-93791904D01*
X115560476Y-93601428D01*
X115560476Y-93363333D01*
X115608095Y-93172857D01*
X115655714Y-93077619D01*
X115703333Y-93030000D01*
X115798571Y-92982380D01*
X144272030Y-119017732D02*
X143699610Y-118916717D01*
X143867969Y-119421793D02*
X143160862Y-118714687D01*
X143430236Y-118445312D01*
X143531251Y-118411641D01*
X143598595Y-118411641D01*
X143699610Y-118445312D01*
X143800625Y-118546328D01*
X143834297Y-118647343D01*
X143834297Y-118714687D01*
X143800625Y-118815702D01*
X143531251Y-119085076D01*
X144171015Y-117704534D02*
X144036328Y-117839221D01*
X144002656Y-117940236D01*
X144002656Y-118007580D01*
X144036328Y-118175938D01*
X144137343Y-118344297D01*
X144406717Y-118613671D01*
X144507732Y-118647343D01*
X144575076Y-118647343D01*
X144676091Y-118613671D01*
X144810778Y-118478984D01*
X144844450Y-118377969D01*
X144844450Y-118310625D01*
X144810778Y-118209610D01*
X144642419Y-118041251D01*
X144541404Y-118007580D01*
X144474061Y-118007580D01*
X144373045Y-118041251D01*
X144238358Y-118175938D01*
X144204687Y-118276954D01*
X144204687Y-118344297D01*
X144238358Y-118445312D01*
X155922380Y-95468095D02*
X154922380Y-95468095D01*
X154922380Y-95230000D01*
X154970000Y-95087142D01*
X155065238Y-94991904D01*
X155160476Y-94944285D01*
X155350952Y-94896666D01*
X155493809Y-94896666D01*
X155684285Y-94944285D01*
X155779523Y-94991904D01*
X155874761Y-95087142D01*
X155922380Y-95230000D01*
X155922380Y-95468095D01*
X155017619Y-94515714D02*
X154970000Y-94468095D01*
X154922380Y-94372857D01*
X154922380Y-94134761D01*
X154970000Y-94039523D01*
X155017619Y-93991904D01*
X155112857Y-93944285D01*
X155208095Y-93944285D01*
X155350952Y-93991904D01*
X155922380Y-94563333D01*
X155922380Y-93944285D01*
X137942380Y-118769074D02*
X137466190Y-119102407D01*
X137942380Y-119340502D02*
X136942380Y-119340502D01*
X136942380Y-118959550D01*
X136990000Y-118864312D01*
X137037619Y-118816693D01*
X137132857Y-118769074D01*
X137275714Y-118769074D01*
X137370952Y-118816693D01*
X137418571Y-118864312D01*
X137466190Y-118959550D01*
X137466190Y-119340502D01*
X136942380Y-118435740D02*
X136942380Y-117816693D01*
X137323333Y-118150026D01*
X137323333Y-118007169D01*
X137370952Y-117911931D01*
X137418571Y-117864312D01*
X137513809Y-117816693D01*
X137751904Y-117816693D01*
X137847142Y-117864312D01*
X137894761Y-117911931D01*
X137942380Y-118007169D01*
X137942380Y-118292883D01*
X137894761Y-118388121D01*
X137847142Y-118435740D01*
X137275714Y-116959550D02*
X137942380Y-116959550D01*
X136894761Y-117197645D02*
X137609047Y-117435740D01*
X137609047Y-116816693D01*
X122937142Y-122962857D02*
X122984761Y-123010476D01*
X123032380Y-123153333D01*
X123032380Y-123248571D01*
X122984761Y-123391428D01*
X122889523Y-123486666D01*
X122794285Y-123534285D01*
X122603809Y-123581904D01*
X122460952Y-123581904D01*
X122270476Y-123534285D01*
X122175238Y-123486666D01*
X122080000Y-123391428D01*
X122032380Y-123248571D01*
X122032380Y-123153333D01*
X122080000Y-123010476D01*
X122127619Y-122962857D01*
X122127619Y-122581904D02*
X122080000Y-122534285D01*
X122032380Y-122439047D01*
X122032380Y-122200952D01*
X122080000Y-122105714D01*
X122127619Y-122058095D01*
X122222857Y-122010476D01*
X122318095Y-122010476D01*
X122460952Y-122058095D01*
X123032380Y-122629523D01*
X123032380Y-122010476D01*
X122032380Y-121391428D02*
X122032380Y-121296190D01*
X122080000Y-121200952D01*
X122127619Y-121153333D01*
X122222857Y-121105714D01*
X122413333Y-121058095D01*
X122651428Y-121058095D01*
X122841904Y-121105714D01*
X122937142Y-121153333D01*
X122984761Y-121200952D01*
X123032380Y-121296190D01*
X123032380Y-121391428D01*
X122984761Y-121486666D01*
X122937142Y-121534285D01*
X122841904Y-121581904D01*
X122651428Y-121629523D01*
X122413333Y-121629523D01*
X122222857Y-121581904D01*
X122127619Y-121534285D01*
X122080000Y-121486666D01*
X122032380Y-121391428D01*
X135827142Y-98680693D02*
X135874761Y-98728312D01*
X135922380Y-98871169D01*
X135922380Y-98966407D01*
X135874761Y-99109264D01*
X135779523Y-99204502D01*
X135684285Y-99252121D01*
X135493809Y-99299740D01*
X135350952Y-99299740D01*
X135160476Y-99252121D01*
X135065238Y-99204502D01*
X134970000Y-99109264D01*
X134922380Y-98966407D01*
X134922380Y-98871169D01*
X134970000Y-98728312D01*
X135017619Y-98680693D01*
X135255714Y-97823550D02*
X135922380Y-97823550D01*
X134874761Y-98061645D02*
X135589047Y-98299740D01*
X135589047Y-97680693D01*
X135350952Y-97156883D02*
X135303333Y-97252121D01*
X135255714Y-97299740D01*
X135160476Y-97347359D01*
X135112857Y-97347359D01*
X135017619Y-97299740D01*
X134970000Y-97252121D01*
X134922380Y-97156883D01*
X134922380Y-96966407D01*
X134970000Y-96871169D01*
X135017619Y-96823550D01*
X135112857Y-96775931D01*
X135160476Y-96775931D01*
X135255714Y-96823550D01*
X135303333Y-96871169D01*
X135350952Y-96966407D01*
X135350952Y-97156883D01*
X135398571Y-97252121D01*
X135446190Y-97299740D01*
X135541428Y-97347359D01*
X135731904Y-97347359D01*
X135827142Y-97299740D01*
X135874761Y-97252121D01*
X135922380Y-97156883D01*
X135922380Y-96966407D01*
X135874761Y-96871169D01*
X135827142Y-96823550D01*
X135731904Y-96775931D01*
X135541428Y-96775931D01*
X135446190Y-96823550D01*
X135398571Y-96871169D01*
X135350952Y-96966407D01*
X161077142Y-98992857D02*
X161124761Y-99040476D01*
X161172380Y-99183333D01*
X161172380Y-99278571D01*
X161124761Y-99421428D01*
X161029523Y-99516666D01*
X160934285Y-99564285D01*
X160743809Y-99611904D01*
X160600952Y-99611904D01*
X160410476Y-99564285D01*
X160315238Y-99516666D01*
X160220000Y-99421428D01*
X160172380Y-99278571D01*
X160172380Y-99183333D01*
X160220000Y-99040476D01*
X160267619Y-98992857D01*
X160172380Y-98659523D02*
X160172380Y-98040476D01*
X160553333Y-98373809D01*
X160553333Y-98230952D01*
X160600952Y-98135714D01*
X160648571Y-98088095D01*
X160743809Y-98040476D01*
X160981904Y-98040476D01*
X161077142Y-98088095D01*
X161124761Y-98135714D01*
X161172380Y-98230952D01*
X161172380Y-98516666D01*
X161124761Y-98611904D01*
X161077142Y-98659523D01*
X160505714Y-97183333D02*
X161172380Y-97183333D01*
X160124761Y-97421428D02*
X160839047Y-97659523D01*
X160839047Y-97040476D01*
X180722380Y-95518112D02*
X179722380Y-95518112D01*
X179722380Y-95280017D01*
X179770000Y-95137159D01*
X179865238Y-95041921D01*
X179960476Y-94994302D01*
X180150952Y-94946683D01*
X180293809Y-94946683D01*
X180484285Y-94994302D01*
X180579523Y-95041921D01*
X180674761Y-95137159D01*
X180722380Y-95280017D01*
X180722380Y-95518112D01*
X179722380Y-94613350D02*
X179722380Y-93994302D01*
X180103333Y-94327636D01*
X180103333Y-94184778D01*
X180150952Y-94089540D01*
X180198571Y-94041921D01*
X180293809Y-93994302D01*
X180531904Y-93994302D01*
X180627142Y-94041921D01*
X180674761Y-94089540D01*
X180722380Y-94184778D01*
X180722380Y-94470493D01*
X180674761Y-94565731D01*
X180627142Y-94613350D01*
X142672030Y-117417732D02*
X142099610Y-117316717D01*
X142267969Y-117821793D02*
X141560862Y-117114687D01*
X141830236Y-116845312D01*
X141931251Y-116811641D01*
X141998595Y-116811641D01*
X142099610Y-116845312D01*
X142200625Y-116946328D01*
X142234297Y-117047343D01*
X142234297Y-117114687D01*
X142200625Y-117215702D01*
X141931251Y-117485076D01*
X142806717Y-116340236D02*
X143278122Y-116811641D01*
X142368984Y-116239221D02*
X142705702Y-116912656D01*
X143143435Y-116474923D01*
X188177142Y-107696666D02*
X188224761Y-107744285D01*
X188272380Y-107887142D01*
X188272380Y-107982380D01*
X188224761Y-108125238D01*
X188129523Y-108220476D01*
X188034285Y-108268095D01*
X187843809Y-108315714D01*
X187700952Y-108315714D01*
X187510476Y-108268095D01*
X187415238Y-108220476D01*
X187320000Y-108125238D01*
X187272380Y-107982380D01*
X187272380Y-107887142D01*
X187320000Y-107744285D01*
X187367619Y-107696666D01*
X187367619Y-107315714D02*
X187320000Y-107268095D01*
X187272380Y-107172857D01*
X187272380Y-106934761D01*
X187320000Y-106839523D01*
X187367619Y-106791904D01*
X187462857Y-106744285D01*
X187558095Y-106744285D01*
X187700952Y-106791904D01*
X188272380Y-107363333D01*
X188272380Y-106744285D01*
X176036666Y-92432380D02*
X176036666Y-93146666D01*
X175989047Y-93289523D01*
X175893809Y-93384761D01*
X175750952Y-93432380D01*
X175655714Y-93432380D01*
X176941428Y-92765714D02*
X176941428Y-93432380D01*
X176703333Y-92384761D02*
X176465238Y-93099047D01*
X177084285Y-93099047D01*
X112905892Y-113816666D02*
X112953511Y-113864285D01*
X113001130Y-114007142D01*
X113001130Y-114102380D01*
X112953511Y-114245238D01*
X112858273Y-114340476D01*
X112763035Y-114388095D01*
X112572559Y-114435714D01*
X112429702Y-114435714D01*
X112239226Y-114388095D01*
X112143988Y-114340476D01*
X112048750Y-114245238D01*
X112001130Y-114102380D01*
X112001130Y-114007142D01*
X112048750Y-113864285D01*
X112096369Y-113816666D01*
X113001130Y-113340476D02*
X113001130Y-113150000D01*
X112953511Y-113054761D01*
X112905892Y-113007142D01*
X112763035Y-112911904D01*
X112572559Y-112864285D01*
X112191607Y-112864285D01*
X112096369Y-112911904D01*
X112048750Y-112959523D01*
X112001130Y-113054761D01*
X112001130Y-113245238D01*
X112048750Y-113340476D01*
X112096369Y-113388095D01*
X112191607Y-113435714D01*
X112429702Y-113435714D01*
X112524940Y-113388095D01*
X112572559Y-113340476D01*
X112620178Y-113245238D01*
X112620178Y-113054761D01*
X112572559Y-112959523D01*
X112524940Y-112911904D01*
X112429702Y-112864285D01*
X146535312Y-126254449D02*
X145962893Y-126153434D01*
X146131251Y-126658510D02*
X145424145Y-125951403D01*
X145693519Y-125682029D01*
X145794534Y-125648357D01*
X145861877Y-125648357D01*
X145962893Y-125682029D01*
X146063908Y-125783044D01*
X146097580Y-125884060D01*
X146097580Y-125951403D01*
X146063908Y-126052418D01*
X145794534Y-126321792D01*
X146164923Y-125345311D02*
X146164923Y-125277968D01*
X146198595Y-125176953D01*
X146366954Y-125008594D01*
X146467969Y-124974922D01*
X146535312Y-124974922D01*
X146636328Y-125008594D01*
X146703671Y-125075937D01*
X146771015Y-125210624D01*
X146771015Y-126018747D01*
X147208748Y-125581014D01*
X146939374Y-124436174D02*
X147006717Y-124368831D01*
X147107732Y-124335159D01*
X147175076Y-124335159D01*
X147276091Y-124368831D01*
X147444450Y-124469846D01*
X147612809Y-124638205D01*
X147713824Y-124806563D01*
X147747496Y-124907579D01*
X147747496Y-124974922D01*
X147713824Y-125075937D01*
X147646480Y-125143281D01*
X147545465Y-125176953D01*
X147478122Y-125176953D01*
X147377106Y-125143281D01*
X147208748Y-125042266D01*
X147040389Y-124873907D01*
X146939374Y-124705548D01*
X146905702Y-124604533D01*
X146905702Y-124537189D01*
X146939374Y-124436174D01*
X176857142Y-118866666D02*
X176904761Y-118914285D01*
X176952380Y-119057142D01*
X176952380Y-119152380D01*
X176904761Y-119295238D01*
X176809523Y-119390476D01*
X176714285Y-119438095D01*
X176523809Y-119485714D01*
X176380952Y-119485714D01*
X176190476Y-119438095D01*
X176095238Y-119390476D01*
X176000000Y-119295238D01*
X175952380Y-119152380D01*
X175952380Y-119057142D01*
X176000000Y-118914285D01*
X176047619Y-118866666D01*
X175952380Y-118009523D02*
X175952380Y-118200000D01*
X176000000Y-118295238D01*
X176047619Y-118342857D01*
X176190476Y-118438095D01*
X176380952Y-118485714D01*
X176761904Y-118485714D01*
X176857142Y-118438095D01*
X176904761Y-118390476D01*
X176952380Y-118295238D01*
X176952380Y-118104761D01*
X176904761Y-118009523D01*
X176857142Y-117961904D01*
X176761904Y-117914285D01*
X176523809Y-117914285D01*
X176428571Y-117961904D01*
X176380952Y-118009523D01*
X176333333Y-118104761D01*
X176333333Y-118295238D01*
X176380952Y-118390476D01*
X176428571Y-118438095D01*
X176523809Y-118485714D01*
X152852198Y-117029380D02*
X152279778Y-116928365D01*
X152448137Y-117433441D02*
X151741030Y-116726335D01*
X152010404Y-116456960D01*
X152111419Y-116423289D01*
X152178763Y-116423289D01*
X152279778Y-116456960D01*
X152380793Y-116557976D01*
X152414465Y-116658991D01*
X152414465Y-116726335D01*
X152380793Y-116827350D01*
X152111419Y-117096724D01*
X153525633Y-116355945D02*
X153121572Y-116760006D01*
X153323603Y-116557976D02*
X152616496Y-115850869D01*
X152650168Y-116019228D01*
X152650168Y-116153915D01*
X152616496Y-116254930D01*
X192697034Y-88912125D02*
X192649415Y-88959744D01*
X192506558Y-89007363D01*
X192411320Y-89007363D01*
X192268463Y-88959744D01*
X192173225Y-88864506D01*
X192125606Y-88769268D01*
X192077987Y-88578792D01*
X192077987Y-88435935D01*
X192125606Y-88245459D01*
X192173225Y-88150221D01*
X192268463Y-88054983D01*
X192411320Y-88007363D01*
X192506558Y-88007363D01*
X192649415Y-88054983D01*
X192697034Y-88102602D01*
X193030368Y-88007363D02*
X193649415Y-88007363D01*
X193316082Y-88388316D01*
X193458939Y-88388316D01*
X193554177Y-88435935D01*
X193601796Y-88483554D01*
X193649415Y-88578792D01*
X193649415Y-88816887D01*
X193601796Y-88912125D01*
X193554177Y-88959744D01*
X193458939Y-89007363D01*
X193173225Y-89007363D01*
X193077987Y-88959744D01*
X193030368Y-88912125D01*
X194125606Y-89007363D02*
X194316082Y-89007363D01*
X194411320Y-88959744D01*
X194458939Y-88912125D01*
X194554177Y-88769268D01*
X194601796Y-88578792D01*
X194601796Y-88197840D01*
X194554177Y-88102602D01*
X194506558Y-88054983D01*
X194411320Y-88007363D01*
X194220844Y-88007363D01*
X194125606Y-88054983D01*
X194077987Y-88102602D01*
X194030368Y-88197840D01*
X194030368Y-88435935D01*
X194077987Y-88531173D01*
X194125606Y-88578792D01*
X194220844Y-88626411D01*
X194411320Y-88626411D01*
X194506558Y-88578792D01*
X194554177Y-88531173D01*
X194601796Y-88435935D01*
X159543521Y-116590110D02*
X159543521Y-117066300D01*
X159210188Y-116066300D02*
X159543521Y-116590110D01*
X159876854Y-116066300D01*
X160733997Y-117066300D02*
X160162569Y-117066300D01*
X160448283Y-117066300D02*
X160448283Y-116066300D01*
X160353045Y-116209158D01*
X160257807Y-116304396D01*
X160162569Y-116352015D01*
X150772030Y-121817732D02*
X150199610Y-121716717D01*
X150367969Y-122221793D02*
X149660862Y-121514687D01*
X149930236Y-121245312D01*
X150031251Y-121211641D01*
X150098595Y-121211641D01*
X150199610Y-121245312D01*
X150300625Y-121346328D01*
X150334297Y-121447343D01*
X150334297Y-121514687D01*
X150300625Y-121615702D01*
X150031251Y-121885076D01*
X150300625Y-120874923D02*
X150772030Y-120403519D01*
X151176091Y-121413671D01*
X105897380Y-95243095D02*
X104897380Y-95243095D01*
X104897380Y-95005000D01*
X104945000Y-94862142D01*
X105040238Y-94766904D01*
X105135476Y-94719285D01*
X105325952Y-94671666D01*
X105468809Y-94671666D01*
X105659285Y-94719285D01*
X105754523Y-94766904D01*
X105849761Y-94862142D01*
X105897380Y-95005000D01*
X105897380Y-95243095D01*
X105230714Y-93814523D02*
X105897380Y-93814523D01*
X104849761Y-94052619D02*
X105564047Y-94290714D01*
X105564047Y-93671666D01*
X119500892Y-114952142D02*
X119453273Y-114999761D01*
X119310416Y-115047380D01*
X119215178Y-115047380D01*
X119072321Y-114999761D01*
X118977083Y-114904523D01*
X118929464Y-114809285D01*
X118881845Y-114618809D01*
X118881845Y-114475952D01*
X118929464Y-114285476D01*
X118977083Y-114190238D01*
X119072321Y-114095000D01*
X119215178Y-114047380D01*
X119310416Y-114047380D01*
X119453273Y-114095000D01*
X119500892Y-114142619D01*
X120453273Y-115047380D02*
X119881845Y-115047380D01*
X120167559Y-115047380D02*
X120167559Y-114047380D01*
X120072321Y-114190238D01*
X119977083Y-114285476D01*
X119881845Y-114333095D01*
X120834226Y-114142619D02*
X120881845Y-114095000D01*
X120977083Y-114047380D01*
X121215178Y-114047380D01*
X121310416Y-114095000D01*
X121358035Y-114142619D01*
X121405654Y-114237857D01*
X121405654Y-114333095D01*
X121358035Y-114475952D01*
X120786607Y-115047380D01*
X121405654Y-115047380D01*
X185827142Y-98942857D02*
X185874761Y-98990476D01*
X185922380Y-99133333D01*
X185922380Y-99228571D01*
X185874761Y-99371428D01*
X185779523Y-99466666D01*
X185684285Y-99514285D01*
X185493809Y-99561904D01*
X185350952Y-99561904D01*
X185160476Y-99514285D01*
X185065238Y-99466666D01*
X184970000Y-99371428D01*
X184922380Y-99228571D01*
X184922380Y-99133333D01*
X184970000Y-98990476D01*
X185017619Y-98942857D01*
X184922380Y-98609523D02*
X184922380Y-97990476D01*
X185303333Y-98323809D01*
X185303333Y-98180952D01*
X185350952Y-98085714D01*
X185398571Y-98038095D01*
X185493809Y-97990476D01*
X185731904Y-97990476D01*
X185827142Y-98038095D01*
X185874761Y-98085714D01*
X185922380Y-98180952D01*
X185922380Y-98466666D01*
X185874761Y-98561904D01*
X185827142Y-98609523D01*
X184922380Y-97133333D02*
X184922380Y-97323809D01*
X184970000Y-97419047D01*
X185017619Y-97466666D01*
X185160476Y-97561904D01*
X185350952Y-97609523D01*
X185731904Y-97609523D01*
X185827142Y-97561904D01*
X185874761Y-97514285D01*
X185922380Y-97419047D01*
X185922380Y-97228571D01*
X185874761Y-97133333D01*
X185827142Y-97085714D01*
X185731904Y-97038095D01*
X185493809Y-97038095D01*
X185398571Y-97085714D01*
X185350952Y-97133333D01*
X185303333Y-97228571D01*
X185303333Y-97419047D01*
X185350952Y-97514285D01*
X185398571Y-97561904D01*
X185493809Y-97609523D01*
X110827142Y-98842857D02*
X110874761Y-98890476D01*
X110922380Y-99033333D01*
X110922380Y-99128571D01*
X110874761Y-99271428D01*
X110779523Y-99366666D01*
X110684285Y-99414285D01*
X110493809Y-99461904D01*
X110350952Y-99461904D01*
X110160476Y-99414285D01*
X110065238Y-99366666D01*
X109970000Y-99271428D01*
X109922380Y-99128571D01*
X109922380Y-99033333D01*
X109970000Y-98890476D01*
X110017619Y-98842857D01*
X110255714Y-97985714D02*
X110922380Y-97985714D01*
X109874761Y-98223809D02*
X110589047Y-98461904D01*
X110589047Y-97842857D01*
X109922380Y-97557142D02*
X109922380Y-96890476D01*
X110922380Y-97319047D01*
X182267142Y-98942857D02*
X182314761Y-98990476D01*
X182362380Y-99133333D01*
X182362380Y-99228571D01*
X182314761Y-99371428D01*
X182219523Y-99466666D01*
X182124285Y-99514285D01*
X181933809Y-99561904D01*
X181790952Y-99561904D01*
X181600476Y-99514285D01*
X181505238Y-99466666D01*
X181410000Y-99371428D01*
X181362380Y-99228571D01*
X181362380Y-99133333D01*
X181410000Y-98990476D01*
X181457619Y-98942857D01*
X181362380Y-98609523D02*
X181362380Y-97990476D01*
X181743333Y-98323809D01*
X181743333Y-98180952D01*
X181790952Y-98085714D01*
X181838571Y-98038095D01*
X181933809Y-97990476D01*
X182171904Y-97990476D01*
X182267142Y-98038095D01*
X182314761Y-98085714D01*
X182362380Y-98180952D01*
X182362380Y-98466666D01*
X182314761Y-98561904D01*
X182267142Y-98609523D01*
X181362380Y-97657142D02*
X181362380Y-96990476D01*
X182362380Y-97419047D01*
X131949688Y-123740073D02*
X131377269Y-123639058D01*
X131545627Y-124144134D02*
X130838521Y-123437027D01*
X131107895Y-123167653D01*
X131208910Y-123133981D01*
X131276253Y-123133981D01*
X131377269Y-123167653D01*
X131478284Y-123268668D01*
X131511956Y-123369684D01*
X131511956Y-123437027D01*
X131478284Y-123538042D01*
X131208910Y-123807416D01*
X131478284Y-122797264D02*
X131916017Y-122359531D01*
X131949688Y-122864607D01*
X132050704Y-122763592D01*
X132151719Y-122729920D01*
X132219063Y-122729920D01*
X132320078Y-122763592D01*
X132488437Y-122931951D01*
X132522108Y-123032966D01*
X132522108Y-123100310D01*
X132488437Y-123201325D01*
X132286406Y-123403355D01*
X132185391Y-123437027D01*
X132118047Y-123437027D01*
X132151719Y-122123829D02*
X132589452Y-121686096D01*
X132623124Y-122191172D01*
X132724139Y-122090157D01*
X132825154Y-122056485D01*
X132892498Y-122056485D01*
X132993513Y-122090157D01*
X133161872Y-122258516D01*
X133195543Y-122359531D01*
X133195543Y-122426874D01*
X133161872Y-122527890D01*
X132959841Y-122729920D01*
X132858826Y-122763592D01*
X132791482Y-122763592D01*
X119455892Y-113497142D02*
X119408273Y-113544761D01*
X119265416Y-113592380D01*
X119170178Y-113592380D01*
X119027321Y-113544761D01*
X118932083Y-113449523D01*
X118884464Y-113354285D01*
X118836845Y-113163809D01*
X118836845Y-113020952D01*
X118884464Y-112830476D01*
X118932083Y-112735238D01*
X119027321Y-112640000D01*
X119170178Y-112592380D01*
X119265416Y-112592380D01*
X119408273Y-112640000D01*
X119455892Y-112687619D01*
X120408273Y-113592380D02*
X119836845Y-113592380D01*
X120122559Y-113592380D02*
X120122559Y-112592380D01*
X120027321Y-112735238D01*
X119932083Y-112830476D01*
X119836845Y-112878095D01*
X121360654Y-113592380D02*
X120789226Y-113592380D01*
X121074940Y-113592380D02*
X121074940Y-112592380D01*
X120979702Y-112735238D01*
X120884464Y-112830476D01*
X120789226Y-112878095D01*
X132127142Y-98772857D02*
X132174761Y-98820476D01*
X132222380Y-98963333D01*
X132222380Y-99058571D01*
X132174761Y-99201428D01*
X132079523Y-99296666D01*
X131984285Y-99344285D01*
X131793809Y-99391904D01*
X131650952Y-99391904D01*
X131460476Y-99344285D01*
X131365238Y-99296666D01*
X131270000Y-99201428D01*
X131222380Y-99058571D01*
X131222380Y-98963333D01*
X131270000Y-98820476D01*
X131317619Y-98772857D01*
X131555714Y-97915714D02*
X132222380Y-97915714D01*
X131174761Y-98153809D02*
X131889047Y-98391904D01*
X131889047Y-97772857D01*
X132222380Y-97344285D02*
X132222380Y-97153809D01*
X132174761Y-97058571D01*
X132127142Y-97010952D01*
X131984285Y-96915714D01*
X131793809Y-96868095D01*
X131412857Y-96868095D01*
X131317619Y-96915714D01*
X131270000Y-96963333D01*
X131222380Y-97058571D01*
X131222380Y-97249047D01*
X131270000Y-97344285D01*
X131317619Y-97391904D01*
X131412857Y-97439523D01*
X131650952Y-97439523D01*
X131746190Y-97391904D01*
X131793809Y-97344285D01*
X131841428Y-97249047D01*
X131841428Y-97058571D01*
X131793809Y-96963333D01*
X131746190Y-96915714D01*
X131650952Y-96868095D01*
X157402030Y-113037732D02*
X156829610Y-112936717D01*
X156997969Y-113441793D02*
X156290862Y-112734687D01*
X156560236Y-112465312D01*
X156661251Y-112431641D01*
X156728595Y-112431641D01*
X156829610Y-112465312D01*
X156930625Y-112566328D01*
X156964297Y-112667343D01*
X156964297Y-112734687D01*
X156930625Y-112835702D01*
X156661251Y-113105076D01*
X157334687Y-111690862D02*
X156997969Y-112027580D01*
X157301015Y-112397969D01*
X157301015Y-112330625D01*
X157334687Y-112229610D01*
X157503045Y-112061251D01*
X157604061Y-112027580D01*
X157671404Y-112027580D01*
X157772419Y-112061251D01*
X157940778Y-112229610D01*
X157974450Y-112330625D01*
X157974450Y-112397969D01*
X157940778Y-112498984D01*
X157772419Y-112667343D01*
X157671404Y-112701015D01*
X157604061Y-112701015D01*
X149222380Y-93271666D02*
X149222380Y-93747857D01*
X148222380Y-93747857D01*
X148555714Y-92509761D02*
X149222380Y-92509761D01*
X148174761Y-92747857D02*
X148889047Y-92985952D01*
X148889047Y-92366904D01*
X124322380Y-92546666D02*
X124322380Y-93022857D01*
X123322380Y-93022857D01*
X123322380Y-92308571D02*
X123322380Y-91689523D01*
X123703333Y-92022857D01*
X123703333Y-91880000D01*
X123750952Y-91784761D01*
X123798571Y-91737142D01*
X123893809Y-91689523D01*
X124131904Y-91689523D01*
X124227142Y-91737142D01*
X124274761Y-91784761D01*
X124322380Y-91880000D01*
X124322380Y-92165714D01*
X124274761Y-92260952D01*
X124227142Y-92308571D01*
X141772030Y-116517732D02*
X141199610Y-116416717D01*
X141367969Y-116921793D02*
X140660862Y-116214687D01*
X140930236Y-115945312D01*
X141031251Y-115911641D01*
X141098595Y-115911641D01*
X141199610Y-115945312D01*
X141300625Y-116046328D01*
X141334297Y-116147343D01*
X141334297Y-116214687D01*
X141300625Y-116315702D01*
X141031251Y-116585076D01*
X141300625Y-115574923D02*
X141738358Y-115137190D01*
X141772030Y-115642267D01*
X141873045Y-115541251D01*
X141974061Y-115507580D01*
X142041404Y-115507580D01*
X142142419Y-115541251D01*
X142310778Y-115709610D01*
X142344450Y-115810625D01*
X142344450Y-115877969D01*
X142310778Y-115978984D01*
X142108748Y-116181015D01*
X142007732Y-116214687D01*
X141940389Y-116214687D01*
X188681904Y-111582380D02*
X188681904Y-110582380D01*
X188920000Y-110582380D01*
X189062857Y-110630000D01*
X189158095Y-110725238D01*
X189205714Y-110820476D01*
X189253333Y-111010952D01*
X189253333Y-111153809D01*
X189205714Y-111344285D01*
X189158095Y-111439523D01*
X189062857Y-111534761D01*
X188920000Y-111582380D01*
X188681904Y-111582380D01*
X190205714Y-111582380D02*
X189634285Y-111582380D01*
X189920000Y-111582380D02*
X189920000Y-110582380D01*
X189824761Y-110725238D01*
X189729523Y-110820476D01*
X189634285Y-110868095D01*
X184627142Y-107696666D02*
X184674761Y-107744285D01*
X184722380Y-107887142D01*
X184722380Y-107982380D01*
X184674761Y-108125238D01*
X184579523Y-108220476D01*
X184484285Y-108268095D01*
X184293809Y-108315714D01*
X184150952Y-108315714D01*
X183960476Y-108268095D01*
X183865238Y-108220476D01*
X183770000Y-108125238D01*
X183722380Y-107982380D01*
X183722380Y-107887142D01*
X183770000Y-107744285D01*
X183817619Y-107696666D01*
X184722380Y-106744285D02*
X184722380Y-107315714D01*
X184722380Y-107030000D02*
X183722380Y-107030000D01*
X183865238Y-107125238D01*
X183960476Y-107220476D01*
X184008095Y-107315714D01*
D12*
X117503750Y-119287164D02*
X117503750Y-119502836D01*
X118223750Y-119287164D02*
X118223750Y-119502836D01*
X139349316Y-116463283D02*
X139132035Y-116680564D01*
X139886717Y-117000684D02*
X139669436Y-117217965D01*
X108810000Y-98107836D02*
X108810000Y-97892164D01*
X109530000Y-98107836D02*
X109530000Y-97892164D01*
X126410000Y-77320000D02*
X126410000Y-80430000D01*
X140330000Y-82330000D02*
X140330000Y-88780000D01*
X140330000Y-77320000D02*
X140330000Y-80430000D01*
X126410000Y-82330000D02*
X126410000Y-88780000D01*
X126410000Y-91690000D02*
X126410000Y-90980000D01*
X140330000Y-91690000D02*
X140330000Y-90980000D01*
X140330000Y-91690000D02*
X126410000Y-91690000D01*
X140330000Y-77320000D02*
X126410000Y-77320000D01*
X171355888Y-90811000D02*
X171355888Y-91090000D01*
X171635888Y-91453000D02*
X171635888Y-92807000D01*
X171395888Y-90879000D02*
X171395888Y-91090000D01*
X169514888Y-89580000D02*
X169514888Y-91090000D01*
X171195888Y-93170000D02*
X171195888Y-93684000D01*
X169474888Y-93170000D02*
X169474888Y-94686000D01*
X169234888Y-89552000D02*
X169234888Y-94708000D01*
X170795888Y-90159000D02*
X170795888Y-91090000D01*
X170995888Y-90345000D02*
X170995888Y-91090000D01*
X171035888Y-93170000D02*
X171035888Y-93873000D01*
X169634888Y-93170000D02*
X169634888Y-94658000D01*
X170195888Y-89782000D02*
X170195888Y-91090000D01*
X170555888Y-89981000D02*
X170555888Y-91090000D01*
X170235888Y-93170000D02*
X170235888Y-94459000D01*
X171235888Y-93170000D02*
X171235888Y-93630000D01*
X170675888Y-93170000D02*
X170675888Y-94195000D01*
X170275888Y-89820000D02*
X170275888Y-91090000D01*
X169354888Y-89561000D02*
X169354888Y-91090000D01*
X171435888Y-90952000D02*
X171435888Y-93308000D01*
X166310113Y-90655000D02*
X166810113Y-90655000D01*
X170715888Y-90095000D02*
X170715888Y-91090000D01*
X170395888Y-89883000D02*
X170395888Y-91090000D01*
X170875888Y-90229000D02*
X170875888Y-91090000D01*
X170515888Y-89955000D02*
X170515888Y-91090000D01*
X170635888Y-90035000D02*
X170635888Y-91090000D01*
X169594888Y-93170000D02*
X169594888Y-94666000D01*
X170075888Y-89732000D02*
X170075888Y-91090000D01*
X169714888Y-89619000D02*
X169714888Y-91090000D01*
X166560113Y-90405000D02*
X166560113Y-90905000D01*
X170595888Y-90008000D02*
X170595888Y-91090000D01*
X169875888Y-89662000D02*
X169875888Y-91090000D01*
X170755888Y-93170000D02*
X170755888Y-94134000D01*
X170475888Y-89930000D02*
X170475888Y-91090000D01*
X169915888Y-93170000D02*
X169915888Y-94585000D01*
X171355888Y-93170000D02*
X171355888Y-93449000D01*
X169835888Y-93170000D02*
X169835888Y-94610000D01*
X169394888Y-93170000D02*
X169394888Y-94695000D01*
X170915888Y-90266000D02*
X170915888Y-91090000D01*
X169754888Y-93170000D02*
X169754888Y-94631000D01*
X170235888Y-89801000D02*
X170235888Y-91090000D01*
X169154888Y-89550000D02*
X169154888Y-94710000D01*
X170355888Y-89862000D02*
X170355888Y-91090000D01*
X170195888Y-93170000D02*
X170195888Y-94478000D01*
X170275888Y-93170000D02*
X170275888Y-94440000D01*
X171115888Y-90477000D02*
X171115888Y-91090000D01*
X169674888Y-89610000D02*
X169674888Y-91090000D01*
X169955888Y-89688000D02*
X169955888Y-91090000D01*
X170115888Y-93170000D02*
X170115888Y-94512000D01*
X169434888Y-93170000D02*
X169434888Y-94691000D01*
X171315888Y-93170000D02*
X171315888Y-93513000D01*
X170075888Y-93170000D02*
X170075888Y-94528000D01*
X171275888Y-90687000D02*
X171275888Y-91090000D01*
X169875888Y-93170000D02*
X169875888Y-94598000D01*
X169394888Y-89565000D02*
X169394888Y-91090000D01*
X171155888Y-93170000D02*
X171155888Y-93735000D01*
X170835888Y-90193000D02*
X170835888Y-91090000D01*
X169554888Y-89587000D02*
X169554888Y-91090000D01*
X171475888Y-91032000D02*
X171475888Y-93228000D01*
X169754888Y-89629000D02*
X169754888Y-91090000D01*
X170355888Y-93170000D02*
X170355888Y-94398000D01*
X171315888Y-90747000D02*
X171315888Y-91090000D01*
X169674888Y-93170000D02*
X169674888Y-94650000D01*
X171595888Y-91325000D02*
X171595888Y-92935000D01*
X170115888Y-89748000D02*
X170115888Y-91090000D01*
X171515888Y-91119000D02*
X171515888Y-93141000D01*
X170435888Y-89906000D02*
X170435888Y-91090000D01*
X171035888Y-90387000D02*
X171035888Y-91090000D01*
X171395888Y-93170000D02*
X171395888Y-93381000D01*
X170875888Y-93170000D02*
X170875888Y-94031000D01*
X170475888Y-93170000D02*
X170475888Y-94330000D01*
X170675888Y-90065000D02*
X170675888Y-91090000D01*
X171155888Y-90525000D02*
X171155888Y-91090000D01*
X171075888Y-93170000D02*
X171075888Y-93829000D01*
X169634888Y-89602000D02*
X169634888Y-91090000D01*
X169554888Y-93170000D02*
X169554888Y-94673000D01*
X169434888Y-89569000D02*
X169434888Y-91090000D01*
X169114888Y-89550000D02*
X169114888Y-94710000D01*
X169594888Y-89594000D02*
X169594888Y-91090000D01*
X169995888Y-89702000D02*
X169995888Y-91090000D01*
X169194888Y-89551000D02*
X169194888Y-94709000D01*
X169274888Y-89554000D02*
X169274888Y-94706000D01*
X170995888Y-93170000D02*
X170995888Y-93915000D01*
X170955888Y-90304000D02*
X170955888Y-91090000D01*
X169474888Y-89574000D02*
X169474888Y-91090000D01*
X170795888Y-93170000D02*
X170795888Y-94101000D01*
X171195888Y-90576000D02*
X171195888Y-91090000D01*
X170915888Y-93170000D02*
X170915888Y-93994000D01*
X171075888Y-90431000D02*
X171075888Y-91090000D01*
X171235888Y-90630000D02*
X171235888Y-91090000D01*
X170595888Y-93170000D02*
X170595888Y-94252000D01*
X171115888Y-93170000D02*
X171115888Y-93783000D01*
X170155888Y-93170000D02*
X170155888Y-94495000D01*
X170955888Y-93170000D02*
X170955888Y-93956000D01*
X170395888Y-93170000D02*
X170395888Y-94377000D01*
X170035888Y-89716000D02*
X170035888Y-91090000D01*
X170315888Y-93170000D02*
X170315888Y-94420000D01*
X170755888Y-90126000D02*
X170755888Y-91090000D01*
X169995888Y-93170000D02*
X169995888Y-94558000D01*
X170515888Y-93170000D02*
X170515888Y-94305000D01*
X169714888Y-93170000D02*
X169714888Y-94641000D01*
X171555888Y-91215000D02*
X171555888Y-93045000D01*
X170635888Y-93170000D02*
X170635888Y-94225000D01*
X169915888Y-89675000D02*
X169915888Y-91090000D01*
X169835888Y-89650000D02*
X169835888Y-91090000D01*
X169794888Y-89639000D02*
X169794888Y-91090000D01*
X171675888Y-91612000D02*
X171675888Y-92648000D01*
X170035888Y-93170000D02*
X170035888Y-94544000D01*
X170155888Y-89765000D02*
X170155888Y-91090000D01*
X169354888Y-93170000D02*
X169354888Y-94699000D01*
X170315888Y-89840000D02*
X170315888Y-91090000D01*
X170835888Y-93170000D02*
X170835888Y-94067000D01*
X170435888Y-93170000D02*
X170435888Y-94354000D01*
X169794888Y-93170000D02*
X169794888Y-94621000D01*
X171715888Y-91846000D02*
X171715888Y-92414000D01*
X169955888Y-93170000D02*
X169955888Y-94572000D01*
X170715888Y-93170000D02*
X170715888Y-94165000D01*
X170555888Y-93170000D02*
X170555888Y-94279000D01*
X171275888Y-93170000D02*
X171275888Y-93573000D01*
X169514888Y-93170000D02*
X169514888Y-94680000D01*
X169314888Y-89557000D02*
X169314888Y-94703000D01*
X171734888Y-92130000D02*
G75*
G03*
X171734888Y-92130000I-2620000J0D01*
G01*
X158480000Y-98457836D02*
X158480000Y-98242164D01*
X157760000Y-98457836D02*
X157760000Y-98242164D01*
X144835888Y-93170000D02*
X144835888Y-94610000D01*
X145275888Y-93170000D02*
X145275888Y-94440000D01*
X145635888Y-93170000D02*
X145635888Y-94225000D01*
X146195888Y-90576000D02*
X146195888Y-91090000D01*
X145595888Y-93170000D02*
X145595888Y-94252000D01*
X146035888Y-93170000D02*
X146035888Y-93873000D01*
X144835888Y-89650000D02*
X144835888Y-91090000D01*
X141310113Y-90655000D02*
X141810113Y-90655000D01*
X146635888Y-91453000D02*
X146635888Y-92807000D01*
X145115888Y-93170000D02*
X145115888Y-94512000D01*
X145555888Y-89981000D02*
X145555888Y-91090000D01*
X145795888Y-90159000D02*
X145795888Y-91090000D01*
X141560113Y-90405000D02*
X141560113Y-90905000D01*
X145915888Y-90266000D02*
X145915888Y-91090000D01*
X145915888Y-93170000D02*
X145915888Y-93994000D01*
X144514888Y-89580000D02*
X144514888Y-91090000D01*
X145395888Y-89883000D02*
X145395888Y-91090000D01*
X145435888Y-89906000D02*
X145435888Y-91090000D01*
X145875888Y-90229000D02*
X145875888Y-91090000D01*
X145515888Y-93170000D02*
X145515888Y-94305000D01*
X145715888Y-90095000D02*
X145715888Y-91090000D01*
X145515888Y-89955000D02*
X145515888Y-91090000D01*
X146435888Y-90952000D02*
X146435888Y-93308000D01*
X144434888Y-93170000D02*
X144434888Y-94691000D01*
X145955888Y-90304000D02*
X145955888Y-91090000D01*
X145755888Y-90126000D02*
X145755888Y-91090000D01*
X145875888Y-93170000D02*
X145875888Y-94031000D01*
X146155888Y-93170000D02*
X146155888Y-93735000D01*
X146315888Y-90747000D02*
X146315888Y-91090000D01*
X145835888Y-93170000D02*
X145835888Y-94067000D01*
X144714888Y-89619000D02*
X144714888Y-91090000D01*
X146235888Y-93170000D02*
X146235888Y-93630000D01*
X146675888Y-91612000D02*
X146675888Y-92648000D01*
X146115888Y-93170000D02*
X146115888Y-93783000D01*
X145475888Y-89930000D02*
X145475888Y-91090000D01*
X146235888Y-90630000D02*
X146235888Y-91090000D01*
X145355888Y-93170000D02*
X145355888Y-94398000D01*
X144794888Y-93170000D02*
X144794888Y-94621000D01*
X144875888Y-89662000D02*
X144875888Y-91090000D01*
X146075888Y-93170000D02*
X146075888Y-93829000D01*
X146715888Y-91846000D02*
X146715888Y-92414000D01*
X146155888Y-90525000D02*
X146155888Y-91090000D01*
X145115888Y-89748000D02*
X145115888Y-91090000D01*
X145995888Y-90345000D02*
X145995888Y-91090000D01*
X145235888Y-93170000D02*
X145235888Y-94459000D01*
X144154888Y-89550000D02*
X144154888Y-94710000D01*
X146195888Y-93170000D02*
X146195888Y-93684000D01*
X144314888Y-89557000D02*
X144314888Y-94703000D01*
X145795888Y-93170000D02*
X145795888Y-94101000D01*
X145315888Y-93170000D02*
X145315888Y-94420000D01*
X144234888Y-89552000D02*
X144234888Y-94708000D01*
X144514888Y-93170000D02*
X144514888Y-94680000D01*
X145315888Y-89840000D02*
X145315888Y-91090000D01*
X144354888Y-93170000D02*
X144354888Y-94699000D01*
X144714888Y-93170000D02*
X144714888Y-94641000D01*
X145755888Y-93170000D02*
X145755888Y-94134000D01*
X145955888Y-93170000D02*
X145955888Y-93956000D01*
X145555888Y-93170000D02*
X145555888Y-94279000D01*
X145635888Y-90035000D02*
X145635888Y-91090000D01*
X146395888Y-93170000D02*
X146395888Y-93381000D01*
X144474888Y-89574000D02*
X144474888Y-91090000D01*
X144114888Y-89550000D02*
X144114888Y-94710000D01*
X145195888Y-93170000D02*
X145195888Y-94478000D01*
X144915888Y-93170000D02*
X144915888Y-94585000D01*
X146395888Y-90879000D02*
X146395888Y-91090000D01*
X145075888Y-89732000D02*
X145075888Y-91090000D01*
X145395888Y-93170000D02*
X145395888Y-94377000D01*
X144394888Y-89565000D02*
X144394888Y-91090000D01*
X146275888Y-93170000D02*
X146275888Y-93573000D01*
X145675888Y-90065000D02*
X145675888Y-91090000D01*
X145595888Y-90008000D02*
X145595888Y-91090000D01*
X145195888Y-89782000D02*
X145195888Y-91090000D01*
X144995888Y-89702000D02*
X144995888Y-91090000D01*
X145155888Y-93170000D02*
X145155888Y-94495000D01*
X146475888Y-91032000D02*
X146475888Y-93228000D01*
X145715888Y-93170000D02*
X145715888Y-94165000D01*
X144754888Y-89629000D02*
X144754888Y-91090000D01*
X144594888Y-89594000D02*
X144594888Y-91090000D01*
X146555888Y-91215000D02*
X146555888Y-93045000D01*
X144875888Y-93170000D02*
X144875888Y-94598000D01*
X144394888Y-93170000D02*
X144394888Y-94695000D01*
X146275888Y-90687000D02*
X146275888Y-91090000D01*
X146355888Y-93170000D02*
X146355888Y-93449000D01*
X144674888Y-89610000D02*
X144674888Y-91090000D01*
X145835888Y-90193000D02*
X145835888Y-91090000D01*
X144915888Y-89675000D02*
X144915888Y-91090000D01*
X145675888Y-93170000D02*
X145675888Y-94195000D01*
X146515888Y-91119000D02*
X146515888Y-93141000D01*
X146355888Y-90811000D02*
X146355888Y-91090000D01*
X144955888Y-93170000D02*
X144955888Y-94572000D01*
X144354888Y-89561000D02*
X144354888Y-91090000D01*
X144995888Y-93170000D02*
X144995888Y-94558000D01*
X146035888Y-90387000D02*
X146035888Y-91090000D01*
X144474888Y-93170000D02*
X144474888Y-94686000D01*
X146075888Y-90431000D02*
X146075888Y-91090000D01*
X146595888Y-91325000D02*
X146595888Y-92935000D01*
X144434888Y-89569000D02*
X144434888Y-91090000D01*
X146315888Y-93170000D02*
X146315888Y-93513000D01*
X144554888Y-93170000D02*
X144554888Y-94673000D01*
X145475888Y-93170000D02*
X145475888Y-94330000D01*
X145235888Y-89801000D02*
X145235888Y-91090000D01*
X144194888Y-89551000D02*
X144194888Y-94709000D01*
X144794888Y-89639000D02*
X144794888Y-91090000D01*
X145155888Y-89765000D02*
X145155888Y-91090000D01*
X145435888Y-93170000D02*
X145435888Y-94354000D01*
X145035888Y-93170000D02*
X145035888Y-94544000D01*
X144274888Y-89554000D02*
X144274888Y-94706000D01*
X145355888Y-89862000D02*
X145355888Y-91090000D01*
X144634888Y-93170000D02*
X144634888Y-94658000D01*
X144594888Y-93170000D02*
X144594888Y-94666000D01*
X144554888Y-89587000D02*
X144554888Y-91090000D01*
X144754888Y-93170000D02*
X144754888Y-94631000D01*
X145275888Y-89820000D02*
X145275888Y-91090000D01*
X145035888Y-89716000D02*
X145035888Y-91090000D01*
X144955888Y-89688000D02*
X144955888Y-91090000D01*
X144674888Y-93170000D02*
X144674888Y-94650000D01*
X146115888Y-90477000D02*
X146115888Y-91090000D01*
X145075888Y-93170000D02*
X145075888Y-94528000D01*
X145995888Y-93170000D02*
X145995888Y-93915000D01*
X144634888Y-89602000D02*
X144634888Y-91090000D01*
X146734888Y-92130000D02*
G75*
G03*
X146734888Y-92130000I-2620000J0D01*
G01*
G36*
X171138262Y-109756454D02*
G01*
X171149769Y-109778105D01*
X171170214Y-109817297D01*
X171198545Y-109871988D01*
X171233710Y-109940136D01*
X171274659Y-110019701D01*
X171320341Y-110108640D01*
X171369705Y-110204914D01*
X171421698Y-110306480D01*
X171450963Y-110363717D01*
X171503219Y-110465705D01*
X171552913Y-110562192D01*
X171599073Y-110651326D01*
X171640731Y-110731260D01*
X171676917Y-110800144D01*
X171706660Y-110856127D01*
X171728990Y-110897361D01*
X171742938Y-110921995D01*
X171746955Y-110928127D01*
X171790519Y-110961111D01*
X171848275Y-110977363D01*
X171880208Y-110979208D01*
X171900541Y-110977774D01*
X171924046Y-110972857D01*
X171952706Y-110963531D01*
X171988500Y-110948874D01*
X172033411Y-110927961D01*
X172089419Y-110899869D01*
X172158505Y-110863673D01*
X172242650Y-110818451D01*
X172343835Y-110763277D01*
X172347468Y-110761286D01*
X172397866Y-110734767D01*
X172437050Y-110716381D01*
X172462424Y-110707243D01*
X172471347Y-110707982D01*
X172469897Y-110720533D01*
X172464810Y-110753108D01*
X172456366Y-110804100D01*
X172444844Y-110871903D01*
X172430524Y-110954910D01*
X172413686Y-111051514D01*
X172394609Y-111160110D01*
X172373573Y-111279091D01*
X172350857Y-111406849D01*
X172326741Y-111541779D01*
X172310340Y-111633168D01*
X172285206Y-111773160D01*
X172261072Y-111907921D01*
X172238241Y-112035741D01*
X172217015Y-112154912D01*
X172197696Y-112263724D01*
X172180587Y-112360470D01*
X172165990Y-112443439D01*
X172154209Y-112510923D01*
X172145545Y-112561212D01*
X172140300Y-112592599D01*
X172138924Y-112601622D01*
X172137276Y-112664883D01*
X172148742Y-112719870D01*
X172171627Y-112763429D01*
X172204233Y-112792408D01*
X172244865Y-112803657D01*
X172247678Y-112803700D01*
X172265863Y-112803156D01*
X172283060Y-112800696D01*
X172300541Y-112795078D01*
X172319573Y-112785061D01*
X172341426Y-112769404D01*
X172367370Y-112746865D01*
X172398673Y-112716203D01*
X172436605Y-112676175D01*
X172482435Y-112625541D01*
X172537433Y-112563060D01*
X172602867Y-112487488D01*
X172680007Y-112397586D01*
X172767121Y-112295628D01*
X172841614Y-112208446D01*
X172911949Y-112126305D01*
X172976814Y-112050725D01*
X173034899Y-111983226D01*
X173084891Y-111925326D01*
X173125479Y-111878545D01*
X173155353Y-111844404D01*
X173173201Y-111824420D01*
X173177832Y-111819674D01*
X173185942Y-111825557D01*
X173195614Y-111847144D01*
X173199777Y-111860897D01*
X173229160Y-111970782D01*
X173253722Y-112061414D01*
X173274116Y-112134834D01*
X173290996Y-112193077D01*
X173305015Y-112238183D01*
X173316827Y-112272189D01*
X173327085Y-112297132D01*
X173336443Y-112315051D01*
X173345555Y-112327983D01*
X173351747Y-112334773D01*
X173365420Y-112347545D01*
X173379646Y-112357658D01*
X173396339Y-112364913D01*
X173417413Y-112369109D01*
X173444783Y-112370049D01*
X173480362Y-112367532D01*
X173526066Y-112361359D01*
X173583809Y-112351331D01*
X173655504Y-112337249D01*
X173743067Y-112318913D01*
X173848412Y-112296124D01*
X173961726Y-112271263D01*
X174061434Y-112249428D01*
X174154510Y-112229250D01*
X174238764Y-112211190D01*
X174312007Y-112195708D01*
X174372052Y-112183263D01*
X174416709Y-112174314D01*
X174443791Y-112169321D01*
X174451295Y-112168464D01*
X174450038Y-112179392D01*
X174443597Y-112209575D01*
X174432466Y-112257031D01*
X174417137Y-112319778D01*
X174398103Y-112395836D01*
X174375856Y-112483221D01*
X174350890Y-112579953D01*
X174323697Y-112684050D01*
X174312451Y-112726763D01*
X174283904Y-112835727D01*
X174256946Y-112940147D01*
X174232141Y-113037733D01*
X174210052Y-113126198D01*
X174191243Y-113203252D01*
X174176278Y-113266607D01*
X174165720Y-113313972D01*
X174160133Y-113343060D01*
X174159523Y-113347750D01*
X174157461Y-113379793D01*
X174159649Y-113406437D01*
X174168247Y-113429678D01*
X174185418Y-113451511D01*
X174213323Y-113473930D01*
X174254123Y-113498931D01*
X174309980Y-113528508D01*
X174383055Y-113564657D01*
X174407283Y-113576415D01*
X174475377Y-113609516D01*
X174525868Y-113634577D01*
X174560988Y-113653030D01*
X174582969Y-113666304D01*
X174594046Y-113675830D01*
X174596452Y-113683040D01*
X174592418Y-113689363D01*
X174588691Y-113692634D01*
X174577410Y-113702125D01*
X174550542Y-113724873D01*
X174509247Y-113759892D01*
X174454684Y-113806198D01*
X174388010Y-113862808D01*
X174310386Y-113928736D01*
X174222971Y-114002999D01*
X174126922Y-114084611D01*
X174023400Y-114172590D01*
X173913563Y-114265949D01*
X173798569Y-114363705D01*
X173727927Y-114423764D01*
X173587544Y-114543109D01*
X173462936Y-114649094D01*
X173353163Y-114742633D01*
X173257286Y-114824645D01*
X173174365Y-114896043D01*
X173103459Y-114957744D01*
X173043630Y-115010665D01*
X172993938Y-115055720D01*
X172953443Y-115093827D01*
X172921205Y-115125900D01*
X172896285Y-115152857D01*
X172877742Y-115175612D01*
X172864638Y-115195082D01*
X172856032Y-115212183D01*
X172850985Y-115227830D01*
X172848557Y-115242940D01*
X172847808Y-115258429D01*
X172847799Y-115275212D01*
X172847796Y-115281639D01*
X172851324Y-115314758D01*
X172861923Y-115367421D01*
X172879316Y-115438459D01*
X172903224Y-115526698D01*
X172920461Y-115587004D01*
X172940662Y-115657620D01*
X172958202Y-115721062D01*
X172972308Y-115774343D01*
X172982202Y-115814480D01*
X172987111Y-115838489D01*
X172987251Y-115844041D01*
X172975628Y-115843730D01*
X172943875Y-115840933D01*
X172893680Y-115835840D01*
X172826732Y-115828642D01*
X172744717Y-115819528D01*
X172649325Y-115808690D01*
X172542244Y-115796316D01*
X172425162Y-115782597D01*
X172299767Y-115767724D01*
X172167747Y-115751886D01*
X172148484Y-115749561D01*
X172014994Y-115733567D01*
X171887392Y-115718538D01*
X171767425Y-115704665D01*
X171656841Y-115692136D01*
X171557388Y-115681143D01*
X171470814Y-115671875D01*
X171398866Y-115664521D01*
X171343293Y-115659273D01*
X171305842Y-115656321D01*
X171288261Y-115655853D01*
X171287600Y-115655965D01*
X171252033Y-115672982D01*
X171219232Y-115701750D01*
X171199190Y-115732778D01*
X171198087Y-115747143D01*
X171197567Y-115781690D01*
X171197605Y-115834628D01*
X171198175Y-115904166D01*
X171199251Y-115988512D01*
X171200809Y-116085875D01*
X171202821Y-116194464D01*
X171205263Y-116312487D01*
X171208110Y-116438154D01*
X171210877Y-116551601D01*
X171214222Y-116685898D01*
X171217405Y-116816702D01*
X171220380Y-116941894D01*
X171223100Y-117059352D01*
X171225517Y-117166956D01*
X171227585Y-117262585D01*
X171229256Y-117344118D01*
X171230484Y-117409435D01*
X171231221Y-117456414D01*
X171231422Y-117477586D01*
X171231891Y-117606729D01*
X170946677Y-117606729D01*
X170951459Y-117576504D01*
X170952618Y-117561071D01*
X170954550Y-117525360D01*
X170957182Y-117471057D01*
X170960441Y-117399849D01*
X170964255Y-117313424D01*
X170968549Y-117213468D01*
X170973252Y-117101669D01*
X170978291Y-116979713D01*
X170983592Y-116849287D01*
X170989083Y-116712079D01*
X170992107Y-116635618D01*
X171027973Y-115724956D01*
X170992630Y-115693377D01*
X170963727Y-115671620D01*
X170935884Y-115656848D01*
X170930002Y-115654950D01*
X170914943Y-115655151D01*
X170879809Y-115657856D01*
X170826341Y-115662875D01*
X170756280Y-115670019D01*
X170671367Y-115679097D01*
X170573342Y-115689920D01*
X170463948Y-115702298D01*
X170344925Y-115716042D01*
X170218013Y-115730961D01*
X170084955Y-115746865D01*
X170066275Y-115749118D01*
X169933140Y-115765110D01*
X169806386Y-115780166D01*
X169687698Y-115794096D01*
X169578759Y-115806711D01*
X169481255Y-115817821D01*
X169396868Y-115827236D01*
X169327284Y-115834767D01*
X169274187Y-115840224D01*
X169239261Y-115843418D01*
X169224190Y-115844157D01*
X169223728Y-115844030D01*
X169224952Y-115832211D01*
X169231670Y-115802309D01*
X169243106Y-115757306D01*
X169258485Y-115700186D01*
X169277031Y-115633936D01*
X169290529Y-115587004D01*
X169318188Y-115489066D01*
X169339499Y-115407633D01*
X169354182Y-115343875D01*
X169361959Y-115298964D01*
X169363194Y-115281639D01*
X169363222Y-115264178D01*
X169362842Y-115248336D01*
X169361117Y-115233196D01*
X169357105Y-115217844D01*
X169349867Y-115201363D01*
X169338463Y-115182837D01*
X169321955Y-115161350D01*
X169299401Y-115135987D01*
X169269863Y-115105831D01*
X169232400Y-115069966D01*
X169186073Y-115027476D01*
X169129942Y-114977446D01*
X169063067Y-114918960D01*
X168984510Y-114851101D01*
X168893329Y-114772954D01*
X168788585Y-114683603D01*
X168669340Y-114582131D01*
X168534652Y-114467623D01*
X168483063Y-114423764D01*
X168365544Y-114323852D01*
X168252488Y-114227749D01*
X168145056Y-114136440D01*
X168044405Y-114050908D01*
X167951696Y-113972138D01*
X167868086Y-113901115D01*
X167794735Y-113838823D01*
X167732801Y-113786246D01*
X167683444Y-113744369D01*
X167647823Y-113714176D01*
X167627095Y-113696651D01*
X167622299Y-113692634D01*
X167615887Y-113686218D01*
X167614799Y-113679630D01*
X167621267Y-113671439D01*
X167637526Y-113660215D01*
X167665807Y-113644526D01*
X167708345Y-113622943D01*
X167767371Y-113594035D01*
X167803708Y-113576415D01*
X167882075Y-113538033D01*
X167942609Y-113506790D01*
X167987471Y-113480691D01*
X168018823Y-113457740D01*
X168038827Y-113435944D01*
X168049643Y-113413306D01*
X168053434Y-113387832D01*
X168052361Y-113357528D01*
X168051468Y-113347750D01*
X168047428Y-113324391D01*
X168038253Y-113282090D01*
X168024508Y-113223137D01*
X168006756Y-113149820D01*
X167985560Y-113064429D01*
X167961484Y-112969252D01*
X167935093Y-112866578D01*
X167906949Y-112758697D01*
X167898540Y-112726763D01*
X167870603Y-112620303D01*
X167844699Y-112520425D01*
X167821319Y-112429111D01*
X167800957Y-112348342D01*
X167784105Y-112280101D01*
X167771257Y-112226367D01*
X167762905Y-112189124D01*
X167759542Y-112170353D01*
X167759696Y-112168464D01*
X167771679Y-112170081D01*
X167802932Y-112176010D01*
X167851265Y-112185791D01*
X167914489Y-112198964D01*
X167990418Y-112215070D01*
X168076861Y-112233650D01*
X168171630Y-112254243D01*
X168249265Y-112271263D01*
X168372520Y-112298292D01*
X168476245Y-112320685D01*
X168562355Y-112338642D01*
X168632762Y-112352363D01*
X168689381Y-112362047D01*
X168734126Y-112367895D01*
X168768910Y-112370107D01*
X168795647Y-112368882D01*
X168816251Y-112364420D01*
X168832635Y-112356921D01*
X168846714Y-112346585D01*
X168859064Y-112334953D01*
X168870377Y-112321469D01*
X168881253Y-112302865D01*
X168892711Y-112276296D01*
X168905774Y-112238918D01*
X168921461Y-112187883D01*
X168940795Y-112120349D01*
X168956850Y-112062440D01*
X168976017Y-111993200D01*
X168993375Y-111931371D01*
X169008046Y-111880003D01*
X169019157Y-111842140D01*
X169025832Y-111820831D01*
X169027270Y-111817293D01*
X169035197Y-111824187D01*
X169055445Y-111845731D01*
X169086125Y-111879802D01*
X169125347Y-111924278D01*
X169171223Y-111977036D01*
X169221864Y-112035954D01*
X169222245Y-112036399D01*
X169283516Y-112108078D01*
X169354540Y-112191165D01*
X169430788Y-112280361D01*
X169507729Y-112370366D01*
X169580832Y-112455881D01*
X169629611Y-112512940D01*
X169696980Y-112591306D01*
X169752299Y-112654319D01*
X169797454Y-112703624D01*
X169834332Y-112740866D01*
X169864822Y-112767689D01*
X169890811Y-112785738D01*
X169914186Y-112796658D01*
X169936835Y-112802093D01*
X169960646Y-112803688D01*
X169963313Y-112803700D01*
X170004397Y-112793684D01*
X170037564Y-112765736D01*
X170061116Y-112723010D01*
X170073358Y-112668656D01*
X170072594Y-112605826D01*
X170072067Y-112601622D01*
X170069009Y-112582339D01*
X170062350Y-112543132D01*
X170052394Y-112485710D01*
X170039442Y-112411783D01*
X170023797Y-112323059D01*
X170005761Y-112221247D01*
X169985638Y-112108057D01*
X169963728Y-111985196D01*
X169940336Y-111854374D01*
X169915763Y-111717301D01*
X169900651Y-111633168D01*
X169875770Y-111494415D01*
X169852106Y-111361783D01*
X169829940Y-111236878D01*
X169809549Y-111121306D01*
X169791215Y-111016675D01*
X169775216Y-110924590D01*
X169761832Y-110846658D01*
X169751343Y-110784486D01*
X169744028Y-110739680D01*
X169740167Y-110713847D01*
X169739644Y-110707982D01*
X169749968Y-110707592D01*
X169776497Y-110717480D01*
X169816635Y-110736532D01*
X169863522Y-110761286D01*
X169965300Y-110816802D01*
X170049973Y-110862337D01*
X170119522Y-110898814D01*
X170175928Y-110927158D01*
X170221171Y-110948292D01*
X170257234Y-110963139D01*
X170286096Y-110972625D01*
X170309739Y-110977673D01*
X170330144Y-110979207D01*
X170330782Y-110979208D01*
X170395143Y-110970819D01*
X170445367Y-110945684D01*
X170464028Y-110928127D01*
X170472109Y-110914936D01*
X170489251Y-110883897D01*
X170514542Y-110836750D01*
X170547070Y-110775235D01*
X170585923Y-110701093D01*
X170630190Y-110616065D01*
X170678958Y-110521891D01*
X170731316Y-110420313D01*
X170786353Y-110313070D01*
X170792786Y-110300504D01*
X171103609Y-109693242D01*
X171138262Y-109756454D01*
G37*
X148697341Y-122140060D02*
X148480060Y-122357341D01*
X148159940Y-121602659D02*
X147942659Y-121819940D01*
X154430000Y-119072164D02*
X154430000Y-119287836D01*
X153710000Y-119072164D02*
X153710000Y-119287836D01*
X165330000Y-82330000D02*
X165330000Y-88780000D01*
X165330000Y-77320000D02*
X151410000Y-77320000D01*
X151410000Y-77320000D02*
X151410000Y-80430000D01*
X151410000Y-91690000D02*
X151410000Y-90980000D01*
X151410000Y-82330000D02*
X151410000Y-88780000D01*
X165330000Y-77320000D02*
X165330000Y-80430000D01*
X165330000Y-91690000D02*
X151410000Y-91690000D01*
X165330000Y-91690000D02*
X165330000Y-90980000D01*
X143632035Y-120680564D02*
X143849316Y-120463283D01*
X144169436Y-121217965D02*
X144386717Y-121000684D01*
X118228750Y-117527836D02*
X118228750Y-117312164D01*
X117508750Y-117527836D02*
X117508750Y-117312164D01*
X101410000Y-91690000D02*
X101410000Y-90980000D01*
X101410000Y-77320000D02*
X101410000Y-80430000D01*
X115330000Y-91690000D02*
X101410000Y-91690000D01*
X101410000Y-82330000D02*
X101410000Y-88780000D01*
X115330000Y-82330000D02*
X115330000Y-88780000D01*
X115330000Y-91690000D02*
X115330000Y-90980000D01*
X115330000Y-77320000D02*
X101410000Y-77320000D01*
X115330000Y-77320000D02*
X115330000Y-80430000D01*
D13*
X135420001Y-95435001D02*
X135420001Y-95685000D01*
X135420001Y-93325000D02*
X135420001Y-93874999D01*
X131319999Y-95685000D02*
X131569999Y-95685000D01*
X131319999Y-93325000D02*
X131570001Y-93325000D01*
X135169999Y-95685000D02*
X135420001Y-95685000D01*
X134870002Y-93324997D02*
X135420004Y-93324997D01*
X131319999Y-95434998D02*
X131319999Y-95685000D01*
X131319999Y-93325000D02*
X131319999Y-93574999D01*
D12*
X115231250Y-117705000D02*
X114431250Y-117705000D01*
X115231250Y-114585000D02*
X116031250Y-114585000D01*
X115231250Y-114585000D02*
X113431250Y-114585000D01*
X115231250Y-117705000D02*
X116031250Y-117705000D01*
X112203750Y-119287164D02*
X112203750Y-119502836D01*
X112923750Y-119287164D02*
X112923750Y-119502836D01*
X112208750Y-121262164D02*
X112208750Y-121477836D01*
X112928750Y-121262164D02*
X112928750Y-121477836D01*
X115263750Y-118260000D02*
X116063750Y-118260000D01*
X115263750Y-121380000D02*
X117063750Y-121380000D01*
X115263750Y-121380000D02*
X114463750Y-121380000D01*
X115263750Y-118260000D02*
X114463750Y-118260000D01*
X147025456Y-118377253D02*
X146689580Y-118041377D01*
X147361332Y-118041377D02*
X147025456Y-118377253D01*
X140505931Y-111857728D02*
X140841807Y-112193604D01*
X146689580Y-105674079D02*
X147025456Y-105338203D01*
X153209105Y-112193604D02*
X153544981Y-111857728D01*
X147025456Y-105338203D02*
X147361332Y-105674079D01*
X140841807Y-111521852D02*
X140505931Y-111857728D01*
X97885000Y-114590000D02*
X100695000Y-114590000D01*
X108105000Y-127810000D02*
X97885000Y-127810000D01*
X97885000Y-127810000D02*
X97885000Y-124750000D01*
X108105000Y-124750000D02*
X108105000Y-127810000D01*
X105295000Y-114590000D02*
X108105000Y-114590000D01*
X108105000Y-114590000D02*
X108105000Y-120650000D01*
X101995000Y-114400000D02*
X103995000Y-114400000D01*
X97885000Y-120650000D02*
X97885000Y-114590000D01*
X179260000Y-113270000D02*
X193180000Y-113270000D01*
X193180000Y-113270000D02*
X193180000Y-113980000D01*
X179260000Y-127640000D02*
X193180000Y-127640000D01*
X193180000Y-122630000D02*
X193180000Y-116180000D01*
X193180000Y-127640000D02*
X193180000Y-124530000D01*
X179260000Y-127640000D02*
X179260000Y-124530000D01*
X179260000Y-113270000D02*
X179260000Y-113980000D01*
X179260000Y-122630000D02*
X179260000Y-116180000D01*
X156927548Y-115723920D02*
X156711876Y-115723920D01*
X156927548Y-115003920D02*
X156711876Y-115003920D01*
X147986399Y-119547718D02*
X147833896Y-119700221D01*
X147477282Y-119038601D02*
X147324779Y-119191104D01*
X120251000Y-93520000D02*
X120251000Y-94828000D01*
X120491000Y-93520000D02*
X120491000Y-94704000D01*
X121291000Y-93520000D02*
X121291000Y-93980000D01*
X121411000Y-91161000D02*
X121411000Y-91440000D01*
X120171000Y-93520000D02*
X120171000Y-94862000D01*
X120691000Y-90385000D02*
X120691000Y-91440000D01*
X121131000Y-90781000D02*
X121131000Y-91440000D01*
X120331000Y-90170000D02*
X120331000Y-91440000D01*
X120771000Y-90445000D02*
X120771000Y-91440000D01*
X120411000Y-90212000D02*
X120411000Y-91440000D01*
X120131000Y-93520000D02*
X120131000Y-94878000D01*
X119730000Y-93520000D02*
X119730000Y-95000000D01*
X119410000Y-89911000D02*
X119410000Y-91440000D01*
X119770000Y-89969000D02*
X119770000Y-91440000D01*
X119170000Y-89900000D02*
X119170000Y-95060000D01*
X119410000Y-93520000D02*
X119410000Y-95049000D01*
X119290000Y-89902000D02*
X119290000Y-95058000D01*
X120531000Y-90280000D02*
X120531000Y-91440000D01*
X116365225Y-91005000D02*
X116865225Y-91005000D01*
X121331000Y-91037000D02*
X121331000Y-91440000D01*
X120811000Y-90476000D02*
X120811000Y-91440000D01*
X121171000Y-90827000D02*
X121171000Y-91440000D01*
X119891000Y-93520000D02*
X119891000Y-94960000D01*
X120371000Y-90190000D02*
X120371000Y-91440000D01*
X120171000Y-90098000D02*
X120171000Y-91440000D01*
X120851000Y-93520000D02*
X120851000Y-94451000D01*
X121011000Y-93520000D02*
X121011000Y-94306000D01*
X121051000Y-93520000D02*
X121051000Y-94265000D01*
X121411000Y-93520000D02*
X121411000Y-93799000D01*
X121091000Y-90737000D02*
X121091000Y-91440000D01*
X120091000Y-90066000D02*
X120091000Y-91440000D01*
X120571000Y-93520000D02*
X120571000Y-94655000D01*
X121011000Y-90654000D02*
X121011000Y-91440000D01*
X120611000Y-90331000D02*
X120611000Y-91440000D01*
X120731000Y-93520000D02*
X120731000Y-94545000D01*
X119891000Y-90000000D02*
X119891000Y-91440000D01*
X121251000Y-90926000D02*
X121251000Y-91440000D01*
X120331000Y-93520000D02*
X120331000Y-94790000D01*
X120371000Y-93520000D02*
X120371000Y-94770000D01*
X120051000Y-93520000D02*
X120051000Y-94908000D01*
X119250000Y-89901000D02*
X119250000Y-95059000D01*
X120771000Y-93520000D02*
X120771000Y-94515000D01*
X120691000Y-93520000D02*
X120691000Y-94575000D01*
X120051000Y-90052000D02*
X120051000Y-91440000D01*
X119810000Y-89979000D02*
X119810000Y-91440000D01*
X121651000Y-91675000D02*
X121651000Y-93285000D01*
X119730000Y-89960000D02*
X119730000Y-91440000D01*
X121491000Y-91302000D02*
X121491000Y-93658000D01*
X120651000Y-93520000D02*
X120651000Y-94602000D01*
X120531000Y-93520000D02*
X120531000Y-94680000D01*
X120011000Y-93520000D02*
X120011000Y-94922000D01*
X120971000Y-90616000D02*
X120971000Y-91440000D01*
X120571000Y-90305000D02*
X120571000Y-91440000D01*
X121451000Y-91229000D02*
X121451000Y-91440000D01*
X119450000Y-93520000D02*
X119450000Y-95045000D01*
X121291000Y-90980000D02*
X121291000Y-91440000D01*
X120091000Y-93520000D02*
X120091000Y-94894000D01*
X119210000Y-89900000D02*
X119210000Y-95060000D01*
X121691000Y-91803000D02*
X121691000Y-93157000D01*
X120251000Y-90132000D02*
X120251000Y-91440000D01*
X120891000Y-93520000D02*
X120891000Y-94417000D01*
X119610000Y-93520000D02*
X119610000Y-95023000D01*
X120291000Y-90151000D02*
X120291000Y-91440000D01*
X119530000Y-93520000D02*
X119530000Y-95036000D01*
X121171000Y-93520000D02*
X121171000Y-94133000D01*
X119530000Y-89924000D02*
X119530000Y-91440000D01*
X121371000Y-91097000D02*
X121371000Y-91440000D01*
X119370000Y-89907000D02*
X119370000Y-95053000D01*
X120131000Y-90082000D02*
X120131000Y-91440000D01*
X116615225Y-90755000D02*
X116615225Y-91255000D01*
X119570000Y-89930000D02*
X119570000Y-91440000D01*
X120811000Y-93520000D02*
X120811000Y-94484000D01*
X119690000Y-89952000D02*
X119690000Y-91440000D01*
X121331000Y-93520000D02*
X121331000Y-93923000D01*
X121771000Y-92196000D02*
X121771000Y-92764000D01*
X120931000Y-93520000D02*
X120931000Y-94381000D01*
X120451000Y-90233000D02*
X120451000Y-91440000D01*
X120611000Y-93520000D02*
X120611000Y-94629000D01*
X120291000Y-93520000D02*
X120291000Y-94809000D01*
X119971000Y-90025000D02*
X119971000Y-91440000D01*
X119650000Y-89944000D02*
X119650000Y-91440000D01*
X119650000Y-93520000D02*
X119650000Y-95016000D01*
X121211000Y-90875000D02*
X121211000Y-91440000D01*
X119931000Y-90012000D02*
X119931000Y-91440000D01*
X120211000Y-93520000D02*
X120211000Y-94845000D01*
X119690000Y-93520000D02*
X119690000Y-95008000D01*
X120011000Y-90038000D02*
X120011000Y-91440000D01*
X119850000Y-89989000D02*
X119850000Y-91440000D01*
X119570000Y-93520000D02*
X119570000Y-95030000D01*
X121131000Y-93520000D02*
X121131000Y-94179000D01*
X121091000Y-93520000D02*
X121091000Y-94223000D01*
X120731000Y-90415000D02*
X120731000Y-91440000D01*
X120211000Y-90115000D02*
X120211000Y-91440000D01*
X121371000Y-93520000D02*
X121371000Y-93863000D01*
X120971000Y-93520000D02*
X120971000Y-94344000D01*
X121251000Y-93520000D02*
X121251000Y-94034000D01*
X121571000Y-91469000D02*
X121571000Y-93491000D01*
X119490000Y-89919000D02*
X119490000Y-91440000D01*
X121531000Y-91382000D02*
X121531000Y-93578000D01*
X120411000Y-93520000D02*
X120411000Y-94748000D01*
X119971000Y-93520000D02*
X119971000Y-94935000D01*
X121451000Y-93520000D02*
X121451000Y-93731000D01*
X120651000Y-90358000D02*
X120651000Y-91440000D01*
X119450000Y-89915000D02*
X119450000Y-91440000D01*
X121731000Y-91962000D02*
X121731000Y-92998000D01*
X119490000Y-93520000D02*
X119490000Y-95041000D01*
X120451000Y-93520000D02*
X120451000Y-94727000D01*
X121051000Y-90695000D02*
X121051000Y-91440000D01*
X119810000Y-93520000D02*
X119810000Y-94981000D01*
X121611000Y-91565000D02*
X121611000Y-93395000D01*
X120851000Y-90509000D02*
X120851000Y-91440000D01*
X119770000Y-93520000D02*
X119770000Y-94991000D01*
X120931000Y-90579000D02*
X120931000Y-91440000D01*
X119610000Y-89937000D02*
X119610000Y-91440000D01*
X120491000Y-90256000D02*
X120491000Y-91440000D01*
X120891000Y-90543000D02*
X120891000Y-91440000D01*
X119931000Y-93520000D02*
X119931000Y-94948000D01*
X121211000Y-93520000D02*
X121211000Y-94085000D01*
X119330000Y-89904000D02*
X119330000Y-95056000D01*
X119850000Y-93520000D02*
X119850000Y-94971000D01*
X121790000Y-92480000D02*
G75*
G03*
X121790000Y-92480000I-2620000J0D01*
G01*
X142470564Y-119542035D02*
X142253283Y-119759316D01*
X143007965Y-120079436D02*
X142790684Y-120296717D01*
D13*
X160520001Y-95660001D02*
X160520001Y-95910000D01*
X156419999Y-95659998D02*
X156419999Y-95910000D01*
X160520001Y-93550000D02*
X160520001Y-94099999D01*
X156419999Y-95910000D02*
X156669999Y-95910000D01*
X156419999Y-93550000D02*
X156670001Y-93550000D01*
X159970002Y-93549997D02*
X160520004Y-93549997D01*
X160269999Y-95910000D02*
X160520001Y-95910000D01*
X156419999Y-93550000D02*
X156419999Y-93799999D01*
D12*
X137240000Y-120836358D02*
X137240000Y-121143640D01*
X138000000Y-120836358D02*
X138000000Y-121143640D01*
X121528750Y-122410580D02*
X121528750Y-122129420D01*
X120508750Y-122410580D02*
X120508750Y-122129420D01*
X133810000Y-98037836D02*
X133810000Y-97822164D01*
X134530000Y-98037836D02*
X134530000Y-97822164D01*
X159680000Y-98457836D02*
X159680000Y-98242164D01*
X158960000Y-98457836D02*
X158960000Y-98242164D01*
D13*
X181270001Y-96110000D02*
X181520001Y-96110000D01*
X184820004Y-93749997D02*
X185370006Y-93749997D01*
X181270001Y-93750000D02*
X181270001Y-93999999D01*
X181270001Y-93750000D02*
X181520003Y-93750000D01*
X181270001Y-95859998D02*
X181270001Y-96110000D01*
X185370003Y-95860001D02*
X185370003Y-96110000D01*
X185120001Y-96110000D02*
X185370003Y-96110000D01*
X185370003Y-93750000D02*
X185370003Y-94299999D01*
D12*
X141397341Y-118490060D02*
X141180060Y-118707341D01*
X140859940Y-117952659D02*
X140642659Y-118169940D01*
X185830000Y-107342164D02*
X185830000Y-107557836D01*
X185110000Y-107342164D02*
X185110000Y-107557836D01*
X190330000Y-82330000D02*
X190330000Y-88780000D01*
X190330000Y-77320000D02*
X176410000Y-77320000D01*
X176410000Y-77320000D02*
X176410000Y-80430000D01*
X176410000Y-82330000D02*
X176410000Y-88780000D01*
X190330000Y-91690000D02*
X190330000Y-90980000D01*
X190330000Y-91690000D02*
X176410000Y-91690000D01*
X176410000Y-91690000D02*
X176410000Y-90980000D01*
X190330000Y-77320000D02*
X190330000Y-80430000D01*
X112891250Y-115612164D02*
X112891250Y-115827836D01*
X112171250Y-115612164D02*
X112171250Y-115827836D01*
X148209940Y-123352659D02*
X147992659Y-123569940D01*
X148747341Y-123890060D02*
X148530060Y-124107341D01*
X177510000Y-117622164D02*
X177510000Y-117837836D01*
X178230000Y-117622164D02*
X178230000Y-117837836D01*
X154130060Y-115557341D02*
X154347341Y-115340060D01*
X153592659Y-115019940D02*
X153809940Y-114802659D01*
X195715888Y-90095000D02*
X195715888Y-91090000D01*
X194554888Y-93170000D02*
X194554888Y-94673000D01*
X195835888Y-90193000D02*
X195835888Y-91090000D01*
X194674888Y-93170000D02*
X194674888Y-94650000D01*
X194714888Y-89619000D02*
X194714888Y-91090000D01*
X196355888Y-93170000D02*
X196355888Y-93449000D01*
X194995888Y-93170000D02*
X194995888Y-94558000D01*
X194955888Y-93170000D02*
X194955888Y-94572000D01*
X195755888Y-93170000D02*
X195755888Y-94134000D01*
X195475888Y-89930000D02*
X195475888Y-91090000D01*
X196115888Y-90477000D02*
X196115888Y-91090000D01*
X196275888Y-93170000D02*
X196275888Y-93573000D01*
X195955888Y-90304000D02*
X195955888Y-91090000D01*
X195275888Y-93170000D02*
X195275888Y-94440000D01*
X196195888Y-93170000D02*
X196195888Y-93684000D01*
X195795888Y-90159000D02*
X195795888Y-91090000D01*
X195395888Y-93170000D02*
X195395888Y-94377000D01*
X195795888Y-93170000D02*
X195795888Y-94101000D01*
X195235888Y-93170000D02*
X195235888Y-94459000D01*
X195355888Y-89862000D02*
X195355888Y-91090000D01*
X194514888Y-89580000D02*
X194514888Y-91090000D01*
X194915888Y-93170000D02*
X194915888Y-94585000D01*
X194434888Y-93170000D02*
X194434888Y-94691000D01*
X195195888Y-89782000D02*
X195195888Y-91090000D01*
X195875888Y-90229000D02*
X195875888Y-91090000D01*
X194474888Y-93170000D02*
X194474888Y-94686000D01*
X196235888Y-90630000D02*
X196235888Y-91090000D01*
X195755888Y-90126000D02*
X195755888Y-91090000D01*
X195195888Y-93170000D02*
X195195888Y-94478000D01*
X195995888Y-90345000D02*
X195995888Y-91090000D01*
X196235888Y-93170000D02*
X196235888Y-93630000D01*
X194714888Y-93170000D02*
X194714888Y-94641000D01*
X195075888Y-93170000D02*
X195075888Y-94528000D01*
X194554888Y-89587000D02*
X194554888Y-91090000D01*
X194674888Y-89610000D02*
X194674888Y-91090000D01*
X196395888Y-90879000D02*
X196395888Y-91090000D01*
X196395888Y-93170000D02*
X196395888Y-93381000D01*
X195955888Y-93170000D02*
X195955888Y-93956000D01*
X195555888Y-89981000D02*
X195555888Y-91090000D01*
X194794888Y-93170000D02*
X194794888Y-94621000D01*
X194794888Y-89639000D02*
X194794888Y-91090000D01*
X196715888Y-91846000D02*
X196715888Y-92414000D01*
X196075888Y-93170000D02*
X196075888Y-93829000D01*
X195435888Y-93170000D02*
X195435888Y-94354000D01*
X194594888Y-89594000D02*
X194594888Y-91090000D01*
X195155888Y-93170000D02*
X195155888Y-94495000D01*
X194754888Y-93170000D02*
X194754888Y-94631000D01*
X194835888Y-89650000D02*
X194835888Y-91090000D01*
X195435888Y-89906000D02*
X195435888Y-91090000D01*
X191310113Y-90655000D02*
X191810113Y-90655000D01*
X196315888Y-93170000D02*
X196315888Y-93513000D01*
X195595888Y-90008000D02*
X195595888Y-91090000D01*
X194274888Y-89554000D02*
X194274888Y-94706000D01*
X195315888Y-93170000D02*
X195315888Y-94420000D01*
X194875888Y-89662000D02*
X194875888Y-91090000D01*
X194314888Y-89557000D02*
X194314888Y-94703000D01*
X195235888Y-89801000D02*
X195235888Y-91090000D01*
X195875888Y-93170000D02*
X195875888Y-94031000D01*
X196435888Y-90952000D02*
X196435888Y-93308000D01*
X195275888Y-89820000D02*
X195275888Y-91090000D01*
X195355888Y-93170000D02*
X195355888Y-94398000D01*
X195675888Y-93170000D02*
X195675888Y-94195000D01*
X195675888Y-90065000D02*
X195675888Y-91090000D01*
X194394888Y-89565000D02*
X194394888Y-91090000D01*
X196195888Y-90576000D02*
X196195888Y-91090000D01*
X195315888Y-89840000D02*
X195315888Y-91090000D01*
X196035888Y-93170000D02*
X196035888Y-93873000D01*
X196075888Y-90431000D02*
X196075888Y-91090000D01*
X194915888Y-89675000D02*
X194915888Y-91090000D01*
X194234888Y-89552000D02*
X194234888Y-94708000D01*
X196595888Y-91325000D02*
X196595888Y-92935000D01*
X195835888Y-93170000D02*
X195835888Y-94067000D01*
X196475888Y-91032000D02*
X196475888Y-93228000D01*
X196275888Y-90687000D02*
X196275888Y-91090000D01*
X195595888Y-93170000D02*
X195595888Y-94252000D01*
X194394888Y-93170000D02*
X194394888Y-94695000D01*
X196115888Y-93170000D02*
X196115888Y-93783000D01*
X195075888Y-89732000D02*
X195075888Y-91090000D01*
X195115888Y-89748000D02*
X195115888Y-91090000D01*
X194194888Y-89551000D02*
X194194888Y-94709000D01*
X196035888Y-90387000D02*
X196035888Y-91090000D01*
X194955888Y-89688000D02*
X194955888Y-91090000D01*
X194995888Y-89702000D02*
X194995888Y-91090000D01*
X194354888Y-93170000D02*
X194354888Y-94699000D01*
X196355888Y-90811000D02*
X196355888Y-91090000D01*
X196155888Y-93170000D02*
X196155888Y-93735000D01*
X194875888Y-93170000D02*
X194875888Y-94598000D01*
X195995888Y-93170000D02*
X195995888Y-93915000D01*
X194634888Y-93170000D02*
X194634888Y-94658000D01*
X195915888Y-93170000D02*
X195915888Y-93994000D01*
X195035888Y-93170000D02*
X195035888Y-94544000D01*
X194835888Y-93170000D02*
X194835888Y-94610000D01*
X194154888Y-89550000D02*
X194154888Y-94710000D01*
X194354888Y-89561000D02*
X194354888Y-91090000D01*
X195035888Y-89716000D02*
X195035888Y-91090000D01*
X196315888Y-90747000D02*
X196315888Y-91090000D01*
X196155888Y-90525000D02*
X196155888Y-91090000D01*
X195515888Y-89955000D02*
X195515888Y-91090000D01*
X195475888Y-93170000D02*
X195475888Y-94330000D01*
X196515888Y-91119000D02*
X196515888Y-93141000D01*
X191560113Y-90405000D02*
X191560113Y-90905000D01*
X195515888Y-93170000D02*
X195515888Y-94305000D01*
X194514888Y-93170000D02*
X194514888Y-94680000D01*
X195635888Y-90035000D02*
X195635888Y-91090000D01*
X195715888Y-93170000D02*
X195715888Y-94165000D01*
X194634888Y-89602000D02*
X194634888Y-91090000D01*
X195395888Y-89883000D02*
X195395888Y-91090000D01*
X194594888Y-93170000D02*
X194594888Y-94666000D01*
X195635888Y-93170000D02*
X195635888Y-94225000D01*
X194754888Y-89629000D02*
X194754888Y-91090000D01*
X196635888Y-91453000D02*
X196635888Y-92807000D01*
X194434888Y-89569000D02*
X194434888Y-91090000D01*
X195555888Y-93170000D02*
X195555888Y-94279000D01*
X196555888Y-91215000D02*
X196555888Y-93045000D01*
X195115888Y-93170000D02*
X195115888Y-94512000D01*
X196675888Y-91612000D02*
X196675888Y-92648000D01*
X195915888Y-90266000D02*
X195915888Y-91090000D01*
X194474888Y-89574000D02*
X194474888Y-91090000D01*
X195155888Y-89765000D02*
X195155888Y-91090000D01*
X194114888Y-89550000D02*
X194114888Y-94710000D01*
X196734888Y-92130000D02*
G75*
G03*
X196734888Y-92130000I-2620000J0D01*
G01*
X154825168Y-119341648D02*
X158825168Y-119341648D01*
X154825168Y-116041648D02*
X154825168Y-119341648D01*
X149403283Y-122850684D02*
X149620564Y-123067965D01*
X149940684Y-122313283D02*
X150157965Y-122530564D01*
D13*
X106320000Y-93325000D02*
X106320000Y-93574999D01*
X110420002Y-95435001D02*
X110420002Y-95685000D01*
X109870003Y-93324997D02*
X110420005Y-93324997D01*
X110420002Y-93325000D02*
X110420002Y-93874999D01*
X106320000Y-95434998D02*
X106320000Y-95685000D01*
X110170000Y-95685000D02*
X110420002Y-95685000D01*
X106320000Y-95685000D02*
X106570000Y-95685000D01*
X106320000Y-93325000D02*
X106570002Y-93325000D01*
D12*
X119828170Y-116730000D02*
X120109330Y-116730000D01*
X119828170Y-115710000D02*
X120109330Y-115710000D01*
X183710000Y-98407836D02*
X183710000Y-98192164D01*
X184430000Y-98407836D02*
X184430000Y-98192164D01*
X107735000Y-98107836D02*
X107735000Y-97892164D01*
X108455000Y-98107836D02*
X108455000Y-97892164D01*
X182710000Y-98407836D02*
X182710000Y-98192164D01*
X183430000Y-98407836D02*
X183430000Y-98192164D01*
X134169436Y-121217965D02*
X134386717Y-121000684D01*
X133632035Y-120680564D02*
X133849316Y-120463283D01*
X117583750Y-114377836D02*
X117583750Y-114162164D01*
X118303750Y-114377836D02*
X118303750Y-114162164D01*
X133430000Y-98037836D02*
X133430000Y-97822164D01*
X132710000Y-98037836D02*
X132710000Y-97822164D01*
X154822659Y-112539940D02*
X155039940Y-112322659D01*
X155360060Y-113077341D02*
X155577341Y-112860060D01*
X140430060Y-117957341D02*
X140647341Y-117740060D01*
X139892659Y-117419940D02*
X140109940Y-117202659D01*
D13*
X184470001Y-109550000D02*
X184219999Y-109550000D01*
X184219999Y-109799999D02*
X184219999Y-109550000D01*
X188320001Y-109550000D02*
X188070001Y-109550000D01*
X188320001Y-111910000D02*
X188320001Y-111660001D01*
X184769998Y-111910003D02*
X184219996Y-111910003D01*
X184219999Y-111910000D02*
X184219999Y-111360001D01*
X188320001Y-109800002D02*
X188320001Y-109550000D01*
X188320001Y-111910000D02*
X188069999Y-111910000D01*
D12*
X186930000Y-107342164D02*
X186930000Y-107557836D01*
X186210000Y-107342164D02*
X186210000Y-107557836D01*
%LPC*%
D14*
X117863750Y-118915000D03*
X117863750Y-119875000D03*
D15*
X139870000Y-116480000D03*
X139148752Y-117201248D03*
D16*
X109170000Y-98480000D03*
X109170000Y-97520000D03*
D17*
X136870000Y-89130000D03*
X134370000Y-89130000D03*
X132370000Y-89130000D03*
X129870000Y-89130000D03*
X129370000Y-90630000D03*
X131370000Y-90630000D03*
X133370000Y-90630000D03*
X135370000Y-90630000D03*
X137370000Y-90630000D03*
D18*
X126970000Y-81380000D03*
D19*
X126970000Y-89880000D03*
D18*
X139770000Y-81380000D03*
D19*
X139770000Y-89880000D03*
D20*
X167864888Y-92130000D03*
D21*
X170364888Y-92130000D03*
D16*
X158120000Y-98830000D03*
X158120000Y-97870000D03*
D20*
X142864888Y-92130000D03*
D21*
X145364888Y-92130000D03*
D15*
X148680624Y-121619376D03*
X147959376Y-122340624D03*
D14*
X154070000Y-118700000D03*
X154070000Y-119660000D03*
D17*
X161870000Y-89130000D03*
X159370000Y-89130000D03*
X157370000Y-89130000D03*
X154870000Y-89130000D03*
X154370000Y-90630000D03*
X156370000Y-90630000D03*
X158370000Y-90630000D03*
X160370000Y-90630000D03*
X162370000Y-90630000D03*
D19*
X164770000Y-89880000D03*
X151970000Y-89880000D03*
D18*
X151970000Y-81380000D03*
X164770000Y-81380000D03*
D22*
X143648752Y-121201248D03*
X144370000Y-120480000D03*
D16*
X117868750Y-117900000D03*
X117868750Y-116940000D03*
D17*
X111870000Y-89130000D03*
X109370000Y-89130000D03*
X107370000Y-89130000D03*
X104870000Y-89130000D03*
X104370000Y-90630000D03*
X106370000Y-90630000D03*
X108370000Y-90630000D03*
X110370000Y-90630000D03*
X112370000Y-90630000D03*
D19*
X114770000Y-89880000D03*
D18*
X101970000Y-81380000D03*
D19*
X101970000Y-89880000D03*
D18*
X114770000Y-81380000D03*
D23*
X202000000Y-82200000D03*
D24*
X134870000Y-93880000D03*
X134370001Y-93880000D03*
X133869999Y-93880000D03*
X133370000Y-93880000D03*
X132869998Y-93880000D03*
X132369999Y-93880000D03*
X131870000Y-93880000D03*
X131870000Y-95130000D03*
X132369999Y-95130000D03*
X132869998Y-95130000D03*
X133370000Y-95130000D03*
X133869999Y-95130000D03*
X134370001Y-95130000D03*
X134870000Y-95130000D03*
D25*
X114093750Y-115195000D03*
X114093750Y-116145000D03*
X114093750Y-117095000D03*
X116368750Y-117095000D03*
X116368750Y-115195000D03*
D14*
X112563750Y-118915000D03*
X112563750Y-119875000D03*
X112568750Y-120890000D03*
X112568750Y-121850000D03*
D26*
X116401250Y-120770000D03*
X116401250Y-119820000D03*
X116401250Y-118870000D03*
X114126250Y-118870000D03*
X114126250Y-120770000D03*
D27*
X172520000Y-92565000D03*
X172520000Y-91595000D03*
X197520000Y-92365000D03*
X197520000Y-91395000D03*
D28*
X152814893Y-111371592D03*
X152461339Y-111018039D03*
X152107786Y-110664485D03*
X151754233Y-110310932D03*
X151400679Y-109957379D03*
X151047126Y-109603825D03*
X150693572Y-109250272D03*
X150340019Y-108896718D03*
X149986466Y-108543165D03*
X149632912Y-108189612D03*
X149279359Y-107836058D03*
X148925805Y-107482505D03*
X148572252Y-107128951D03*
X148218699Y-106775398D03*
X147865145Y-106421845D03*
X147511592Y-106068291D03*
D29*
X146539320Y-106068291D03*
X146185767Y-106421845D03*
X145832213Y-106775398D03*
X145478660Y-107128951D03*
X145125107Y-107482505D03*
X144771553Y-107836058D03*
X144418000Y-108189612D03*
X144064446Y-108543165D03*
X143710893Y-108896718D03*
X143357340Y-109250272D03*
X143003786Y-109603825D03*
X142650233Y-109957379D03*
X142296679Y-110310932D03*
X141943126Y-110664485D03*
X141589573Y-111018039D03*
X141236019Y-111371592D03*
D28*
X141236019Y-112343864D03*
X141589573Y-112697417D03*
X141943126Y-113050971D03*
X142296679Y-113404524D03*
X142650233Y-113758077D03*
X143003786Y-114111631D03*
X143357340Y-114465184D03*
X143710893Y-114818738D03*
X144064446Y-115172291D03*
X144418000Y-115525844D03*
X144771553Y-115879398D03*
X145125107Y-116232951D03*
X145478660Y-116586505D03*
X145832213Y-116940058D03*
X146185767Y-117293611D03*
X146539320Y-117647165D03*
D29*
X147511592Y-117647165D03*
X147865145Y-117293611D03*
X148218699Y-116940058D03*
X148572252Y-116586505D03*
X148925805Y-116232951D03*
X149279359Y-115879398D03*
X149632912Y-115525844D03*
X149986466Y-115172291D03*
X150340019Y-114818738D03*
X150693572Y-114465184D03*
X151047126Y-114111631D03*
X151400679Y-113758077D03*
X151754233Y-113404524D03*
X152107786Y-113050971D03*
X152461339Y-112697417D03*
X152814893Y-112343864D03*
D30*
X147025456Y-111857728D03*
D21*
X102995000Y-124700000D03*
D31*
X102995000Y-115700000D03*
D32*
X102995000Y-121700000D03*
D33*
X107495000Y-122700000D03*
X98495000Y-122700000D03*
D17*
X182720000Y-115830000D03*
X185220000Y-115830000D03*
X187220000Y-115830000D03*
X189720000Y-115830000D03*
X190220000Y-114330000D03*
X188220000Y-114330000D03*
X186220000Y-114330000D03*
X184220000Y-114330000D03*
X182220000Y-114330000D03*
D18*
X179820000Y-123580000D03*
D19*
X179820000Y-115080000D03*
D18*
X192620000Y-123580000D03*
D19*
X192620000Y-115080000D03*
D34*
X157299712Y-115363920D03*
X156339712Y-115363920D03*
D35*
X147995000Y-119030000D03*
X147316178Y-119708822D03*
D20*
X117920000Y-92480000D03*
D21*
X120420000Y-92480000D03*
D15*
X142991248Y-119558752D03*
X142270000Y-120280000D03*
D24*
X159970000Y-94105000D03*
X159470001Y-94105000D03*
X158969999Y-94105000D03*
X158470000Y-94105000D03*
X157969998Y-94105000D03*
X157469999Y-94105000D03*
X156970000Y-94105000D03*
X156970000Y-95355000D03*
X157469999Y-95355000D03*
X157969998Y-95355000D03*
X158470000Y-95355000D03*
X158969999Y-95355000D03*
X159470001Y-95355000D03*
X159970000Y-95355000D03*
D36*
X137620000Y-120479999D03*
X137620000Y-121499999D03*
D37*
X121018750Y-123045000D03*
X121018750Y-121495000D03*
D16*
X134170000Y-98410000D03*
X134170000Y-97450000D03*
X159320000Y-98830000D03*
X159320000Y-97870000D03*
D24*
X184820002Y-94305000D03*
X184320003Y-94305000D03*
X183820001Y-94305000D03*
X183320002Y-94305000D03*
X182820000Y-94305000D03*
X182320001Y-94305000D03*
X181820002Y-94305000D03*
X181820002Y-95555000D03*
X182320001Y-95555000D03*
X182820000Y-95555000D03*
X183320002Y-95555000D03*
X183820001Y-95555000D03*
X184320003Y-95555000D03*
X184820002Y-95555000D03*
D15*
X141380624Y-117969376D03*
X140659376Y-118690624D03*
D14*
X185470000Y-106970000D03*
X185470000Y-107930000D03*
D23*
X92000000Y-82100000D03*
D17*
X186870000Y-89130000D03*
X184370000Y-89130000D03*
X182370000Y-89130000D03*
X179870000Y-89130000D03*
X179370000Y-90630000D03*
X181370000Y-90630000D03*
X183370000Y-90630000D03*
X185370000Y-90630000D03*
X187370000Y-90630000D03*
D18*
X176970000Y-81380000D03*
D19*
X189770000Y-89880000D03*
X176970000Y-89880000D03*
D18*
X189770000Y-81380000D03*
D14*
X112531250Y-115240000D03*
X112531250Y-116200000D03*
D15*
X148730624Y-123369376D03*
X148009376Y-124090624D03*
D14*
X177870000Y-117250000D03*
X177870000Y-118210000D03*
D23*
X92000000Y-122800000D03*
D22*
X153609376Y-115540624D03*
X154330624Y-114819376D03*
D20*
X192864888Y-92130000D03*
D21*
X195364888Y-92130000D03*
D38*
X155725168Y-118541648D03*
X157925168Y-118541648D03*
X157925168Y-116841648D03*
X155725168Y-116841648D03*
D39*
X149420000Y-122330000D03*
X150141248Y-123051248D03*
D24*
X109870001Y-93880000D03*
X109370002Y-93880000D03*
X108870000Y-93880000D03*
X108370001Y-93880000D03*
X107869999Y-93880000D03*
X107370000Y-93880000D03*
X106870001Y-93880000D03*
X106870001Y-95130000D03*
X107370000Y-95130000D03*
X107869999Y-95130000D03*
X108370001Y-95130000D03*
X108870000Y-95130000D03*
X109370002Y-95130000D03*
X109870001Y-95130000D03*
D40*
X119193750Y-116220000D03*
X120743750Y-116220000D03*
D16*
X184070000Y-98780000D03*
X184070000Y-97820000D03*
X108095000Y-98480000D03*
X108095000Y-97520000D03*
X183070000Y-98780000D03*
X183070000Y-97820000D03*
D22*
X133648752Y-121201248D03*
X134370000Y-120480000D03*
D16*
X117943750Y-114750000D03*
X117943750Y-113790000D03*
X133070000Y-98410000D03*
X133070000Y-97450000D03*
D22*
X154839376Y-113060624D03*
X155560624Y-112339376D03*
D27*
X147570000Y-92565000D03*
X147570000Y-91595000D03*
X122620000Y-92965000D03*
X122620000Y-91995000D03*
D22*
X139909376Y-117940624D03*
X140630624Y-117219376D03*
D24*
X184770000Y-111355000D03*
X185269999Y-111355000D03*
X185770001Y-111355000D03*
X186270000Y-111355000D03*
X186770002Y-111355000D03*
X187270001Y-111355000D03*
X187770000Y-111355000D03*
X187770000Y-110105000D03*
X187270001Y-110105000D03*
X186770002Y-110105000D03*
X186270000Y-110105000D03*
X185770001Y-110105000D03*
X185269999Y-110105000D03*
X184770000Y-110105000D03*
D14*
X186570000Y-106970000D03*
X186570000Y-107930000D03*
D23*
X202000000Y-122800000D03*
D41*
X141870000Y-101530000D03*
X140869999Y-101530000D03*
X141870000Y-100530002D03*
X140869999Y-100530002D03*
X191369998Y-99630001D03*
X191369998Y-100629999D03*
X192369999Y-99630001D03*
X192369999Y-100629999D03*
X167369999Y-99430001D03*
X166369998Y-100429999D03*
X167369999Y-100429999D03*
X166369998Y-99430001D03*
X115769998Y-100579997D03*
X115769998Y-99579999D03*
X116769999Y-100579997D03*
X116769999Y-99579999D03*
M02*
